<svg viewBox="0 0 1620 1028" xmlns="http://www.w3.org/2000/svg"><defs><style>.cls-1{fill:#ebf3fa;}.cls-2{fill:#fff;}.cls-3{fill:#afcdfb;}.cls-4{fill:#d5e5fb;}.cls-5{fill:#2e3552;}.cls-6{fill:#ffb93e;}.cls-7{fill:#ffa412;}.cls-8{fill:#e2810e;}.cls-9{fill:#ffeddc;}.cls-10{fill:#db6a1d;}.cls-11{fill:#e5c1a1;}.cls-12{fill:#f9ddbf;}.cls-13{fill:#233862;}.cls-14{fill:#e2915a;}.cls-15{fill:#f99746;}.cls-16{fill:#ed7d2b;}.cls-17{fill:#ffb27d;}.cls-18{fill:#2b478b;}.cls-19{fill:#ed975d;}.cls-20{fill:#e9f3fe;}.cls-21{fill:#22407a;}.cls-22{fill:#d9e9f9;}.cls-23{fill:#ba4c43;}.cls-24{fill:#c65447;}.cls-25{fill:#c6dcf7;}</style></defs><g id="图层_2"><g id="图层_1-2"><path d="M90.38,1025.78S-53.39,827.3,92.44,580.61C227.66,351.86,437,461.61,569,251.63c334.35-532,1048.08-123,941,329.12-51.82,218.82,157.72,226.77,51,445.5Z" class="cls-1"></path><path d="M195.07,667.82c0-19.17,14.26-34.7,31.85-34.7s31.86,15.53,31.86,34.7-14.26,34.69-31.86,34.69S195.07,687,195.07,667.82Z" class="cls-2"></path><path d="M230.7,676.07a5.71,5.71,0,0,0-.25-1.88,4.06,4.06,0,0,0-.88-1.49,7.27,7.27,0,0,0-1.6-1.24,17.8,17.8,0,0,0-2.41-1.13,46.41,46.41,0,0,1-4.43-2,15,15,0,0,1-3.4-2.43,9.55,9.55,0,0,1-2.18-3.18,10.63,10.63,0,0,1-.73-4.29,10.45,10.45,0,0,1,.76-3.92,8.93,8.93,0,0,1,2-3.06,10.22,10.22,0,0,1,3.15-2.1,12.72,12.72,0,0,1,4.08-1l.08-5.43,4,.06-.08,5.51a11.6,11.6,0,0,1,3.89,1.3,9.71,9.71,0,0,1,2.95,2.48,10.8,10.8,0,0,1,1.85,3.57,15,15,0,0,1,.6,4.58l-7.24-.11a7.07,7.07,0,0,0-1.18-4.57,4.07,4.07,0,0,0-3.3-1.56,5.06,5.06,0,0,0-2,.31,3.6,3.6,0,0,0-1.35.92,3.74,3.74,0,0,0-.79,1.39,5.78,5.78,0,0,0-.28,1.75,5.38,5.38,0,0,0,.23,1.7,3.69,3.69,0,0,0,.85,1.42,6.74,6.74,0,0,0,1.61,1.24,21.77,21.77,0,0,0,2.5,1.22q2.42,1,4.4,2.1a15.06,15.06,0,0,1,3.38,2.45,9.69,9.69,0,0,1,2.18,3.19,10.59,10.59,0,0,1,.73,4.27,10.71,10.71,0,0,1-.77,4,9.12,9.12,0,0,1-2,3,9.9,9.9,0,0,1-3.18,2,13.76,13.76,0,0,1-4.11.95l-.06,5.05-4-.07.07-5a15.4,15.4,0,0,1-4-1.05,10.55,10.55,0,0,1-3.41-2.25,10.33,10.33,0,0,1-2.36-3.65,13.62,13.62,0,0,1-.83-5.23l7.24.11a8.31,8.31,0,0,0,.42,3,5.11,5.11,0,0,0,1.21,2,4.4,4.4,0,0,0,1.76,1,6.87,6.87,0,0,0,2,.32,5.73,5.73,0,0,0,2.07-.29,4.13,4.13,0,0,0,1.5-.89,3.71,3.71,0,0,0,.93-1.37A5.11,5.11,0,0,0,230.7,676.07Z" class="cls-3"></path><ellipse ry="52.04" rx="47.77" cy="556.39" cx="319.65" class="cls-2"></ellipse><path d="M325.31,568.76a8.75,8.75,0,0,0-.38-2.82,5.91,5.91,0,0,0-1.32-2.22,10.58,10.58,0,0,0-2.4-1.87,26.78,26.78,0,0,0-3.6-1.69,65.17,65.17,0,0,1-6.65-3,22.29,22.29,0,0,1-5.1-3.64,14.18,14.18,0,0,1-3.26-4.76,17.56,17.56,0,0,1,0-12.33,13.61,13.61,0,0,1,3.07-4.59,15.64,15.64,0,0,1,4.72-3.14,19.42,19.42,0,0,1,6.12-1.48l.11-8.13,6,.09-.11,8.25a17.45,17.45,0,0,1,5.83,2,14.48,14.48,0,0,1,4.42,3.72,16.17,16.17,0,0,1,2.77,5.35,21.85,21.85,0,0,1,.9,6.88l-10.85-.18q.06-4.56-1.77-6.85a6.12,6.12,0,0,0-4.95-2.34,7.43,7.43,0,0,0-2.92.47,5.36,5.36,0,0,0-2,1.37,5.76,5.76,0,0,0-1.19,2.09,8.82,8.82,0,0,0-.41,2.62,7.88,7.88,0,0,0,.34,2.55,5.58,5.58,0,0,0,1.27,2.14,10.59,10.59,0,0,0,2.41,1.86,36.1,36.1,0,0,0,3.76,1.83q3.62,1.53,6.59,3.14a22.49,22.49,0,0,1,5.08,3.68,14.47,14.47,0,0,1,3.26,4.78,17.62,17.62,0,0,1-.05,12.4,13.4,13.4,0,0,1-3.09,4.55,14.8,14.8,0,0,1-4.75,3.05,21.13,21.13,0,0,1-6.17,1.42l-.1,7.57-6-.1.1-7.53a23.46,23.46,0,0,1-6-1.57,15.28,15.28,0,0,1-8.66-8.85,20.51,20.51,0,0,1-1.25-7.85l10.86.17a12.87,12.87,0,0,0,.63,4.51,7.53,7.53,0,0,0,1.83,2.92,6.54,6.54,0,0,0,2.62,1.57,10.76,10.76,0,0,0,3,.48,9,9,0,0,0,3.11-.44,6.3,6.3,0,0,0,2.25-1.34,5.47,5.47,0,0,0,1.38-2A7.08,7.08,0,0,0,325.31,568.76Z" class="cls-3"></path><path d="M1321.15,586.45,945.9,966.67,752.71,767.36c-36.16,38.57-92,98.1-148.21,157.85C566.1,966,535,999,509.81,1025.73l-175.48-.22C383,975.32,579,766.76,711,625.8l40.36-43.09L946.63,784.2l286.71-290.51Z" class="cls-4"></path><polygon points="1186.86 447.94 1363.7 650.66 1399.07 419.29 1186.86 447.94" class="cls-4"></polygon><rect rx="1.79" height="4.68" width="1620" y="1023.32" class="cls-5"></rect><path d="M440.84,1009.47v10.46a3.77,3.77,0,0,1-.76,2.25,4.43,4.43,0,0,1-2.06,1.5,3.71,3.71,0,0,1-.81.21,4.92,4.92,0,0,1-.78.07h-182a4.28,4.28,0,0,1-4.4-3.83v-10.87a4.27,4.27,0,0,1,4.4-3.82H436.43a4,4,0,0,1,.78.07,4.39,4.39,0,0,1,2.87,1.71A3.74,3.74,0,0,1,440.84,1009.47Z" class="cls-6"></path><path d="M351.44,1024H253.91a4,4,0,0,1-3.93-3.83v-10.87a4,4,0,0,1,3.93-3.82h85.55A32.75,32.75,0,0,0,351.44,1024Z" class="cls-7"></path><rect height="18.51" width="2.07" y="1005.44" x="416.62" class="cls-7"></rect><rect height="18.51" width="2.07" y="1005.44" x="409.61" class="cls-7"></rect><rect height="18.51" width="2.07" y="1005.44" x="401.21" class="cls-7"></rect><rect height="18.51" width="2.07" y="1005.44" x="388.34" class="cls-7"></rect><rect height="18.51" width="2.07" y="1005.44" x="374.73" class="cls-7"></rect><rect height="18.51" width="2.07" y="1005.44" x="353.86" class="cls-7"></rect><rect height="18.51" width="2.07" y="1005.44" x="334.32" class="cls-7"></rect><rect height="18.51" width="2.07" y="1005.44" x="316.87" class="cls-7"></rect><rect height="18.51" width="2.07" y="1005.44" x="423.28" class="cls-7"></rect><rect height="18.51" width="2.07" y="1005.44" x="427.69" class="cls-7"></rect><rect height="18.51" width="2.07" y="1005.44" x="431.94" class="cls-7"></rect><path d="M437.21,1005.51v18.38a4.92,4.92,0,0,1-.78.07h-1.29v-18.52h1.29A4,4,0,0,1,437.21,1005.51Z" class="cls-7"></path><path d="M440.08,1007.22v15a4.43,4.43,0,0,1-2.06,1.5v-18A4.38,4.38,0,0,1,440.08,1007.22Z" class="cls-7"></path><path d="M421.37,991v10.45a3.73,3.73,0,0,1-.75,2.25,4.36,4.36,0,0,1-2.07,1.51,5.54,5.54,0,0,1-.8.21,5.12,5.12,0,0,1-.78.06H234.92a4.27,4.27,0,0,1-4.4-3.82c0-.07,0-.14,0-.21V991c0-.07,0-.14,0-.21a4.27,4.27,0,0,1,4.4-3.82H417.47l.16,0,.12,0a5.54,5.54,0,0,1,.8.21l.12,0,.11,0,.22.09.13.07.11.06.21.12.22.15a1.09,1.09,0,0,1,.17.13h0l.11.09a3.06,3.06,0,0,1,.32.3l.09.09.09.1.16.21A3.71,3.71,0,0,1,421.37,991Z" class="cls-6"></path><path d="M332,1005.44H234.45a4,4,0,0,1-3.93-3.82c0-.07,0-.14,0-.21V991c0-.07,0-.14,0-.21a4,4,0,0,1,3.93-3.82H320l.12.45A32.5,32.5,0,0,0,332,1005.44Z" class="cls-7"></path><rect height="18.51" width="2.07" y="986.93" x="397.15" class="cls-7"></rect><rect height="18.51" width="2.07" y="986.93" x="390.15" class="cls-7"></rect><rect height="18.51" width="2.07" y="986.93" x="381.75" class="cls-7"></rect><rect height="18.51" width="2.07" y="986.93" x="368.88" class="cls-7"></rect><rect height="18.51" width="2.07" y="986.93" x="355.26" class="cls-7"></rect><rect height="18.51" width="2.07" y="986.93" x="334.39" class="cls-7"></rect><rect height="18.51" width="2.07" y="986.93" x="314.85" class="cls-7"></rect><rect height="18.51" width="2.07" y="986.93" x="297.4" class="cls-7"></rect><rect height="18.51" width="2.07" y="986.93" x="403.82" class="cls-7"></rect><rect height="18.51" width="2.07" y="986.93" x="408.22" class="cls-7"></rect><rect height="18.51" width="2.07" y="986.93" x="412.48" class="cls-7"></rect><path d="M417.75,987v18.39a5.12,5.12,0,0,1-.78.06h-1.29V986.93H417A5.12,5.12,0,0,1,417.75,987Z" class="cls-7"></path><path d="M420.62,988.71v14.95a4.36,4.36,0,0,1-2.07,1.51v-18A4.36,4.36,0,0,1,420.62,988.71Z" class="cls-7"></path><path d="M430.78,972.9v10.45a3.78,3.78,0,0,1-.75,2.25,4.46,4.46,0,0,1-2.07,1.51,4.38,4.38,0,0,1-.81.21,4.9,4.9,0,0,1-.77.06H244.32a4.72,4.72,0,0,1-2-.45,4.09,4.09,0,0,1-2.35-3.19,1.09,1.09,0,0,1,0-.18,1.48,1.48,0,0,1,0-.21V972.9a1.48,1.48,0,0,1,0-.21,4.26,4.26,0,0,1,4.39-3.82H426.38a4.9,4.9,0,0,1,.77.06,5.34,5.34,0,0,1,.81.21,4.46,4.46,0,0,1,2.07,1.51A3.8,3.8,0,0,1,430.78,972.9Z" class="cls-6"></path><path d="M341.38,987.38H243.85a3.82,3.82,0,0,1-1.81-.45,4.05,4.05,0,0,1-2.1-3.19,1.09,1.09,0,0,1,0-.18,1.48,1.48,0,0,1,0-.21V972.9a1.48,1.48,0,0,1,0-.21,4,4,0,0,1,3.92-3.82h85.56a32.79,32.79,0,0,0,11.37,18.06Z" class="cls-7"></path><rect height="18.51" width="2.07" y="968.87" x="406.56" class="cls-7"></rect><rect height="18.51" width="2.07" y="968.87" x="399.55" class="cls-7"></rect><rect height="18.51" width="2.07" y="968.87" x="391.16" class="cls-7"></rect><rect height="18.51" width="2.07" y="968.87" x="378.28" class="cls-7"></rect><rect height="18.51" width="2.07" y="968.87" x="364.67" class="cls-7"></rect><rect height="18.51" width="2.07" y="968.87" x="343.8" class="cls-7"></rect><rect height="18.51" width="2.07" y="968.87" x="324.26" class="cls-7"></rect><rect height="18.51" width="2.07" y="968.87" x="306.81" class="cls-7"></rect><rect height="18.51" width="2.07" y="968.87" x="413.23" class="cls-7"></rect><rect height="18.51" width="2.07" y="968.87" x="417.63" class="cls-7"></rect><rect height="18.51" width="2.07" y="968.87" x="421.88" class="cls-7"></rect><path d="M427.15,968.93v18.39a4.9,4.9,0,0,1-.77.06h-1.3V968.87h1.3A4.9,4.9,0,0,1,427.15,968.93Z" class="cls-7"></path><path d="M430,970.65v15a4.46,4.46,0,0,1-2.07,1.51v-18A4.46,4.46,0,0,1,430,970.65Z" class="cls-7"></path><path d="M435.14,954.38v10.46a3.8,3.8,0,0,1-.75,2.25,4.46,4.46,0,0,1-2.07,1.51,4.36,4.36,0,0,1-.81.2,3.94,3.94,0,0,1-.77.07h-182a4.27,4.27,0,0,1-4.4-3.82,1.48,1.48,0,0,1,0-.21V954.38a1.41,1.41,0,0,1,0-.2,4.21,4.21,0,0,1,3.87-3.8,4.61,4.61,0,0,1,.53,0H430.74a4.9,4.9,0,0,1,.77.06,3.71,3.71,0,0,1,.81.21,4.46,4.46,0,0,1,2.07,1.51A3.77,3.77,0,0,1,435.14,954.38Z" class="cls-6"></path><path d="M345.74,968.87H248.21a4,4,0,0,1-3.92-3.82,1.48,1.48,0,0,1,0-.21V954.38a1.41,1.41,0,0,1,0-.2,4,4,0,0,1,3.46-3.8,3.46,3.46,0,0,1,.46,0h85.56v0A32.74,32.74,0,0,0,345.74,968.87Z" class="cls-7"></path><rect height="18.51" width="2.07" y="950.35" x="410.92" class="cls-7"></rect><rect height="18.51" width="2.07" y="950.35" x="403.92" class="cls-7"></rect><rect height="18.51" width="2.07" y="950.35" x="395.52" class="cls-7"></rect><rect height="18.51" width="2.07" y="950.35" x="382.64" class="cls-7"></rect><rect height="18.51" width="2.07" y="950.35" x="369.03" class="cls-7"></rect><rect height="18.51" width="2.07" y="950.35" x="348.16" class="cls-7"></rect><rect height="18.51" width="2.07" y="950.35" x="328.62" class="cls-7"></rect><rect height="18.51" width="2.07" y="950.35" x="311.17" class="cls-7"></rect><rect height="18.51" width="2.07" y="950.35" x="417.59" class="cls-7"></rect><rect height="18.51" width="2.07" y="950.35" x="421.99" class="cls-7"></rect><rect height="18.51" width="2.07" y="950.35" x="426.24" class="cls-7"></rect><path d="M431.51,950.42V968.8a3.94,3.94,0,0,1-.77.07h-1.3V950.35h1.3A4.9,4.9,0,0,1,431.51,950.42Z" class="cls-7"></path><path d="M434.39,952.13v15a4.46,4.46,0,0,1-2.07,1.51v-18A4.44,4.44,0,0,1,434.39,952.13Z" class="cls-7"></path><path d="M421.76,935.9v10.45a3.72,3.72,0,0,1-.76,2.25,4.36,4.36,0,0,1-2.07,1.51,3.49,3.49,0,0,1-.8.21l-.26,0H235.3a4.27,4.27,0,0,1-4.4-3.82V935.69c0-.06,0-.11,0-.17a4.2,4.2,0,0,1,3.31-3.53l.13,0a4.25,4.25,0,0,1,1-.1H417.35l.4,0h.17l.21,0a4.93,4.93,0,0,1,.8.21,4.36,4.36,0,0,1,2.07,1.51A3.74,3.74,0,0,1,421.76,935.9Z" class="cls-6"></path><path d="M332.36,950.38H234.83a4,4,0,0,1-3.93-3.82V935.69c0-.06,0-.11,0-.17A4,4,0,0,1,234,932l.17,0a4,4,0,0,1,.7-.06h85.55a.65.65,0,0,0,0,.13,32.63,32.63,0,0,0,11.9,18.36Z" class="cls-7"></path><rect height="18.51" width="2.07" y="931.87" x="397.53" class="cls-7"></rect><rect height="18.51" width="2.07" y="931.87" x="390.53" class="cls-7"></rect><rect height="18.51" width="2.07" y="931.87" x="382.13" class="cls-7"></rect><rect height="18.51" width="2.07" y="931.87" x="369.26" class="cls-7"></rect><rect height="18.51" width="2.07" y="931.87" x="355.64" class="cls-7"></rect><rect height="18.51" width="2.07" y="931.87" x="334.77" class="cls-7"></rect><rect height="18.51" width="2.07" y="931.87" x="315.23" class="cls-7"></rect><rect height="18.51" width="2.07" y="931.87" x="297.79" class="cls-7"></rect><rect height="18.51" width="2.07" y="931.87" x="404.2" class="cls-7"></rect><rect height="18.51" width="2.07" y="931.87" x="408.61" class="cls-7"></rect><rect height="18.51" width="2.07" y="931.87" x="412.86" class="cls-7"></rect><path d="M418.13,931.93v18.39a4.93,4.93,0,0,1-.78.06h-1.29V931.87h1.29A4.93,4.93,0,0,1,418.13,931.93Z" class="cls-7"></path><path d="M421,933.65v15a4.36,4.36,0,0,1-2.07,1.51v-18A4.36,4.36,0,0,1,421,933.65Z" class="cls-7"></path><path d="M421.37,917.52V928a3.71,3.71,0,0,1-.75,2.25,4.36,4.36,0,0,1-2.07,1.51,4.16,4.16,0,0,1-.63.17h0l-.17,0a5.12,5.12,0,0,1-.78.06H234.92a5.3,5.3,0,0,1-.57,0l-.22,0a4.16,4.16,0,0,1-3.61-3.75c0-.07,0-.14,0-.21V917.52c0-.07,0-.14,0-.21a4.27,4.27,0,0,1,4.4-3.82H417.47l.16,0,.12,0a5.54,5.54,0,0,1,.8.21l.12,0,.11.05.22.09.24.13.21.12.22.15.17.13h0l.11.09a3.06,3.06,0,0,1,.32.3l.09.09.09.1.16.21A3.71,3.71,0,0,1,421.37,917.52Z" class="cls-6"></path><path d="M332,932H234.22l-.26,0a4,4,0,0,1-3.44-3.79c0-.07,0-.14,0-.21V917.52c0-.07,0-.14,0-.21a4,4,0,0,1,3.93-3.82H320l.12.45a32.52,32.52,0,0,0,11.68,17.93Z" class="cls-7"></path><rect height="18.51" width="2.07" y="913.49" x="397.15" class="cls-7"></rect><rect height="18.51" width="2.07" y="913.49" x="390.15" class="cls-7"></rect><rect height="18.51" width="2.07" y="913.49" x="381.75" class="cls-7"></rect><rect height="18.51" width="2.07" y="913.49" x="368.88" class="cls-7"></rect><rect height="18.51" width="2.07" y="913.49" x="355.26" class="cls-7"></rect><rect height="18.51" width="2.07" y="913.49" x="334.39" class="cls-7"></rect><rect height="18.51" width="2.07" y="913.49" x="314.85" class="cls-7"></rect><rect height="18.51" width="2.07" y="913.49" x="297.4" class="cls-7"></rect><rect height="18.51" width="2.07" y="913.49" x="403.82" class="cls-7"></rect><rect height="18.51" width="2.07" y="913.49" x="408.22" class="cls-7"></rect><rect height="18.51" width="2.07" y="913.49" x="412.48" class="cls-7"></rect><path d="M417.75,913.55v18.39a5.12,5.12,0,0,1-.78.06h-1.29V913.49H417A5.12,5.12,0,0,1,417.75,913.55Z" class="cls-7"></path><path d="M420.62,915.27v15a4.36,4.36,0,0,1-2.07,1.51v-18A4.36,4.36,0,0,1,420.62,915.27Z" class="cls-7"></path><path d="M430.78,899.46v10.45a3.78,3.78,0,0,1-.75,2.25,4.46,4.46,0,0,1-2.07,1.51,3.71,3.71,0,0,1-.81.21,4.9,4.9,0,0,1-.77.06H244.32a4.72,4.72,0,0,1-2-.45,4.09,4.09,0,0,1-2.35-3.19,1.09,1.09,0,0,1,0-.18,1.48,1.48,0,0,1,0-.21V899.46a1.48,1.48,0,0,1,0-.21,4.26,4.26,0,0,1,4.39-3.82H426.38a4.9,4.9,0,0,1,.77.06,5.34,5.34,0,0,1,.81.21,4.46,4.46,0,0,1,2.07,1.51A3.8,3.8,0,0,1,430.78,899.46Z" class="cls-6"></path><path d="M341.38,913.94H243.85a3.82,3.82,0,0,1-1.81-.45,4.05,4.05,0,0,1-2.1-3.19,1.09,1.09,0,0,1,0-.18,1.48,1.48,0,0,1,0-.21V899.46a1.48,1.48,0,0,1,0-.21,4,4,0,0,1,3.92-3.82h85.56a32.79,32.79,0,0,0,11.37,18.06Z" class="cls-7"></path><rect height="18.51" width="2.07" y="895.43" x="406.56" class="cls-7"></rect><rect height="18.51" width="2.07" y="895.43" x="399.55" class="cls-7"></rect><rect height="18.51" width="2.07" y="895.43" x="391.16" class="cls-7"></rect><rect height="18.51" width="2.07" y="895.43" x="378.28" class="cls-7"></rect><rect height="18.51" width="2.07" y="895.43" x="364.67" class="cls-7"></rect><rect height="18.51" width="2.07" y="895.43" x="343.8" class="cls-7"></rect><rect height="18.51" width="2.07" y="895.43" x="324.26" class="cls-7"></rect><rect height="18.51" width="2.07" y="895.43" x="306.81" class="cls-7"></rect><rect height="18.51" width="2.07" y="895.43" x="413.23" class="cls-7"></rect><rect height="18.51" width="2.07" y="895.43" x="417.63" class="cls-7"></rect><rect height="18.51" width="2.07" y="895.43" x="421.88" class="cls-7"></rect><path d="M427.15,895.49v18.39a4.9,4.9,0,0,1-.77.06h-1.3V895.43h1.3A4.9,4.9,0,0,1,427.15,895.49Z" class="cls-7"></path><path d="M430,897.21v14.95a4.46,4.46,0,0,1-2.07,1.51v-18A4.46,4.46,0,0,1,430,897.21Z" class="cls-7"></path><path d="M445.66,880.94V891.4a3.74,3.74,0,0,1-.76,2.25,4.38,4.38,0,0,1-2.06,1.51,5.34,5.34,0,0,1-.81.21,4.93,4.93,0,0,1-.78.06h-182a4.27,4.27,0,0,1-4.4-3.82V880.74a4.22,4.22,0,0,1,3.88-3.8l.52,0H441.25a4.93,4.93,0,0,1,.78.06,4.52,4.52,0,0,1,2.87,1.72A3.71,3.71,0,0,1,445.66,880.94Z" class="cls-6"></path><path d="M356.26,895.43H258.73a4,4,0,0,1-3.93-3.82V880.74a4,4,0,0,1,3.46-3.8l.47,0h85.55v0A32.69,32.69,0,0,0,356.26,895.43Z" class="cls-7"></path><rect height="18.51" width="2.07" y="876.92" x="421.44" class="cls-7"></rect><rect height="18.51" width="2.07" y="876.92" x="414.43" class="cls-7"></rect><rect height="18.51" width="2.07" y="876.92" x="406.03" class="cls-7"></rect><rect height="18.51" width="2.07" y="876.92" x="393.16" class="cls-7"></rect><rect height="18.51" width="2.07" y="876.92" x="379.55" class="cls-7"></rect><rect height="18.51" width="2.07" y="876.92" x="358.68" class="cls-7"></rect><rect height="18.51" width="2.07" y="876.92" x="339.14" class="cls-7"></rect><rect height="18.51" width="2.07" y="876.92" x="321.69" class="cls-7"></rect><rect height="18.51" width="2.07" y="876.92" x="428.1" class="cls-7"></rect><rect height="18.51" width="2.07" y="876.92" x="432.51" class="cls-7"></rect><rect height="18.51" width="2.07" y="876.92" x="436.76" class="cls-7"></rect><path d="M442,877v18.39a4.93,4.93,0,0,1-.78.06H440V876.92h1.29A4.93,4.93,0,0,1,442,877Z" class="cls-7"></path><path d="M444.9,878.7v14.95a4.38,4.38,0,0,1-2.06,1.51v-18A4.38,4.38,0,0,1,444.9,878.7Z" class="cls-7"></path><path d="M421.76,862.46v10.46a3.77,3.77,0,0,1-.76,2.25,4.41,4.41,0,0,1-2.07,1.5,3.49,3.49,0,0,1-.8.21l-.26,0H235.3a4.27,4.27,0,0,1-4.4-3.82V862.25a4.27,4.27,0,0,1,4.4-3.82H417.59l.54.06a4.07,4.07,0,0,1,.8.2l.39.16.22.11h0l.22.13,0,0,.19.13a5.2,5.2,0,0,1,.44.35l.12.12,0,0,.07.08h0l.13.15a1.84,1.84,0,0,1,.17.22A3.74,3.74,0,0,1,421.76,862.46Z" class="cls-6"></path><path d="M332.36,876.94H234.83a4,4,0,0,1-3.93-3.82V862.25a4,4,0,0,1,3.93-3.82h85.55c0,.14.07.28.11.43a32.59,32.59,0,0,0,11.83,18.06Z" class="cls-7"></path><rect height="18.51" width="2.07" y="858.43" x="397.53" class="cls-7"></rect><rect height="18.51" width="2.07" y="858.43" x="390.53" class="cls-7"></rect><rect height="18.51" width="2.07" y="858.43" x="382.13" class="cls-7"></rect><rect height="18.51" width="2.07" y="858.43" x="369.26" class="cls-7"></rect><rect height="18.51" width="2.07" y="858.43" x="355.64" class="cls-7"></rect><rect height="18.51" width="2.07" y="858.43" x="334.77" class="cls-7"></rect><rect height="18.51" width="2.07" y="858.43" x="315.23" class="cls-7"></rect><rect height="18.51" width="2.07" y="858.43" x="297.79" class="cls-7"></rect><rect height="18.51" width="2.07" y="858.43" x="404.2" class="cls-7"></rect><rect height="18.51" width="2.07" y="858.43" x="408.61" class="cls-7"></rect><rect height="18.51" width="2.07" y="858.43" x="412.86" class="cls-7"></rect><path d="M418.13,858.5v18.38a4.93,4.93,0,0,1-.78.06h-1.29V858.43h1.29A4,4,0,0,1,418.13,858.5Z" class="cls-7"></path><path d="M421,860.21v15a4.41,4.41,0,0,1-2.07,1.5v-18A4.36,4.36,0,0,1,421,860.21Z" class="cls-7"></path><path d="M435.14,844.37v10.46a3.8,3.8,0,0,1-.75,2.25,4.46,4.46,0,0,1-2.07,1.51,4.36,4.36,0,0,1-.81.2,3.94,3.94,0,0,1-.77.07h-182a4.74,4.74,0,0,1-2-.43,4.06,4.06,0,0,1-2.42-3.23.86.86,0,0,1,0-.16,1.48,1.48,0,0,1,0-.21V844.37a1.34,1.34,0,0,1,0-.2,4.21,4.21,0,0,1,3.87-3.8,4.58,4.58,0,0,1,.53,0H430.74a4.9,4.9,0,0,1,.77.07,3.71,3.71,0,0,1,.81.21,4.44,4.44,0,0,1,2.07,1.5A3.82,3.82,0,0,1,435.14,844.37Z" class="cls-6"></path><path d="M345.74,858.86H248.21a3.84,3.84,0,0,1-1.75-.43,4,4,0,0,1-2.16-3.23.86.86,0,0,1,0-.16,1.48,1.48,0,0,1,0-.21V844.37a1.34,1.34,0,0,1,0-.2,4,4,0,0,1,3.46-3.8,3.44,3.44,0,0,1,.46,0h85.56v0a32.82,32.82,0,0,0,11.41,18.06Z" class="cls-7"></path><rect height="18.51" width="2.07" y="840.34" x="410.92" class="cls-7"></rect><rect height="18.51" width="2.07" y="840.34" x="403.92" class="cls-7"></rect><rect height="18.51" width="2.07" y="840.34" x="395.52" class="cls-7"></rect><rect height="18.51" width="2.07" y="840.34" x="382.64" class="cls-7"></rect><rect height="18.51" width="2.07" y="840.34" x="369.03" class="cls-7"></rect><rect height="18.51" width="2.07" y="840.34" x="348.16" class="cls-7"></rect><rect height="18.51" width="2.07" y="840.34" x="328.62" class="cls-7"></rect><rect height="18.51" width="2.07" y="840.34" x="311.17" class="cls-7"></rect><rect height="18.51" width="2.07" y="840.34" x="417.59" class="cls-7"></rect><rect height="18.51" width="2.07" y="840.34" x="421.99" class="cls-7"></rect><rect height="18.51" width="2.07" y="840.34" x="426.24" class="cls-7"></rect><path d="M431.51,840.41v18.38a3.94,3.94,0,0,1-.77.07h-1.3V840.34h1.3A4.9,4.9,0,0,1,431.51,840.41Z" class="cls-7"></path><path d="M434.39,842.12v15a4.46,4.46,0,0,1-2.07,1.51v-18A4.44,4.44,0,0,1,434.39,842.12Z" class="cls-7"></path><path d="M440.84,825.89v10.45a3.72,3.72,0,0,1-.76,2.25,4.52,4.52,0,0,1-2.87,1.72,2.06,2.06,0,0,1-.26,0l-.14,0H254.38a4.27,4.27,0,0,1-4.4-3.82V825.68a4.27,4.27,0,0,1,4.4-3.82H436.43a4.93,4.93,0,0,1,.78.06,5.34,5.34,0,0,1,.81.21,4.38,4.38,0,0,1,2.06,1.51A3.74,3.74,0,0,1,440.84,825.89Z" class="cls-6"></path><path d="M351.44,840.37H253.91a4,4,0,0,1-3.93-3.82V825.68a4,4,0,0,1,3.93-3.82h85.55a32.68,32.68,0,0,0,11.94,18.48Z" class="cls-7"></path><rect height="18.51" width="2.07" y="821.86" x="416.62" class="cls-7"></rect><rect height="18.51" width="2.07" y="821.86" x="409.61" class="cls-7"></rect><rect height="18.51" width="2.07" y="821.86" x="401.21" class="cls-7"></rect><rect height="18.51" width="2.07" y="821.86" x="388.34" class="cls-7"></rect><rect height="18.51" width="2.07" y="821.86" x="374.73" class="cls-7"></rect><rect height="18.51" width="2.07" y="821.86" x="353.86" class="cls-7"></rect><rect height="18.51" width="2.07" y="821.86" x="334.32" class="cls-7"></rect><rect height="18.51" width="2.07" y="821.86" x="316.87" class="cls-7"></rect><rect height="18.51" width="2.07" y="821.86" x="423.28" class="cls-7"></rect><rect height="18.51" width="2.07" y="821.86" x="427.69" class="cls-7"></rect><rect height="18.51" width="2.07" y="821.86" x="431.94" class="cls-7"></rect><path d="M437.21,821.92v18.39a4.93,4.93,0,0,1-.78.06h-1.29V821.86h1.29A4.93,4.93,0,0,1,437.21,821.92Z" class="cls-7"></path><path d="M440.08,823.64v15A4.38,4.38,0,0,1,438,840.1v-18A4.38,4.38,0,0,1,440.08,823.64Z" class="cls-7"></path><ellipse ry="94.25" rx="86.52" cy="929.75" cx="239.42" class="cls-8"></ellipse><ellipse ry="94.25" rx="86.52" cy="929.75" cx="231.87" class="cls-6"></ellipse><path d="M231.87,1016.74c-21.05,0-40.85-8.94-55.74-25.16S153,953.8,153,930.86s8.2-44.5,23.09-60.72S210.82,845,231.87,845s40.86,8.93,55.75,25.15,23.08,37.79,23.08,60.72-8.2,44.51-23.08,60.72S252.93,1016.74,231.87,1016.74Zm0-166.63c-40.87,0-74.12,36.23-74.12,80.75s33.25,80.75,74.12,80.75S306,975.39,306,930.86,272.75,850.11,231.87,850.11Z" class="cls-7"></path><path d="M242.73,955.79a15.32,15.32,0,0,0-.19-5,10.87,10.87,0,0,0-1.93-4.14,18.67,18.67,0,0,0-3.87-3.72,47.6,47.6,0,0,0-6-3.66,118.81,118.81,0,0,1-11.08-6.63,40.25,40.25,0,0,1-8.28-7.34,25.66,25.66,0,0,1-4.89-8.95,28.14,28.14,0,0,1-.84-11.44,27.66,27.66,0,0,1,2.94-10,23.38,23.38,0,0,1,6.11-7.39,26.38,26.38,0,0,1,8.75-4.54,33.74,33.74,0,0,1,10.92-1.37l1.54-14.16,10.46,1.36-1.56,14.35a31.19,31.19,0,0,1,9.84,4.56,26.5,26.5,0,0,1,7.09,7.35,29,29,0,0,1,3.93,9.87,39.21,39.21,0,0,1,.43,12.16l-18.89-2.44q.85-7.93-1.94-12.29A11,11,0,0,0,237,897.3a13.12,13.12,0,0,0-5.16.24,9.36,9.36,0,0,0-3.76,2,9.73,9.73,0,0,0-2.43,3.41,15.44,15.44,0,0,0-1.15,4.48,14.29,14.29,0,0,0,.17,4.52,10,10,0,0,0,1.86,4,18.45,18.45,0,0,0,3.9,3.73,60.86,60.86,0,0,0,6.23,3.92q6.06,3.41,11,6.78a40.5,40.5,0,0,1,8.24,7.41,26,26,0,0,1,4.89,9,27.89,27.89,0,0,1,.85,11.38,27.55,27.55,0,0,1-3,10.21,23.1,23.1,0,0,1-6.13,7.32,25.56,25.56,0,0,1-8.8,4.36,36.05,36.05,0,0,1-11,1.27l-1.44,13.16-10.39-1.35L222.33,980A41.52,41.52,0,0,1,212.12,976a28.38,28.38,0,0,1-8.37-6.88,28,28,0,0,1-5.24-10.24,35.87,35.87,0,0,1-.87-13.92l18.89,2.44a22.24,22.24,0,0,0,.35,8,13.73,13.73,0,0,0,2.69,5.45,11.78,11.78,0,0,0,4.32,3.24,18.85,18.85,0,0,0,5.18,1.44,15.66,15.66,0,0,0,5.48-.16,10.83,10.83,0,0,0,4.15-1.88,9.58,9.58,0,0,0,2.75-3.3A12.89,12.89,0,0,0,242.73,955.79Z" class="cls-7"></path><path d="M400.5,706.52S390,722.61,380.39,722.83s-24.25-7.45-24.25-7.45-8.83-21.44-2.84-29.83c0,0,6-2.87,12.29,2.2a19.68,19.68,0,0,1,3.25,3.39,10.27,10.27,0,0,0,5.05,3.73c6.86,2.27,15-3.08,18.05,2.09a34.35,34.35,0,0,0,5.31,6.84A24,24,0,0,0,400.5,706.52Z" class="cls-9"></path><path d="M263.73,822.57s37.08-97.87,103.82-99.74c0,0,61.61,7.46,65,99.74Z" class="cls-9"></path><path d="M349.27,725.82s26.75,6.48,35,2.67c0,0,1.24-12.18-10-10.47-7.71,1.17-12.74-2.87-15.69-4.51C354.39,711.19,348.16,720.72,349.27,725.82Z" class="cls-10"></path><path d="M372.55,707.45c-1.71,1.4-7-19.7-7-19.7a19.68,19.68,0,0,1,3.25,3.39,10.27,10.27,0,0,0,5.05,3.73C373.9,695.48,374.21,706.09,372.55,707.45Z" class="cls-11"></path><path d="M397.25,703.8c-.38.24-12.75,8.31-14.43,8.31S391.94,697,391.94,697A34.35,34.35,0,0,0,397.25,703.8Z" class="cls-11"></path><path d="M300,795.23c-.69-.64,26.24-43.19,33.65-43.5s24.08,9.32,36.14,10.56,23.76-2.48,26,5.29,8.56,35.3,4.71,39.71S314.76,809,300,795.23Z" class="cls-12"></path><path d="M1466.11,1013.75v7.16a2.61,2.61,0,0,1-.51,1.54,3,3,0,0,1-1.42,1,3.16,3.16,0,0,1-.55.14,3.07,3.07,0,0,1-.53,0H1338.5a2.92,2.92,0,0,1-3-2.62v-7.44a2.91,2.91,0,0,1,3-2.61h124.6a3.08,3.08,0,0,1,.53,0,3.16,3.16,0,0,1,.55.14,3.1,3.1,0,0,1,1.42,1A2.61,2.61,0,0,1,1466.11,1013.75Z" class="cls-6"></path><path d="M1404.93,1023.67h-66.75a2.73,2.73,0,0,1-2.69-2.62v-7.44a2.72,2.72,0,0,1,2.69-2.61h58.55A22.43,22.43,0,0,0,1404.93,1023.67Z" class="cls-7"></path><rect height="12.67" width="1.42" y="1011" x="1449.54" class="cls-7"></rect><rect height="12.67" width="1.42" y="1011" x="1444.74" class="cls-7"></rect><rect height="12.67" width="1.42" y="1011" x="1438.99" class="cls-7"></rect><rect height="12.67" width="1.42" y="1011" x="1430.18" class="cls-7"></rect><rect height="12.67" width="1.42" y="1011" x="1420.87" class="cls-7"></rect><rect height="12.67" width="1.42" y="1011" x="1406.58" class="cls-7"></rect><rect height="12.67" width="1.42" y="1011" x="1393.21" class="cls-7"></rect><rect height="12.67" width="1.42" y="1011" x="1381.27" class="cls-7"></rect><rect height="12.67" width="1.42" y="1011" x="1454.1" class="cls-7"></rect><rect height="12.67" width="1.42" y="1011" x="1457.11" class="cls-7"></rect><rect height="12.67" width="1.42" y="1011" x="1460.03" class="cls-7"></rect><path d="M1463.63,1011v12.58a3.07,3.07,0,0,1-.53,0h-.88V1011h.88A3.08,3.08,0,0,1,1463.63,1011Z" class="cls-7"></path><path d="M1465.6,1012.21v10.24a3,3,0,0,1-1.42,1v-12.3A3.1,3.1,0,0,1,1465.6,1012.21Z" class="cls-7"></path><path d="M1452.79,1001.08v7.16a2.61,2.61,0,0,1-.51,1.54,3.1,3.1,0,0,1-1.42,1,3.41,3.41,0,0,1-.55.14,3.07,3.07,0,0,1-.53,0h-124.6a2.92,2.92,0,0,1-3-2.62s0-.1,0-.14v-7.16c0-.05,0-.09,0-.14a2.92,2.92,0,0,1,3-2.62h124.94l.11,0h.08a3.41,3.41,0,0,1,.55.14l.08,0,.08,0,.15.07.08,0,.08,0,.14.08.16.11a.48.48,0,0,1,.11.09h0l.08.06.22.21.06.06.05.07.12.14A2.61,2.61,0,0,1,1452.79,1001.08Z" class="cls-6"></path><path d="M1391.61,1011h-66.75a2.73,2.73,0,0,1-2.69-2.62s0-.1,0-.14v-7.16c0-.05,0-.09,0-.14a2.73,2.73,0,0,1,2.69-2.62h58.55c0,.11,0,.21.08.32A22.27,22.27,0,0,0,1391.61,1011Z" class="cls-7"></path><rect height="12.67" width="1.42" y="998.32" x="1436.22" class="cls-7"></rect><rect height="12.67" width="1.42" y="998.32" x="1431.42" class="cls-7"></rect><rect height="12.67" width="1.42" y="998.32" x="1425.67" class="cls-7"></rect><rect height="12.67" width="1.42" y="998.32" x="1416.86" class="cls-7"></rect><rect height="12.67" width="1.42" y="998.32" x="1407.54" class="cls-7"></rect><rect height="12.67" width="1.42" y="998.32" x="1393.26" class="cls-7"></rect><rect height="12.67" width="1.42" y="998.32" x="1379.89" class="cls-7"></rect><rect height="12.67" width="1.42" y="998.32" x="1367.94" class="cls-7"></rect><rect height="12.67" width="1.42" y="998.32" x="1440.78" class="cls-7"></rect><rect height="12.67" width="1.42" y="998.32" x="1443.79" class="cls-7"></rect><rect height="12.67" width="1.42" y="998.32" x="1446.7" class="cls-7"></rect><path d="M1450.31,998.37V1011a3.08,3.08,0,0,1-.53,0h-.89V998.32h.89A3.07,3.07,0,0,1,1450.31,998.37Z" class="cls-7"></path><path d="M1452.28,999.54v10.24a3.1,3.1,0,0,1-1.42,1v-12.3A3,3,0,0,1,1452.28,999.54Z" class="cls-7"></path><path d="M1459.23,988.72v7.16a2.55,2.55,0,0,1-.52,1.54,3,3,0,0,1-1.41,1,3.41,3.41,0,0,1-.55.14,3.17,3.17,0,0,1-.53,0h-124.6a3.19,3.19,0,0,1-1.39-.32,2.77,2.77,0,0,1-1.61-2.18.49.49,0,0,1,0-.12.66.66,0,0,1,0-.14v-7.16a.66.66,0,0,1,0-.14,2.92,2.92,0,0,1,3-2.62h124.6a3.17,3.17,0,0,1,.53,0,3.41,3.41,0,0,1,.55.14,3,3,0,0,1,1.41,1A2.55,2.55,0,0,1,1459.23,988.72Z" class="cls-6"></path><path d="M1398.05,998.64h-66.76a2.66,2.66,0,0,1-1.24-.32,2.75,2.75,0,0,1-1.43-2.18.49.49,0,0,1,0-.12.66.66,0,0,1,0-.14v-7.16a.66.66,0,0,1,0-.14,2.73,2.73,0,0,1,2.68-2.62h58.56a22.45,22.45,0,0,0,7.79,12.36Z" class="cls-7"></path><rect height="12.67" width="1.42" y="985.96" x="1442.65" class="cls-7"></rect><rect height="12.67" width="1.42" y="985.96" x="1437.86" class="cls-7"></rect><rect height="12.67" width="1.42" y="985.96" x="1432.11" class="cls-7"></rect><rect height="12.67" width="1.42" y="985.96" x="1423.3" class="cls-7"></rect><rect height="12.67" width="1.42" y="985.96" x="1413.98" class="cls-7"></rect><rect height="12.67" width="1.42" y="985.96" x="1399.7" class="cls-7"></rect><rect height="12.67" width="1.42" y="985.96" x="1386.32" class="cls-7"></rect><rect height="12.67" width="1.42" y="985.96" x="1374.38" class="cls-7"></rect><rect height="12.67" width="1.42" y="985.96" x="1447.22" class="cls-7"></rect><rect height="12.67" width="1.42" y="985.96" x="1450.23" class="cls-7"></rect><rect height="12.67" width="1.42" y="985.96" x="1453.14" class="cls-7"></rect><path d="M1456.75,986v12.58a3.17,3.17,0,0,1-.53,0h-.89V986h.89A3.17,3.17,0,0,1,1456.75,986Z" class="cls-7"></path><path d="M1458.71,987.18v10.24a3,3,0,0,1-1.41,1v-12.3A3,3,0,0,1,1458.71,987.18Z" class="cls-7"></path><path d="M1462.22,976.05v7.16a2.55,2.55,0,0,1-.52,1.54,3.05,3.05,0,0,1-1.42,1,3.16,3.16,0,0,1-.55.14,3.08,3.08,0,0,1-.53,0H1334.6a2.92,2.92,0,0,1-3-2.61v-7.44a2.9,2.9,0,0,1,2.66-2.6l.35,0h124.6a3.07,3.07,0,0,1,.53.05,2.46,2.46,0,0,1,.55.14,3,3,0,0,1,1.42,1A2.55,2.55,0,0,1,1462.22,976.05Z" class="cls-6"></path><path d="M1401,986h-66.75a2.73,2.73,0,0,1-2.69-2.61v-7.44a2.75,2.75,0,0,1,2.37-2.6l.32,0h58.55v0A22.35,22.35,0,0,0,1401,986Z" class="cls-7"></path><rect height="12.67" width="1.42" y="973.29" x="1445.64" class="cls-7"></rect><rect height="12.67" width="1.42" y="973.29" x="1440.84" class="cls-7"></rect><rect height="12.67" width="1.42" y="973.29" x="1435.1" class="cls-7"></rect><rect height="12.67" width="1.42" y="973.29" x="1426.28" class="cls-7"></rect><rect height="12.67" width="1.42" y="973.29" x="1416.97" class="cls-7"></rect><rect height="12.67" width="1.42" y="973.29" x="1402.68" class="cls-7"></rect><rect height="12.67" width="1.42" y="973.29" x="1389.31" class="cls-7"></rect><rect height="12.67" width="1.42" y="973.29" x="1377.37" class="cls-7"></rect><rect height="12.67" width="1.42" y="973.29" x="1450.2" class="cls-7"></rect><rect height="12.67" width="1.42" y="973.29" x="1453.22" class="cls-7"></rect><rect height="12.67" width="1.42" y="973.29" x="1456.13" class="cls-7"></rect><path d="M1459.73,973.34v12.58a3.08,3.08,0,0,1-.53,0h-.88V973.29h.88A3.07,3.07,0,0,1,1459.73,973.34Z" class="cls-7"></path><path d="M1461.7,974.51v10.24a3.05,3.05,0,0,1-1.42,1v-12.3A3,3,0,0,1,1461.7,974.51Z" class="cls-7"></path><path d="M1453.05,963.4v7.15a2.52,2.52,0,0,1-.51,1.54,3.05,3.05,0,0,1-1.42,1,3.16,3.16,0,0,1-.55.14l-.17,0h-125a2.91,2.91,0,0,1-3-2.61v-7.44s0-.08,0-.12a2.84,2.84,0,0,1,2.26-2.41l.09,0a2.81,2.81,0,0,1,.65-.07h125l.14,0a2.46,2.46,0,0,1,.55.14,3,3,0,0,1,1.42,1A2.54,2.54,0,0,1,1453.05,963.4Z" class="cls-6"></path><path d="M1391.87,973.31h-66.75a2.72,2.72,0,0,1-2.69-2.61v-7.44s0-.08,0-.12a2.75,2.75,0,0,1,2.09-2.43l.11,0a2.52,2.52,0,0,1,.48-.05h58.55l0,.09a22.29,22.29,0,0,0,8.14,12.56Z" class="cls-7"></path><rect height="12.67" width="1.42" y="960.64" x="1436.48" class="cls-7"></rect><rect height="12.67" width="1.42" y="960.64" x="1431.68" class="cls-7"></rect><rect height="12.67" width="1.42" y="960.64" x="1425.94" class="cls-7"></rect><rect height="12.67" width="1.42" y="960.64" x="1417.12" class="cls-7"></rect><rect height="12.67" width="1.42" y="960.64" x="1407.81" class="cls-7"></rect><rect height="12.67" width="1.42" y="960.64" x="1393.52" class="cls-7"></rect><rect height="12.67" width="1.42" y="960.64" x="1380.15" class="cls-7"></rect><rect height="12.67" width="1.42" y="960.64" x="1368.21" class="cls-7"></rect><rect height="12.67" width="1.42" y="960.64" x="1441.04" class="cls-7"></rect><rect height="12.67" width="1.42" y="960.64" x="1444.05" class="cls-7"></rect><rect height="12.67" width="1.42" y="960.64" x="1446.97" class="cls-7"></rect><path d="M1450.57,960.69v12.58a3.08,3.08,0,0,1-.53,0h-.88V960.64h.88A3.07,3.07,0,0,1,1450.57,960.69Z" class="cls-7"></path><path d="M1452.54,961.86v10.23a3.05,3.05,0,0,1-1.42,1v-12.3A3,3,0,0,1,1452.54,961.86Z" class="cls-7"></path><path d="M1452.79,950.82V958a2.61,2.61,0,0,1-.51,1.54,3.05,3.05,0,0,1-1.42,1,2.09,2.09,0,0,1-.43.11h0l-.12,0a3.08,3.08,0,0,1-.53,0h-124.6l-.39,0-.15,0a2.87,2.87,0,0,1-2.47-2.57s0-.1,0-.15v-7.15c0-.05,0-.1,0-.14a2.91,2.91,0,0,1,3-2.62h125.13a2.64,2.64,0,0,1,.55.15l.08,0,.08,0,.15.06.16.09.14.08a.91.91,0,0,1,.16.11l.11.08h0l.08.06.22.21.06.06.05.07.12.14A2.61,2.61,0,0,1,1452.79,950.82Z" class="cls-6"></path><path d="M1391.61,960.73H1324.7l-.17,0a2.73,2.73,0,0,1-2.36-2.59s0-.1,0-.15v-7.15c0-.05,0-.1,0-.14a2.72,2.72,0,0,1,2.69-2.62h58.55c0,.1,0,.21.08.31a22.31,22.31,0,0,0,8,12.27Z" class="cls-7"></path><rect height="12.67" width="1.42" y="948.06" x="1436.22" class="cls-7"></rect><rect height="12.67" width="1.42" y="948.06" x="1431.42" class="cls-7"></rect><rect height="12.67" width="1.42" y="948.06" x="1425.67" class="cls-7"></rect><rect height="12.67" width="1.42" y="948.06" x="1416.86" class="cls-7"></rect><rect height="12.67" width="1.42" y="948.06" x="1407.54" class="cls-7"></rect><rect height="12.67" width="1.42" y="948.06" x="1393.26" class="cls-7"></rect><rect height="12.67" width="1.42" y="948.06" x="1379.89" class="cls-7"></rect><rect height="12.67" width="1.42" y="948.06" x="1367.94" class="cls-7"></rect><rect height="12.67" width="1.42" y="948.06" x="1440.78" class="cls-7"></rect><rect height="12.67" width="1.42" y="948.06" x="1443.79" class="cls-7"></rect><rect height="12.67" width="1.42" y="948.06" x="1446.7" class="cls-7"></rect><path d="M1450.31,948.1v12.59a3.08,3.08,0,0,1-.53,0h-.89V948.06h.89A4.55,4.55,0,0,1,1450.31,948.1Z" class="cls-7"></path><path d="M1452.28,949.28v10.23a3.05,3.05,0,0,1-1.42,1v-12.3A3,3,0,0,1,1452.28,949.28Z" class="cls-7"></path><path d="M1459.23,938.46v7.15a2.55,2.55,0,0,1-.52,1.54,3,3,0,0,1-1.41,1,3.41,3.41,0,0,1-.55.14,3.15,3.15,0,0,1-.53,0h-124.6a3.19,3.19,0,0,1-1.39-.31,2.77,2.77,0,0,1-1.61-2.18.49.49,0,0,1,0-.12.76.76,0,0,1,0-.15v-7.15a.61.61,0,0,1,0-.14,2.92,2.92,0,0,1,3-2.62h124.6a3.17,3.17,0,0,1,.53,0,2.61,2.61,0,0,1,.55.14,3,3,0,0,1,1.41,1A2.55,2.55,0,0,1,1459.23,938.46Z" class="cls-6"></path><path d="M1398.05,948.37h-66.76a2.65,2.65,0,0,1-1.24-.31,2.75,2.75,0,0,1-1.43-2.18.49.49,0,0,1,0-.12.76.76,0,0,1,0-.15v-7.15a.61.61,0,0,1,0-.14,2.73,2.73,0,0,1,2.68-2.62h58.56a22.45,22.45,0,0,0,7.79,12.36C1397.77,948.17,1397.91,948.27,1398.05,948.37Z" class="cls-7"></path><rect height="12.67" width="1.42" y="935.7" x="1442.65" class="cls-7"></rect><rect height="12.67" width="1.42" y="935.7" x="1437.86" class="cls-7"></rect><rect height="12.67" width="1.42" y="935.7" x="1432.11" class="cls-7"></rect><rect height="12.67" width="1.42" y="935.7" x="1423.3" class="cls-7"></rect><rect height="12.67" width="1.42" y="935.7" x="1413.98" class="cls-7"></rect><rect height="12.67" width="1.42" y="935.7" x="1399.7" class="cls-7"></rect><rect height="12.67" width="1.42" y="935.7" x="1386.32" class="cls-7"></rect><rect height="12.67" width="1.42" y="935.7" x="1374.38" class="cls-7"></rect><rect height="12.67" width="1.42" y="935.7" x="1447.22" class="cls-7"></rect><rect height="12.67" width="1.42" y="935.7" x="1450.23" class="cls-7"></rect><rect height="12.67" width="1.42" y="935.7" x="1453.14" class="cls-7"></rect><path d="M1456.75,935.75v12.58a3.15,3.15,0,0,1-.53,0h-.89V935.7h.89A3.17,3.17,0,0,1,1456.75,935.75Z" class="cls-7"></path><path d="M1458.71,936.92v10.23a3,3,0,0,1-1.41,1v-12.3A3,3,0,0,1,1458.71,936.92Z" class="cls-7"></path><path d="M1469.41,925.79v7.15a2.61,2.61,0,0,1-.51,1.54,3.05,3.05,0,0,1-1.42,1,3.41,3.41,0,0,1-.55.14,3.08,3.08,0,0,1-.53,0H1341.8a2.91,2.91,0,0,1-3-2.62s0-.09,0-.14v-7.15s0-.1,0-.14a2.88,2.88,0,0,1,2.65-2.6l.36,0h124.6a3.08,3.08,0,0,1,.53,0,2.64,2.64,0,0,1,.55.15,3,3,0,0,1,1.42,1A2.61,2.61,0,0,1,1469.41,925.79Z" class="cls-6"></path><path d="M1408.23,935.7h-66.75a2.72,2.72,0,0,1-2.69-2.62s0-.09,0-.14v-7.15s0-.1,0-.14a2.73,2.73,0,0,1,2.37-2.6l.32,0H1400v0A22.28,22.28,0,0,0,1408.23,935.7Z" class="cls-7"></path><rect height="12.67" width="1.42" y="923.03" x="1452.84" class="cls-7"></rect><rect height="12.67" width="1.42" y="923.03" x="1448.04" class="cls-7"></rect><rect height="12.67" width="1.42" y="923.03" x="1442.29" class="cls-7"></rect><rect height="12.67" width="1.42" y="923.03" x="1433.48" class="cls-7"></rect><rect height="12.67" width="1.42" y="923.03" x="1424.17" class="cls-7"></rect><rect height="12.67" width="1.42" y="923.03" x="1409.88" class="cls-7"></rect><rect height="12.67" width="1.42" y="923.03" x="1396.51" class="cls-7"></rect><rect height="12.67" width="1.42" y="923.03" x="1384.57" class="cls-7"></rect><rect height="12.67" width="1.42" y="923.03" x="1457.4" class="cls-7"></rect><rect height="12.67" width="1.42" y="923.03" x="1460.41" class="cls-7"></rect><rect height="12.67" width="1.42" y="923.03" x="1463.32" class="cls-7"></rect><path d="M1466.93,923.07v12.59a3.08,3.08,0,0,1-.53,0h-.89V923h.89A3.08,3.08,0,0,1,1466.93,923.07Z" class="cls-7"></path><path d="M1468.9,924.25v10.23a3,3,0,0,1-1.42,1V923.22A3,3,0,0,1,1468.9,924.25Z" class="cls-7"></path><path d="M1453.05,913.14v7.15a2.54,2.54,0,0,1-.51,1.54,3,3,0,0,1-1.42,1,2.46,2.46,0,0,1-.55.14l-.17,0h-125a2.92,2.92,0,0,1-3-2.62V913a2.91,2.91,0,0,1,3-2.61H1450.2l.37,0a3.16,3.16,0,0,1,.55.14l.26.11.16.08h0l.15.08,0,0,.14.09a3.15,3.15,0,0,1,.3.24l.08.08h0l0,.06h0l.09.1s.08.09.12.15A2.54,2.54,0,0,1,1453.05,913.14Z" class="cls-6"></path><path d="M1391.87,923.05h-66.75a2.73,2.73,0,0,1-2.69-2.62V913a2.72,2.72,0,0,1,2.69-2.61h58.55c0,.09,0,.19.08.29a22.26,22.26,0,0,0,8.09,12.36Z" class="cls-7"></path><rect height="12.67" width="1.42" y="910.38" x="1436.48" class="cls-7"></rect><rect height="12.67" width="1.42" y="910.38" x="1431.68" class="cls-7"></rect><rect height="12.67" width="1.42" y="910.38" x="1425.94" class="cls-7"></rect><rect height="12.67" width="1.42" y="910.38" x="1417.12" class="cls-7"></rect><rect height="12.67" width="1.42" y="910.38" x="1407.81" class="cls-7"></rect><rect height="12.67" width="1.42" y="910.38" x="1393.52" class="cls-7"></rect><rect height="12.67" width="1.42" y="910.38" x="1380.15" class="cls-7"></rect><rect height="12.67" width="1.42" y="910.38" x="1368.21" class="cls-7"></rect><rect height="12.67" width="1.42" y="910.38" x="1441.04" class="cls-7"></rect><rect height="12.67" width="1.42" y="910.38" x="1444.05" class="cls-7"></rect><rect height="12.67" width="1.42" y="910.38" x="1446.97" class="cls-7"></rect><path d="M1450.57,910.42V923a3.07,3.07,0,0,1-.53,0h-.88V910.38h.88A3.08,3.08,0,0,1,1450.57,910.42Z" class="cls-7"></path><path d="M1452.54,911.6v10.23a3,3,0,0,1-1.42,1v-12.3A3.05,3.05,0,0,1,1452.54,911.6Z" class="cls-7"></path><path d="M1462.22,900.76v7.15a2.55,2.55,0,0,1-.52,1.54,2.92,2.92,0,0,1-1.42,1,2.48,2.48,0,0,1-.55.15,3.08,3.08,0,0,1-.53,0H1334.6a3.13,3.13,0,0,1-1.34-.29,2.8,2.8,0,0,1-1.66-2.21s0-.08,0-.12v-7.43a2.89,2.89,0,0,1,2.66-2.6l.35,0h124.6a3.08,3.08,0,0,1,.53,0,2.48,2.48,0,0,1,.55.15,2.92,2.92,0,0,1,1.42,1A2.55,2.55,0,0,1,1462.22,900.76Z" class="cls-6"></path><path d="M1401,910.67h-66.75a2.56,2.56,0,0,1-1.2-.29,2.79,2.79,0,0,1-1.48-2.21s0-.08,0-.12v-7.43A2.74,2.74,0,0,1,1334,898l.32,0h58.55v0a22.44,22.44,0,0,0,7.81,12.36Z" class="cls-7"></path><rect height="12.67" width="1.42" y="898" x="1445.64" class="cls-7"></rect><rect height="12.67" width="1.42" y="898" x="1440.84" class="cls-7"></rect><rect height="12.67" width="1.42" y="898" x="1435.1" class="cls-7"></rect><rect height="12.67" width="1.42" y="898" x="1426.28" class="cls-7"></rect><rect height="12.67" width="1.42" y="898" x="1416.97" class="cls-7"></rect><rect height="12.67" width="1.42" y="898" x="1402.68" class="cls-7"></rect><rect height="12.67" width="1.42" y="898" x="1389.31" class="cls-7"></rect><rect height="12.67" width="1.42" y="898" x="1377.37" class="cls-7"></rect><rect height="12.67" width="1.42" y="898" x="1450.2" class="cls-7"></rect><rect height="12.67" width="1.42" y="898" x="1453.22" class="cls-7"></rect><rect height="12.67" width="1.42" y="898" x="1456.13" class="cls-7"></rect><path d="M1459.73,898v12.59a3.08,3.08,0,0,1-.53,0h-.88V898h.88A3.08,3.08,0,0,1,1459.73,898Z" class="cls-7"></path><path d="M1461.7,899.22v10.23a2.92,2.92,0,0,1-1.42,1v-12.3A3,3,0,0,1,1461.7,899.22Z" class="cls-7"></path><path d="M1466.11,888.11v7.15a2.61,2.61,0,0,1-.51,1.54,3,3,0,0,1-1.42,1,2.46,2.46,0,0,1-.55.14l-.17,0h-125a2.92,2.92,0,0,1-3-2.62V888a2.91,2.91,0,0,1,3-2.61h124.6a3.08,3.08,0,0,1,.53,0,3.16,3.16,0,0,1,.55.14,3.05,3.05,0,0,1,1.42,1A2.61,2.61,0,0,1,1466.11,888.11Z" class="cls-6"></path><path d="M1404.93,898h-66.75a2.73,2.73,0,0,1-2.69-2.62V888a2.72,2.72,0,0,1,2.69-2.61h58.55A22.42,22.42,0,0,0,1404.9,898Z" class="cls-7"></path><rect height="12.67" width="1.42" y="885.35" x="1449.54" class="cls-7"></rect><rect height="12.67" width="1.42" y="885.35" x="1444.74" class="cls-7"></rect><rect height="12.67" width="1.42" y="885.35" x="1439" class="cls-7"></rect><rect height="12.67" width="1.42" y="885.35" x="1430.18" class="cls-7"></rect><rect height="12.67" width="1.42" y="885.35" x="1420.87" class="cls-7"></rect><rect height="12.67" width="1.42" y="885.35" x="1406.58" class="cls-7"></rect><rect height="12.67" width="1.42" y="885.35" x="1393.21" class="cls-7"></rect><rect height="12.67" width="1.42" y="885.35" x="1381.27" class="cls-7"></rect><rect height="12.67" width="1.42" y="885.35" x="1454.1" class="cls-7"></rect><rect height="12.67" width="1.42" y="885.35" x="1457.11" class="cls-7"></rect><rect height="12.67" width="1.42" y="885.35" x="1460.03" class="cls-7"></rect><path d="M1463.63,885.39V898a3.07,3.07,0,0,1-.53,0h-.88V885.35h.88A3.08,3.08,0,0,1,1463.63,885.39Z" class="cls-7"></path><path d="M1465.6,886.57V896.8a3,3,0,0,1-1.42,1v-12.3A3.05,3.05,0,0,1,1465.6,886.57Z" class="cls-7"></path><path d="M1306.74,1012.85v7.89a2.8,2.8,0,0,1-.57,1.69,3.22,3.22,0,0,1-1.56,1.14,3,3,0,0,1-.61.16,3.68,3.68,0,0,1-.58,0H1166.08a3.23,3.23,0,0,1-3.32-2.89s0-.1,0-.15v-7.89c0-.05,0-.1,0-.16a3.22,3.22,0,0,1,3.32-2.88h137.34a3.68,3.68,0,0,1,.58.05,2.49,2.49,0,0,1,.61.16,3.26,3.26,0,0,1,1.56,1.13A2.85,2.85,0,0,1,1306.74,1012.85Z" class="cls-6"></path><path d="M1239.3,1023.78h-73.58a3,3,0,0,1-3-2.89s0-.1,0-.15v-7.89c0-.05,0-.1,0-.16a3,3,0,0,1,3-2.88h64.54A24.68,24.68,0,0,0,1239.3,1023.78Z" class="cls-7"></path><rect height="13.97" width="1.56" y="1009.81" x="1288.47" class="cls-7"></rect><rect height="13.97" width="1.56" y="1009.81" x="1283.18" class="cls-7"></rect><rect height="13.97" width="1.56" y="1009.81" x="1276.85" class="cls-7"></rect><rect height="13.97" width="1.56" y="1009.81" x="1267.14" class="cls-7"></rect><rect height="13.97" width="1.56" y="1009.81" x="1256.87" class="cls-7"></rect><rect height="13.97" width="1.56" y="1009.81" x="1241.12" class="cls-7"></rect><rect height="13.97" width="1.56" y="1009.81" x="1226.38" class="cls-7"></rect><rect height="13.97" width="1.56" y="1009.81" x="1213.22" class="cls-7"></rect><rect height="13.97" width="1.56" y="1009.81" x="1293.5" class="cls-7"></rect><rect height="13.97" width="1.56" y="1009.81" x="1296.82" class="cls-7"></rect><rect height="13.97" width="1.56" y="1009.81" x="1300.03" class="cls-7"></rect><path d="M1304,1009.86v13.87a3.68,3.68,0,0,1-.58,0h-1v-14h1A3.68,3.68,0,0,1,1304,1009.86Z" class="cls-7"></path><path d="M1306.17,1011.15v11.28a3.22,3.22,0,0,1-1.56,1.14V1010A3.26,3.26,0,0,1,1306.17,1011.15Z" class="cls-7"></path><path d="M1292.06,998.88v7.89a2.85,2.85,0,0,1-.57,1.7,3.4,3.4,0,0,1-1.56,1.14,3.2,3.2,0,0,1-.61.15,3.81,3.81,0,0,1-.59,0H1151.39a3.22,3.22,0,0,1-3.32-2.88v-8.2a3.23,3.23,0,0,1,3.32-2.89h137.72l.12,0h.09a4.21,4.21,0,0,1,.61.16l.08,0,.09,0,.17.08.09,0,.09,0,.15.09.17.12.13.09h0l.08.07a1.75,1.75,0,0,1,.24.23.23.23,0,0,1,.07.07l.06.07a1,1,0,0,1,.13.16A2.8,2.8,0,0,1,1292.06,998.88Z" class="cls-6"></path><path d="M1224.61,1009.81H1151a3,3,0,0,1-3-2.88v-8.2a3,3,0,0,1,3-2.89h64.54l.09.35A24.58,24.58,0,0,0,1224.61,1009.81Z" class="cls-7"></path><rect height="13.97" width="1.56" y="995.84" x="1273.78" class="cls-7"></rect><rect height="13.97" width="1.56" y="995.84" x="1268.5" class="cls-7"></rect><rect height="13.97" width="1.56" y="995.84" x="1262.16" class="cls-7"></rect><rect height="13.97" width="1.56" y="995.84" x="1252.45" class="cls-7"></rect><rect height="13.97" width="1.56" y="995.84" x="1242.18" class="cls-7"></rect><rect height="13.97" width="1.56" y="995.84" x="1226.44" class="cls-7"></rect><rect height="13.97" width="1.56" y="995.84" x="1211.69" class="cls-7"></rect><rect height="13.97" width="1.56" y="995.84" x="1198.53" class="cls-7"></rect><rect height="13.97" width="1.56" y="995.84" x="1278.81" class="cls-7"></rect><rect height="13.97" width="1.56" y="995.84" x="1282.14" class="cls-7"></rect><rect height="13.97" width="1.56" y="995.84" x="1285.34" class="cls-7"></rect><path d="M1289.32,995.89v13.87a3.81,3.81,0,0,1-.59,0h-1v-14h1A3.81,3.81,0,0,1,1289.32,995.89Z" class="cls-7"></path><path d="M1291.49,997.19v11.28a3.31,3.31,0,0,1-1.56,1.13V996.05A3.27,3.27,0,0,1,1291.49,997.19Z" class="cls-7"></path><path d="M1299.15,985.26v7.89a2.8,2.8,0,0,1-.57,1.69A3.22,3.22,0,0,1,1297,996a3.13,3.13,0,0,1-.6.16,3.92,3.92,0,0,1-.59.05H1158.49a3.54,3.54,0,0,1-1.53-.35,3.07,3.07,0,0,1-1.78-2.4.66.66,0,0,1,0-.14v-8.2a3.22,3.22,0,0,1,3.32-2.88h137.34a3.92,3.92,0,0,1,.59,0,2.54,2.54,0,0,1,.6.16,3.26,3.26,0,0,1,1.56,1.13A2.85,2.85,0,0,1,1299.15,985.26Z" class="cls-6"></path><path d="M1231.71,996.19h-73.58a2.86,2.86,0,0,1-1.36-.35,3.05,3.05,0,0,1-1.59-2.4.66.66,0,0,1,0-.14v-8.2a3,3,0,0,1,3-2.88h64.54a24.78,24.78,0,0,0,8.59,13.62Z" class="cls-7"></path><rect height="13.97" width="1.56" y="982.22" x="1280.88" class="cls-7"></rect><rect height="13.97" width="1.56" y="982.22" x="1275.6" class="cls-7"></rect><rect height="13.97" width="1.56" y="982.22" x="1269.26" class="cls-7"></rect><rect height="13.97" width="1.56" y="982.22" x="1259.55" class="cls-7"></rect><rect height="13.97" width="1.56" y="982.22" x="1249.28" class="cls-7"></rect><rect height="13.97" width="1.56" y="982.22" x="1233.53" class="cls-7"></rect><rect height="13.97" width="1.56" y="982.22" x="1218.79" class="cls-7"></rect><rect height="13.97" width="1.56" y="982.22" x="1205.63" class="cls-7"></rect><rect height="13.97" width="1.56" y="982.22" x="1285.91" class="cls-7"></rect><rect height="13.97" width="1.56" y="982.22" x="1289.23" class="cls-7"></rect><rect height="13.97" width="1.56" y="982.22" x="1292.44" class="cls-7"></rect><path d="M1296.42,982.27v13.87a3.92,3.92,0,0,1-.59.05h-1v-14h1A3.92,3.92,0,0,1,1296.42,982.27Z" class="cls-7"></path><path d="M1298.58,983.56v11.28A3.22,3.22,0,0,1,1297,996V982.43A3.26,3.26,0,0,1,1298.58,983.56Z" class="cls-7"></path><path d="M1302.44,971.29v7.89a2.85,2.85,0,0,1-.57,1.7,3.35,3.35,0,0,1-1.56,1.14,3.1,3.1,0,0,1-.6.15,3.92,3.92,0,0,1-.59.05H1161.78a3.22,3.22,0,0,1-3.32-2.88v-8.2a3.19,3.19,0,0,1,2.93-2.87l.39,0h137.34a3.92,3.92,0,0,1,.59,0,4.08,4.08,0,0,1,.6.16,3.22,3.22,0,0,1,1.56,1.14A2.8,2.8,0,0,1,1302.44,971.29Z" class="cls-6"></path><path d="M1235,982.22h-73.58a3,3,0,0,1-3-2.88v-8.2a3,3,0,0,1,2.61-2.87l.35,0H1226v0A24.64,24.64,0,0,0,1235,982.22Z" class="cls-7"></path><rect height="13.97" width="1.56" y="968.25" x="1284.17" class="cls-7"></rect><rect height="13.97" width="1.56" y="968.25" x="1278.89" class="cls-7"></rect><rect height="13.97" width="1.56" y="968.25" x="1272.55" class="cls-7"></rect><rect height="13.97" width="1.56" y="968.25" x="1262.84" class="cls-7"></rect><rect height="13.97" width="1.56" y="968.25" x="1252.57" class="cls-7"></rect><rect height="13.97" width="1.56" y="968.25" x="1236.82" class="cls-7"></rect><rect height="13.97" width="1.56" y="968.25" x="1222.08" class="cls-7"></rect><rect height="13.97" width="1.56" y="968.25" x="1208.92" class="cls-7"></rect><rect height="13.97" width="1.56" y="968.25" x="1289.2" class="cls-7"></rect><rect height="13.97" width="1.56" y="968.25" x="1292.52" class="cls-7"></rect><rect height="13.97" width="1.56" y="968.25" x="1295.73" class="cls-7"></rect><path d="M1299.71,968.3v13.87a3.92,3.92,0,0,1-.59.05h-1v-14h1A3.92,3.92,0,0,1,1299.71,968.3Z" class="cls-7"></path><path d="M1301.87,969.6v11.28a3.26,3.26,0,0,1-1.56,1.13V968.46A3.22,3.22,0,0,1,1301.87,969.6Z" class="cls-7"></path><path d="M1292.34,957.35v7.89a2.81,2.81,0,0,1-.56,1.69,3.4,3.4,0,0,1-1.56,1.14,4.21,4.21,0,0,1-.61.16l-.2,0H1151.68a3.22,3.22,0,0,1-3.32-2.88v-8.2s0-.08,0-.13a3.15,3.15,0,0,1,2.49-2.66l.1,0a3.45,3.45,0,0,1,.72-.07h137.77l.16,0a3.2,3.2,0,0,1,.61.15,3.4,3.4,0,0,1,1.56,1.14A2.84,2.84,0,0,1,1292.34,957.35Z" class="cls-6"></path><path d="M1224.9,968.27h-73.58a3,3,0,0,1-3-2.88v-8.2s0-.08,0-.13a3,3,0,0,1,2.3-2.68l.13,0a2.24,2.24,0,0,1,.52-.05h64.55s0,.06,0,.1a24.69,24.69,0,0,0,9,13.84Z" class="cls-7"></path><rect height="13.97" width="1.56" y="954.31" x="1274.07" class="cls-7"></rect><rect height="13.97" width="1.56" y="954.31" x="1268.79" class="cls-7"></rect><rect height="13.97" width="1.56" y="954.31" x="1262.45" class="cls-7"></rect><rect height="13.97" width="1.56" y="954.31" x="1252.74" class="cls-7"></rect><rect height="13.97" width="1.56" y="954.31" x="1242.47" class="cls-7"></rect><rect height="13.97" width="1.56" y="954.31" x="1226.72" class="cls-7"></rect><rect height="13.97" width="1.56" y="954.31" x="1211.98" class="cls-7"></rect><rect height="13.97" width="1.56" y="954.31" x="1198.82" class="cls-7"></rect><rect height="13.97" width="1.56" y="954.31" x="1279.1" class="cls-7"></rect><rect height="13.97" width="1.56" y="954.31" x="1282.42" class="cls-7"></rect><rect height="13.97" width="1.56" y="954.31" x="1285.63" class="cls-7"></rect><path d="M1289.61,954.36v13.87a3.81,3.81,0,0,1-.59,0h-1v-14h1A2.88,2.88,0,0,1,1289.61,954.36Z" class="cls-7"></path><path d="M1291.78,955.65v11.28a3.4,3.4,0,0,1-1.56,1.14V954.51A3.4,3.4,0,0,1,1291.78,955.65Z" class="cls-7"></path><path d="M1292.06,943.48v7.89a2.8,2.8,0,0,1-.57,1.69,3.33,3.33,0,0,1-1.56,1.14,2.62,2.62,0,0,1-.48.13h0l-.13,0a3.81,3.81,0,0,1-.59,0H1151.39a3.11,3.11,0,0,1-.43,0l-.16,0a3.17,3.17,0,0,1-2.73-2.84v-8.2a3.22,3.22,0,0,1,3.32-2.88h137.84l.09,0a3.2,3.2,0,0,1,.61.15l.08,0,.09,0,.17.07.18.1.15.09a1,1,0,0,1,.17.12.6.6,0,0,1,.13.09h0a.27.27,0,0,1,.08.07,1.7,1.7,0,0,1,.24.22l.07.07.06.08.13.15A2.85,2.85,0,0,1,1292.06,943.48Z" class="cls-6"></path><path d="M1224.61,954.41h-73.75l-.19,0a3,3,0,0,1-2.6-2.86v-8.2a3,3,0,0,1,3-2.88h64.54l.09.34a24.63,24.63,0,0,0,8.81,13.53Z" class="cls-7"></path><rect height="13.97" width="1.56" y="940.44" x="1273.78" class="cls-7"></rect><rect height="13.97" width="1.56" y="940.44" x="1268.5" class="cls-7"></rect><rect height="13.97" width="1.56" y="940.44" x="1262.16" class="cls-7"></rect><rect height="13.97" width="1.56" y="940.44" x="1252.45" class="cls-7"></rect><rect height="13.97" width="1.56" y="940.44" x="1242.18" class="cls-7"></rect><rect height="13.97" width="1.56" y="940.44" x="1226.44" class="cls-7"></rect><rect height="13.97" width="1.56" y="940.44" x="1211.69" class="cls-7"></rect><rect height="13.97" width="1.56" y="940.44" x="1198.53" class="cls-7"></rect><rect height="13.97" width="1.56" y="940.44" x="1278.81" class="cls-7"></rect><rect height="13.97" width="1.56" y="940.44" x="1282.14" class="cls-7"></rect><rect height="13.97" width="1.56" y="940.44" x="1285.34" class="cls-7"></rect><path d="M1289.32,940.49v13.87a3.81,3.81,0,0,1-.59,0h-1v-14h1A3.81,3.81,0,0,1,1289.32,940.49Z" class="cls-7"></path><path d="M1291.49,941.78v11.28a3.27,3.27,0,0,1-1.56,1.14V940.64A3.4,3.4,0,0,1,1291.49,941.78Z" class="cls-7"></path><path d="M1299.15,929.86v7.88a2.83,2.83,0,0,1-.57,1.7,3.35,3.35,0,0,1-1.56,1.14,4.08,4.08,0,0,1-.6.16,3.9,3.9,0,0,1-.59,0H1158.49a3.54,3.54,0,0,1-1.53-.34,3.08,3.08,0,0,1-1.78-2.4.66.66,0,0,1,0-.14v-8.2a3.22,3.22,0,0,1,3.32-2.88h137.34a2.94,2.94,0,0,1,.59,0,3.1,3.1,0,0,1,.6.15,3.35,3.35,0,0,1,1.56,1.14A2.83,2.83,0,0,1,1299.15,929.86Z" class="cls-6"></path><path d="M1231.71,940.78h-73.58a2.86,2.86,0,0,1-1.36-.34,3.07,3.07,0,0,1-1.59-2.4.66.66,0,0,1,0-.14v-8.2a3,3,0,0,1,3-2.88h64.54a24.78,24.78,0,0,0,8.59,13.62Z" class="cls-7"></path><rect height="13.97" width="1.56" y="926.82" x="1280.88" class="cls-7"></rect><rect height="13.97" width="1.56" y="926.82" x="1275.6" class="cls-7"></rect><rect height="13.97" width="1.56" y="926.82" x="1269.26" class="cls-7"></rect><rect height="13.97" width="1.56" y="926.82" x="1259.55" class="cls-7"></rect><rect height="13.97" width="1.56" y="926.82" x="1249.28" class="cls-7"></rect><rect height="13.97" width="1.56" y="926.82" x="1233.53" class="cls-7"></rect><rect height="13.97" width="1.56" y="926.82" x="1218.79" class="cls-7"></rect><rect height="13.97" width="1.56" y="926.82" x="1205.63" class="cls-7"></rect><rect height="13.97" width="1.56" y="926.82" x="1285.91" class="cls-7"></rect><rect height="13.97" width="1.56" y="926.82" x="1289.23" class="cls-7"></rect><rect height="13.97" width="1.56" y="926.82" x="1292.44" class="cls-7"></rect><path d="M1296.42,926.87v13.87a3.9,3.9,0,0,1-.59,0h-1v-14h1A2.94,2.94,0,0,1,1296.42,926.87Z" class="cls-7"></path><path d="M1298.58,928.16v11.28a3.35,3.35,0,0,1-1.56,1.14V927A3.35,3.35,0,0,1,1298.58,928.16Z" class="cls-7"></path><path d="M1310.38,915.89v7.89a2.8,2.8,0,0,1-.57,1.69,3.33,3.33,0,0,1-1.56,1.14,4.21,4.21,0,0,1-.61.16,3.81,3.81,0,0,1-.59.05H1169.71a3.23,3.23,0,0,1-3.32-2.89v-8.2a3.19,3.19,0,0,1,2.93-2.86l.39,0h137.34a3.81,3.81,0,0,1,.59,0,3.2,3.2,0,0,1,.61.15,3.4,3.4,0,0,1,1.56,1.14A2.85,2.85,0,0,1,1310.38,915.89Z" class="cls-6"></path><path d="M1242.93,926.82h-73.57a3,3,0,0,1-3-2.89v-8.2a3,3,0,0,1,2.61-2.86l.36,0h64.54v0A24.72,24.72,0,0,0,1242.93,926.82Z" class="cls-7"></path><rect height="13.97" width="1.56" y="912.85" x="1292.1" class="cls-7"></rect><rect height="13.97" width="1.56" y="912.85" x="1286.82" class="cls-7"></rect><rect height="13.97" width="1.56" y="912.85" x="1280.48" class="cls-7"></rect><rect height="13.97" width="1.56" y="912.85" x="1270.77" class="cls-7"></rect><rect height="13.97" width="1.56" y="912.85" x="1260.5" class="cls-7"></rect><rect height="13.97" width="1.56" y="912.85" x="1244.76" class="cls-7"></rect><rect height="13.97" width="1.56" y="912.85" x="1230.01" class="cls-7"></rect><rect height="13.97" width="1.56" y="912.85" x="1216.85" class="cls-7"></rect><rect height="13.97" width="1.56" y="912.85" x="1297.13" class="cls-7"></rect><rect height="13.97" width="1.56" y="912.85" x="1300.46" class="cls-7"></rect><rect height="13.97" width="1.56" y="912.85" x="1303.66" class="cls-7"></rect><path d="M1307.64,912.9v13.87a3.81,3.81,0,0,1-.59.05h-1v-14h1A3.81,3.81,0,0,1,1307.64,912.9Z" class="cls-7"></path><path d="M1309.81,914.19v11.28a3.33,3.33,0,0,1-1.56,1.14V913.05A3.4,3.4,0,0,1,1309.81,914.19Z" class="cls-7"></path><path d="M1292.34,901.94v7.89a2.84,2.84,0,0,1-.56,1.7,3.4,3.4,0,0,1-1.56,1.14,3.2,3.2,0,0,1-.61.15l-.2,0H1151.68a3.22,3.22,0,0,1-3.32-2.88v-8.2a3.23,3.23,0,0,1,3.32-2.89H1289.2l.41,0a4.21,4.21,0,0,1,.61.16,1.69,1.69,0,0,1,.28.12l.17.08h0a1,1,0,0,1,.17.1h0l.15.1a3.92,3.92,0,0,1,.33.27l.09.09h0l0,.06h0l.09.11.14.17A2.81,2.81,0,0,1,1292.34,901.94Z" class="cls-6"></path><path d="M1224.9,912.87h-73.58a3,3,0,0,1-3-2.88v-8.2a3,3,0,0,1,3-2.89h64.55c0,.11.05.22.08.33a24.6,24.6,0,0,0,8.92,13.62Z" class="cls-7"></path><rect height="13.97" width="1.56" y="898.9" x="1274.07" class="cls-7"></rect><rect height="13.97" width="1.56" y="898.9" x="1268.79" class="cls-7"></rect><rect height="13.97" width="1.56" y="898.9" x="1262.45" class="cls-7"></rect><rect height="13.97" width="1.56" y="898.9" x="1252.74" class="cls-7"></rect><rect height="13.97" width="1.56" y="898.9" x="1242.47" class="cls-7"></rect><rect height="13.97" width="1.56" y="898.9" x="1226.72" class="cls-7"></rect><rect height="13.97" width="1.56" y="898.9" x="1211.98" class="cls-7"></rect><rect height="13.97" width="1.56" y="898.9" x="1198.82" class="cls-7"></rect><rect height="13.97" width="1.56" y="898.9" x="1279.1" class="cls-7"></rect><rect height="13.97" width="1.56" y="898.9" x="1282.42" class="cls-7"></rect><rect height="13.97" width="1.56" y="898.9" x="1285.63" class="cls-7"></rect><path d="M1289.61,899v13.87a3.81,3.81,0,0,1-.59,0h-1v-14h1A3.81,3.81,0,0,1,1289.61,899Z" class="cls-7"></path><path d="M1291.78,900.25v11.28a3.4,3.4,0,0,1-1.56,1.14V899.11A3.33,3.33,0,0,1,1291.78,900.25Z" class="cls-7"></path><path d="M1302.44,888.3v7.89a2.8,2.8,0,0,1-.57,1.69,3.28,3.28,0,0,1-1.56,1.14,4.08,4.08,0,0,1-.6.16,3.92,3.92,0,0,1-.59.05H1161.78a3.53,3.53,0,0,1-1.49-.33,3.05,3.05,0,0,1-1.82-2.43.53.53,0,0,1,0-.13v-8.2a3.18,3.18,0,0,1,2.93-2.86l.39,0h137.34a3.92,3.92,0,0,1,.59,0,3.1,3.1,0,0,1,.6.15,3.35,3.35,0,0,1,1.56,1.14A2.85,2.85,0,0,1,1302.44,888.3Z" class="cls-6"></path><path d="M1235,899.23h-73.58a2.84,2.84,0,0,1-1.32-.33,3,3,0,0,1-1.63-2.43.53.53,0,0,1,0-.13v-8.2a3,3,0,0,1,2.61-2.86l.35,0H1226v0a24.7,24.7,0,0,0,8.61,13.62Z" class="cls-7"></path><rect height="13.97" width="1.56" y="885.26" x="1284.17" class="cls-7"></rect><rect height="13.97" width="1.56" y="885.26" x="1278.89" class="cls-7"></rect><rect height="13.97" width="1.56" y="885.26" x="1272.55" class="cls-7"></rect><rect height="13.97" width="1.56" y="885.26" x="1262.84" class="cls-7"></rect><rect height="13.97" width="1.56" y="885.26" x="1252.57" class="cls-7"></rect><rect height="13.97" width="1.56" y="885.26" x="1236.82" class="cls-7"></rect><rect height="13.97" width="1.56" y="885.26" x="1222.08" class="cls-7"></rect><rect height="13.97" width="1.56" y="885.26" x="1208.92" class="cls-7"></rect><rect height="13.97" width="1.56" y="885.26" x="1289.2" class="cls-7"></rect><rect height="13.97" width="1.56" y="885.26" x="1292.52" class="cls-7"></rect><rect height="13.97" width="1.56" y="885.26" x="1295.73" class="cls-7"></rect><path d="M1299.71,885.31v13.87a3.92,3.92,0,0,1-.59.05h-1v-14h1A3.92,3.92,0,0,1,1299.71,885.31Z" class="cls-7"></path><path d="M1301.87,886.6v11.28a3.28,3.28,0,0,1-1.56,1.14V885.46A3.35,3.35,0,0,1,1301.87,886.6Z" class="cls-7"></path><path d="M1306.74,874.35v7.89a2.85,2.85,0,0,1-.57,1.7,3.35,3.35,0,0,1-1.56,1.14,3,3,0,0,1-.61.15l-.19,0H1166.08a3.22,3.22,0,0,1-3.32-2.88s0-.11,0-.16v-7.89c0-.05,0-.1,0-.15a3.23,3.23,0,0,1,3.32-2.89h137.34a3.68,3.68,0,0,1,.58.05,3.89,3.89,0,0,1,.61.16,3.28,3.28,0,0,1,1.56,1.14A2.82,2.82,0,0,1,1306.74,874.35Z" class="cls-6"></path><path d="M1239.3,885.28h-73.58a3,3,0,0,1-3-2.88s0-.11,0-.16v-7.89c0-.05,0-.1,0-.15a3,3,0,0,1,3-2.89h64.54a24.67,24.67,0,0,0,9,14Z" class="cls-7"></path><rect height="13.97" width="1.56" y="871.31" x="1288.47" class="cls-7"></rect><rect height="13.97" width="1.56" y="871.31" x="1283.18" class="cls-7"></rect><rect height="13.97" width="1.56" y="871.31" x="1276.85" class="cls-7"></rect><rect height="13.97" width="1.56" y="871.31" x="1267.14" class="cls-7"></rect><rect height="13.97" width="1.56" y="871.31" x="1256.87" class="cls-7"></rect><rect height="13.97" width="1.56" y="871.31" x="1241.12" class="cls-7"></rect><rect height="13.97" width="1.56" y="871.31" x="1226.38" class="cls-7"></rect><rect height="13.97" width="1.56" y="871.31" x="1213.22" class="cls-7"></rect><rect height="13.97" width="1.56" y="871.31" x="1293.5" class="cls-7"></rect><rect height="13.97" width="1.56" y="871.31" x="1296.82" class="cls-7"></rect><rect height="13.97" width="1.56" y="871.31" x="1300.03" class="cls-7"></rect><path d="M1304,871.36v13.87a3.68,3.68,0,0,1-.58,0h-1v-14h1A3.68,3.68,0,0,1,1304,871.36Z" class="cls-7"></path><path d="M1306.17,872.66v11.28a3.35,3.35,0,0,1-1.56,1.14V871.52A3.28,3.28,0,0,1,1306.17,872.66Z" class="cls-7"></path><path d="M1310.38,860.58v7.89a2.82,2.82,0,0,1-.57,1.69,3.4,3.4,0,0,1-1.56,1.14,4.21,4.21,0,0,1-.61.16,3.81,3.81,0,0,1-.59,0H1169.71a3.23,3.23,0,0,1-3.32-2.89v-8.2a3.19,3.19,0,0,1,2.93-2.86,2.55,2.55,0,0,1,.39,0h137.34a2.88,2.88,0,0,1,.59.05,3.2,3.2,0,0,1,.61.15,3.4,3.4,0,0,1,1.56,1.14A2.85,2.85,0,0,1,1310.38,860.58Z" class="cls-6"></path><path d="M1242.93,871.51h-73.57a3,3,0,0,1-3-2.89v-8.2a3,3,0,0,1,2.61-2.86,2.17,2.17,0,0,1,.36,0h64.54v0A24.72,24.72,0,0,0,1242.93,871.51Z" class="cls-7"></path><rect height="13.97" width="1.56" y="857.54" x="1292.1" class="cls-7"></rect><rect height="13.97" width="1.56" y="857.54" x="1286.82" class="cls-7"></rect><rect height="13.97" width="1.56" y="857.54" x="1280.48" class="cls-7"></rect><rect height="13.97" width="1.56" y="857.54" x="1270.77" class="cls-7"></rect><rect height="13.97" width="1.56" y="857.54" x="1260.5" class="cls-7"></rect><rect height="13.97" width="1.56" y="857.54" x="1244.76" class="cls-7"></rect><rect height="13.97" width="1.56" y="857.54" x="1230.01" class="cls-7"></rect><rect height="13.97" width="1.56" y="857.54" x="1216.85" class="cls-7"></rect><rect height="13.97" width="1.56" y="857.54" x="1297.13" class="cls-7"></rect><rect height="13.97" width="1.56" y="857.54" x="1300.46" class="cls-7"></rect><rect height="13.97" width="1.56" y="857.54" x="1303.66" class="cls-7"></rect><path d="M1307.64,857.59v13.87a3.81,3.81,0,0,1-.59,0h-1v-14h1A2.88,2.88,0,0,1,1307.64,857.59Z" class="cls-7"></path><path d="M1309.81,858.88v11.28a3.4,3.4,0,0,1-1.56,1.14V857.74A3.4,3.4,0,0,1,1309.81,858.88Z" class="cls-7"></path><path d="M1292.34,846.63v7.89a2.84,2.84,0,0,1-.56,1.7,3.4,3.4,0,0,1-1.56,1.14,3.2,3.2,0,0,1-.61.15l-.2,0H1151.68a3.22,3.22,0,0,1-3.32-2.88v-8.2a3.23,3.23,0,0,1,3.32-2.89H1289.2a2.85,2.85,0,0,1,.41,0,4.21,4.21,0,0,1,.61.16,1.69,1.69,0,0,1,.28.12l.17.08h0a1,1,0,0,1,.17.1h0l.15.1a3.92,3.92,0,0,1,.33.27l.09.08,0,0,0,.06h0l.09.11.14.16A2.84,2.84,0,0,1,1292.34,846.63Z" class="cls-6"></path><path d="M1224.9,857.56h-73.58a3,3,0,0,1-3-2.88v-8.2a3,3,0,0,1,3-2.89h64.55c0,.11.05.22.08.33a24.6,24.6,0,0,0,8.92,13.62Z" class="cls-7"></path><rect height="13.97" width="1.56" y="843.59" x="1274.07" class="cls-7"></rect><rect height="13.97" width="1.56" y="843.59" x="1268.79" class="cls-7"></rect><rect height="13.97" width="1.56" y="843.59" x="1262.45" class="cls-7"></rect><rect height="13.97" width="1.56" y="843.59" x="1252.74" class="cls-7"></rect><rect height="13.97" width="1.56" y="843.59" x="1242.47" class="cls-7"></rect><rect height="13.97" width="1.56" y="843.59" x="1226.72" class="cls-7"></rect><rect height="13.97" width="1.56" y="843.59" x="1211.98" class="cls-7"></rect><rect height="13.97" width="1.56" y="843.59" x="1198.82" class="cls-7"></rect><rect height="13.97" width="1.56" y="843.59" x="1279.1" class="cls-7"></rect><rect height="13.97" width="1.56" y="843.59" x="1282.42" class="cls-7"></rect><rect height="13.97" width="1.56" y="843.59" x="1285.63" class="cls-7"></rect><path d="M1289.61,843.64v13.87a3.81,3.81,0,0,1-.59,0h-1v-14h1A3.81,3.81,0,0,1,1289.61,843.64Z" class="cls-7"></path><path d="M1291.78,844.93v11.29a3.4,3.4,0,0,1-1.56,1.14V843.8A3.31,3.31,0,0,1,1291.78,844.93Z" class="cls-7"></path><path d="M1302.44,833v7.89a2.82,2.82,0,0,1-.57,1.69,3.35,3.35,0,0,1-1.56,1.14,4.08,4.08,0,0,1-.6.16,3.92,3.92,0,0,1-.59,0H1161.78a3.53,3.53,0,0,1-1.49-.33,3.07,3.07,0,0,1-1.82-2.43.57.57,0,0,1,0-.13v-8.2a3.18,3.18,0,0,1,2.93-2.86,2.42,2.42,0,0,1,.39,0h137.34a2.94,2.94,0,0,1,.59,0,3.1,3.1,0,0,1,.6.15,3.35,3.35,0,0,1,1.56,1.14A2.85,2.85,0,0,1,1302.44,833Z" class="cls-6"></path><path d="M1235,843.92h-73.58a2.84,2.84,0,0,1-1.32-.33,3,3,0,0,1-1.63-2.43.57.57,0,0,1,0-.13v-8.2a3,3,0,0,1,2.61-2.86,2.06,2.06,0,0,1,.35,0H1226v0a24.77,24.77,0,0,0,8.61,13.62Z" class="cls-7"></path><rect height="13.97" width="1.56" y="829.95" x="1284.17" class="cls-7"></rect><rect height="13.97" width="1.56" y="829.95" x="1278.89" class="cls-7"></rect><rect height="13.97" width="1.56" y="829.95" x="1272.55" class="cls-7"></rect><rect height="13.97" width="1.56" y="829.95" x="1262.84" class="cls-7"></rect><rect height="13.97" width="1.56" y="829.95" x="1252.57" class="cls-7"></rect><rect height="13.97" width="1.56" y="829.95" x="1236.82" class="cls-7"></rect><rect height="13.97" width="1.56" y="829.95" x="1222.08" class="cls-7"></rect><rect height="13.97" width="1.56" y="829.95" x="1208.92" class="cls-7"></rect><rect height="13.97" width="1.56" y="829.95" x="1289.2" class="cls-7"></rect><rect height="13.97" width="1.56" y="829.95" x="1292.52" class="cls-7"></rect><rect height="13.97" width="1.56" y="829.95" x="1295.73" class="cls-7"></rect><path d="M1299.71,830v13.87a3.9,3.9,0,0,1-.59,0h-1V830h1A2.94,2.94,0,0,1,1299.71,830Z" class="cls-7"></path><path d="M1301.87,831.29v11.28a3.35,3.35,0,0,1-1.56,1.14V830.15A3.35,3.35,0,0,1,1301.87,831.29Z" class="cls-7"></path><path d="M1306.74,819v7.89a2.85,2.85,0,0,1-.57,1.7,3.35,3.35,0,0,1-1.56,1.14,3,3,0,0,1-.61.15l-.19,0H1166.08a3.22,3.22,0,0,1-3.32-2.88c0-.06,0-.11,0-.16V819s0-.1,0-.15a3.23,3.23,0,0,1,3.32-2.89h137.34a3.68,3.68,0,0,1,.58,0,3.89,3.89,0,0,1,.61.16,3.26,3.26,0,0,1,1.56,1.13A2.85,2.85,0,0,1,1306.74,819Z" class="cls-6"></path><path d="M1239.3,830h-73.58a3,3,0,0,1-3-2.88c0-.06,0-.11,0-.16V819s0-.1,0-.15a3,3,0,0,1,3-2.89h64.54a24.67,24.67,0,0,0,9,14Z" class="cls-7"></path><rect height="13.97" width="1.56" y="816" x="1288.47" class="cls-7"></rect><rect height="13.97" width="1.56" y="816" x="1283.18" class="cls-7"></rect><rect height="13.97" width="1.56" y="816" x="1276.85" class="cls-7"></rect><rect height="13.97" width="1.56" y="816" x="1267.14" class="cls-7"></rect><rect height="13.97" width="1.56" y="816" x="1256.87" class="cls-7"></rect><rect height="13.97" width="1.56" y="816" x="1241.12" class="cls-7"></rect><rect height="13.97" width="1.56" y="816" x="1226.38" class="cls-7"></rect><rect height="13.97" width="1.56" y="816" x="1213.22" class="cls-7"></rect><rect height="13.97" width="1.56" y="816" x="1293.5" class="cls-7"></rect><rect height="13.97" width="1.56" y="816" x="1296.82" class="cls-7"></rect><rect height="13.97" width="1.56" y="816" x="1300.03" class="cls-7"></rect><path d="M1304,816.05v13.87a3.68,3.68,0,0,1-.58.05h-1V816h1A3.68,3.68,0,0,1,1304,816.05Z" class="cls-7"></path><path d="M1306.17,817.34v11.29a3.26,3.26,0,0,1-1.56,1.13V816.21A3.26,3.26,0,0,1,1306.17,817.34Z" class="cls-7"></path><ellipse ry="93.26" rx="85.61" cy="721.96" cx="1242.12" class="cls-8"></ellipse><ellipse ry="93.26" rx="85.61" cy="721.96" cx="1234.65" class="cls-6"></ellipse><path d="M1234.65,808c-20.84,0-40.42-8.84-55.16-24.89s-22.84-37.39-22.84-60.08,8.11-44,22.84-60.09,34.32-24.88,55.16-24.88,40.42,8.83,55.15,24.88,22.85,37.39,22.85,60.09-8.11,44-22.85,60.08S1255.48,808,1234.65,808Zm0-164.88c-40.45,0-73.35,35.85-73.35,79.91s32.9,79.9,73.35,79.9,73.35-35.84,73.35-79.9S1275.09,643.15,1234.65,643.15Z" class="cls-7"></path><path d="M1245.39,747.72a15.32,15.32,0,0,0-.19-4.94,10.62,10.62,0,0,0-1.91-4.09,18.28,18.28,0,0,0-3.83-3.68,45.54,45.54,0,0,0-5.94-3.62,121.13,121.13,0,0,1-11-6.56,40.23,40.23,0,0,1-8.19-7.27,25.35,25.35,0,0,1-4.84-8.85,27.79,27.79,0,0,1-.83-11.33,27.12,27.12,0,0,1,2.91-9.91,23.12,23.12,0,0,1,6.05-7.31,26.07,26.07,0,0,1,8.65-4.49,33.1,33.1,0,0,1,10.81-1.36l1.52-14,10.35,1.34-1.55,14.2a31.22,31.22,0,0,1,9.74,4.51,26.27,26.27,0,0,1,7,7.28,28.87,28.87,0,0,1,3.89,9.76,38.76,38.76,0,0,1,.42,12L1249.82,707q.86-7.85-1.92-12.16a10.85,10.85,0,0,0-8.15-5,13,13,0,0,0-5.1.23,9.22,9.22,0,0,0-3.73,2,9.5,9.5,0,0,0-2.4,3.37,15.42,15.42,0,0,0-1.14,4.43,14.27,14.27,0,0,0,.17,4.47,9.89,9.89,0,0,0,1.84,3.92,18.31,18.31,0,0,0,3.86,3.69,58.05,58.05,0,0,0,6.17,3.88q6,3.36,10.84,6.71a40.49,40.49,0,0,1,8.16,7.33,25.76,25.76,0,0,1,4.83,8.89,30.45,30.45,0,0,1-2.13,21.36,22.63,22.63,0,0,1-6.07,7.24,25,25,0,0,1-8.7,4.32,35.93,35.93,0,0,1-10.86,1.25l-1.42,13-10.28-1.32,1.41-13a41.75,41.75,0,0,1-10.1-3.9,28.07,28.07,0,0,1-8.28-6.81,27.77,27.77,0,0,1-5.19-10.13,35.75,35.75,0,0,1-.86-13.78l18.69,2.42a22.26,22.26,0,0,0,.35,7.91,13.7,13.7,0,0,0,2.66,5.39,11.73,11.73,0,0,0,4.28,3.2,18.78,18.78,0,0,0,5.12,1.43,15.38,15.38,0,0,0,5.43-.16,10.76,10.76,0,0,0,4.11-1.86,9.37,9.37,0,0,0,2.71-3.27A12.61,12.61,0,0,0,1245.39,747.72Z" class="cls-7"></path><g id="man"><path d="M945,434l-25.7,53.13-13.19-5.23L910.34,496l-25.77,84.57S870.32,473.16,945,434Z" class="cls-13"></path><path d="M902.07,480.93S873.65,595.09,870.91,704c0,0,23.57,9,60.61,1.86C968.75,698.76,902.07,480.93,902.07,480.93Z" class="cls-13"></path><path d="M766,639.22c7.63-.15,18.37.87,21.92-3.35,4-4.8,8.77-4.09,8.77-4.09l-1-5.48-1.16-6.55s-.43-.59-2-.57c0,0-5.53.26-8.17-.77-6.42-2.5-32,14.18-31.12,18.81C753.57,639,762.71,639.29,766,639.22Z" class="cls-14"></path><path d="M905.28,478.69s-43.18,97.16-56.55,107.59-61,33-61,33a14.31,14.31,0,0,0-.09,8c1.2,4.92,3.58,6.32,3.58,6.32s66.6-6.48,82.08-17,49.62-52.34,49.62-52.34Z" class="cls-13"></path><path d="M1031.66,1023.43h25.55c3.22-1.91,6.09-6.26,7-12.76,1.25-9,10.48-13.86,12.48-21.19s-8.24-17.66-8.24-17.66l-1.71-2.4-1.78-2.49-17,4.35s-.42,4.4-.67,10c-.19,4.05-.29,8.72-.08,12.82.5,9.78-2.51,20.31-10.49,22.22C1030.85,1017.72,1031.12,1021.54,1031.66,1023.43Z" class="cls-13"></path><path d="M883.35,1023.43h58.44c2.81-3.74,1.77-17.53,1.35-22-.09-.91-.15-1.43-.15-1.43s-20-17.39-22.7-4.08c-.08.42-.18.83-.29,1.23-3.46,12.45-19,18.11-27.89,19.69C886.29,1017.84,884.14,1021.13,883.35,1023.43Z" class="cls-13"></path><path d="M894.48,668.06s3,41.18,6.59,90.69c4.85,67.26,10.67,149.87,11.24,165.52,1,27.17,5,70.64,5,70.64s9.48,10.33,28.44,6c0,0,16.89-62.06,21.72-127.71.07-1.08.15-2.16.22-3.25,4.49-66.84,11.47-207.58,11.47-207.58Z" class="cls-15"></path><path d="M894.48,668.06s3,41.18,6.59,90.69l66.39,114.43c.07-1.08.15-2.16.22-3.25,4.49-66.84,11.47-207.58,11.47-207.58Z" class="cls-16"></path><path d="M908.32,673s54.62,149.16,90.54,219.26S1046,981.87,1046,981.87s20.57-9,22.44-15.08c0,0-13.73-135.33-37.78-168.32-13.59-18.64-29.56-74.58-30.31-94.14s-4.86-58.28-4.86-58.28Z" class="cls-15"></path><path d="M921.92,455.5c21.34,7.34,58.27-12.46,58.27-12.46S960.52,427,961.55,393.49L945,408l-11.21,9.84s0,5.8,1.27,16c.23,1.85.49,3.86.8,6a4.46,4.46,0,0,1-1.79,4.33A52.2,52.2,0,0,0,921.92,455.5Z" class="cls-17"></path><path d="M892.13,671.49a3.3,3.3,0,0,0,2.24.93c8-.12,31.39,4.73,51.17,2.52,16.67-1.75,31.43-7.13,47.27-14.86,2.11-1,7-3.85,6.84-6.41-.07-2.81-.32-6.87-.64-12-1.13-17.82-3.08-48.47-1.18-83.83.35-6.58.53-13.11.55-19.54.16-47.93-8.56-90.08-26.09-104.34,0,0-12.22,7.47-20.68,10.41-8.29,2.89-12.56,2.31-16.86-.8,0,0-8.37,4.53-11.94,8.78-8.29,9.84-14.75,22.89-19,41.64-3.64,15.95-7,39.21-8.22,69C895,576.51,891.59,671,892.13,671.49Z" class="cls-2"></path><path d="M995.79,513.14,972.29,434s-56.41,23.17-59,109.94c-1,19.77-5.38,100.8,2.5,168,0,0,44,18.65,97.82-18.15Z" class="cls-18"></path><path d="M933.83,417.82s0,5.8,1.27,16c12.42-2.32,26.52-24.19,26.52-24.19A36.51,36.51,0,0,0,945,408Z" class="cls-19"></path><path d="M924.59,417.2s38.44,7,42-19.19,11-42.86-13.39-48.41-30.55,3.65-33.71,12.06S914.68,414.72,924.59,417.2Z" class="cls-17"></path><path d="M1093.28,755.46l-78.49,12.18c-10.22,1.59-19.77-6.22-21.22-17.35l-4.85-37c-1.46-11.13,5.71-21.54,15.93-23.12l78.49-12.19c10.22-1.58,19.77,6.23,21.22,17.35l4.85,37.06C1110.67,743.47,1103.5,753.87,1093.28,755.46Z" class="cls-13"></path><path d="M999.06,711.61l4.91,37.48A20.39,20.39,0,0,0,1015.05,765a17.42,17.42,0,0,0,6.12,1.68h0a17.59,17.59,0,0,0,4.09-.14l78.35-12.17c10.26-1.59,17.45-12,16-23.2l-4.9-37.49c-1.47-11.17-11-19-21.3-17.41l-27,4.19-1-8a6.33,6.33,0,0,0-7-5.75l-3,.46L1039,669.69l-4.08.64a6.1,6.1,0,0,0-4.09,2.63,7.22,7.22,0,0,0-1.19,5l1,8-15.63,2.42c-.62.1-1.22.23-1.81.38h0a19.52,19.52,0,0,0-13,12.37h0A22.08,22.08,0,0,0,999.06,711.61ZM1062.57,681l-28,4.36-1-8a2.49,2.49,0,0,1,2-2.85l7-1.1,12.92-2,3.48-.54a2.34,2.34,0,0,1,.7,0,2.45,2.45,0,0,1,1.93,2.14Z" class="cls-18"></path><path d="M1033.59,645.12s4.12,6,4.29,8.37c1.11,16.2-5.69,18.44,11.9,27.44,0,0,7.51,3.12,7.64-3.23s-5.21-6.46-4.23-15.35c1.12-10.26,1-10.35-5.17-15.71l-4.09-7.36Z" class="cls-17"></path><path d="M1044.08,649.7a55.43,55.43,0,0,1-13.82.84s-19.67-66.21-22.21-72.26-58.44-77.64-58.44-77.64L972.29,434s13.3,8.48,27.37,34.91c17.37,32.65,36.46,85.23,39.86,93.78,10.14,25.55,13.67,82.83,13.67,82.83A24.36,24.36,0,0,1,1044.08,649.7Z" class="cls-18"></path><path d="M966.67,395.49s-3.94-.71-3.31-6.63.63-13.66-3.79-12.22-4.63,5.3-6.45,3.05-1.85-11.73-15-12.39-18.49,4.32-24.61,1.39-6.43-13-6.43-13,1.74,3.6,4.36,4.75c0,0-10.2-15.2,1.61-25.62s23.85-3.6,30.68-3.15c15.06,1,24.79,2,29.7,12.76S976.33,385.12,966.67,395.49Z" class="cls-18"></path><path d="M1040.09,652.24s-4,4.51-4.22,6.39c-.8,6-2.65,8.62-1.72,9.27,1.92,1.36,4.47-3.09,5.68-7.09A19.8,19.8,0,0,0,1040.09,652.24Z" class="cls-17"></path><path d="M972.29,434l-25.7,53.13-13.19-5.23L937.68,496l-25.77,84.57S897.66,473.16,972.29,434Z" class="cls-13"></path></g><path d="M921.92,402.36s1.5,4.31,5.24,4.43,6.63-3.84,6.63-3.84S925.66,400.89,921.92,402.36Z" class="cls-2"></path><path d="M721.32,803.21l78.06-19.7c10.16-2.57,16.54-13.72,14.19-24.79l-7.84-36.85c-2.35-11.06-12.59-18-22.75-15.46l-78.06,19.7c-10.16,2.57-16.54,13.72-14.19,24.79l7.84,36.85C700.92,798.82,711.16,805.77,721.32,803.21Z" class="cls-15"></path><path d="M790.86,715.06h0a18.26,18.26,0,0,0-16.4-6.5h0a15.31,15.31,0,0,0-1.84.36l-15.54,3.92-1.69-8a6.82,6.82,0,0,0-2.8-4.26,5.84,5.84,0,0,0-4.74-.86l-4.05,1-16.32,4.12-2.94.75a6.88,6.88,0,0,0-4.7,8.2l1.69,8-26.83,6.76c-10.2,2.58-16.61,13.77-14.25,24.88l7.94,37.28c2.36,11.11,12.63,18.09,22.83,15.51l77.92-19.66a17.47,17.47,0,0,0,3.9-1.49h0a18.84,18.84,0,0,0,5.2-4,22,22,0,0,0,5.13-19.37l-7.92-37.27A21.32,21.32,0,0,0,790.86,715.06Zm-67.21-2.15a2.66,2.66,0,0,1,1.1-2.78,2.18,2.18,0,0,1,.66-.29l3.46-.88,12.85-3.23,7-1.77a2.34,2.34,0,0,1,2.81,1.91l1.7,8-27.89,7Z" class="cls-16"></path><path d="M739.67,667.1s-2.36,9.11-1.55,12c5.48,19.67,15,32.54-10.52,29.21,0,0,1-1.13-3.83-11.14-5.63-11.54-5.53-11.71-.49-21.11L725,665.35Z" class="cls-17"></path><path d="M771.74,643.68c-7.7-.5-17.08-2.7-20.5-7.13-3.87-5-7.74-6.37-7.74-6.37l1.18-5.49,1.42-6.56s.46-.58,2-.49c0,0,6,1.49,8.27-.4s6.34-.73,8.86,1.09c3.21,2.32,7.54,1.95,7.43,3.08,0,0-6.36,3.41-5.76,4,5.82,5.63,21.16,7.87,20.17,12.27C786.71,639.4,775,643.9,771.74,643.68Z" class="cls-17"></path><path d="M664.5,429.52l0,4.55s1.14,14.25-15,16.34-29.32,1.81-28.88-9.19c1.45-8.51,4-21.73,4.16-28.78a54.87,54.87,0,0,0-.57-8.53l31.21-.68,9.2,1.64Z" class="cls-17"></path><path d="M664.62,404.87l-.12,24.65a24.62,24.62,0,0,1-11.25,2.7c-14.35,0-23.62-11.46-28.47-19.78a54.87,54.87,0,0,0-.57-8.53l31.21-.68Z" class="cls-14"></path><path d="M621.81,398.44c3.63,21.23,28.78,20.53,39.65,19.2,3.06-.37,5-.8,5-.8,3.45-1,5.37-6.92,6.27-14.67,1.77-15.34-.47-37.86-2.85-43.62-3.58-8.66-10.32-18-35.65-11.27S617.17,371.23,621.81,398.44Z" class="cls-17"></path><path d="M601.24,1027.1h35.63a99.74,99.74,0,0,0-2.84-13.94,41,41,0,0,0-2-5.59c-3.46-7.54-25.48-2.75-25.48-2.75s-2,1.91-3.64,9.2A83.11,83.11,0,0,0,601.24,1027.1Z" class="cls-13"></path><path d="M708.93,1014.84c.1,5.29.71,10.28,2.47,12.26h70.49c-.89-2.78-3.43-7-10.67-8.24-8.22-1.45-21-5.76-28.52-14.38a23.77,23.77,0,0,1-5.53-10.9c-3.31-16.08-27.42,4.93-27.42,4.93A142.75,142.75,0,0,0,708.93,1014.84Z" class="cls-13"></path><path d="M662,841a128.21,128.21,0,0,1,1.77,14.19c2.25,47.62,36.8,156.5,43,159,9.56,3.94,24.62-4.42,32.5-7.15a7.43,7.43,0,0,0,4.74-8.37c-17.11-85.69-23.4-209.1-25.68-282.16-1.16-36.8-7-62.22-7-62.22s-84.28-24.49-84.78,6.5C626.17,688.2,654.53,795.73,662,841Z" class="cls-18"></path><path d="M662,841,718.35,716.5c-1.16-36.8-7-62.22-7-62.22s-84.28-24.49-84.78,6.5C626.17,688.2,654.53,795.73,662,841Z" class="cls-13"></path><path d="M680.8,660.88l-44.56,351.76s-19.56,5.14-34.78,1c0,0-13-187.08-12-232.31s-9.36-121,2.39-129.38S680.8,660.88,680.8,660.88Z" class="cls-18"></path><path d="M670.84,361.87c-7,2.39-21.68-.05-27.83,5.38s-.29,14.36-7.32,17.55h0a3.29,3.29,0,0,1-4-1.1c-2-2.65-4.64-5.29-7.11-4.2-2,.9-2.12,3.75-1.23,6.51a8.31,8.31,0,0,1-.75,7,4,4,0,0,0-.77,2.79c.59,3.51,2.18,8.07,2.77,10.4l.16,2.44S612.91,394.72,608,383c-3.4-8-3.34-38,13.32-46.76a.51.51,0,0,1-.16-.2c-.36-.7-1.36-.54-1.36-.54a6.93,6.93,0,0,1,3.65-.26s0-.15.24-.31a6.41,6.41,0,0,1,2.25-3.64,7.44,7.44,0,0,0-1.06,2.87c4.37-2.51,17.83-8.08,28.51-3a83.55,83.55,0,0,0,18.33,6.19,8.21,8.21,0,0,1,6.19,8.48C677.66,351.61,675.82,359.89,670.84,361.87Z" class="cls-13"></path><path d="M616.82,447.33l10.26,239.76s85.61,1.52,83.17-19.58-30.86-212.84-30.86-212.84" class="cls-20"></path><path d="M645,597.52s-4.34,64-12.69,104.24c0,0-50,2.89-61.82-18.13,0,0,9.39-86.5,9.39-104,0-6.17-.44-14.55-1.13-23.92-1-14.2-2.65-30.65-4.18-45-2.13-19.95-4.08-35.81-4.08-35.81l41.19-36.46Z" class="cls-21"></path><path d="M744.18,673.28s-9.33,6.36-24,4.23c-5.35,14.27-17.95,19.12-17.95,17.83,0-.16-2.83-27-6.17-58.54-.33-3.16-.66-6.36-1-9.58,0-.28-.06-.55-.08-.83-.57-5.29-1.13-10.64-1.7-16-4-38-7.88-74.5-7.88-74.5-8.76-58.42-16.18-97-16.18-97,18.69,2.12,31.3,9.37,36.34,18.87,14.91,28.16,25.72,98.61,32,151.34,0,.14,0,.27,0,.41,1.09,9.1,2.05,17.67,2.86,25.39.06.49.11,1,.16,1.44C743,658.44,744.18,673.28,744.18,673.28Z" class="cls-21"></path><path d="M657.5,401.93s.82,2.74,7.16,1.74c0,0,5.33-.84,4.94-3.89C669.6,399.78,664.24,398.06,657.5,401.93Z" class="cls-2"></path><path d="M614.39,438.13c-.1-2.29,9.85-5.45,9.85-5.45s11.39,17.2,30.15,17.5c0,0-5.35,11.33-11.65,14.27C642.74,464.45,615,451.72,614.39,438.13Z" class="cls-22"></path><path d="M654.39,449.77s9.94-6.41,10-13.37c0,0,6.42-.88,9.22,2.51,0,0,2.36,11.93-.77,18.85C672.81,457.76,658.5,455.39,654.39,449.77Z" class="cls-22"></path><path d="M647.64,448.74l13.48-3.52s1.76.17,1.71,2.56-3.8,9.38-5.46,9.94S644.45,453.58,647.64,448.74Z" class="cls-23"></path><path d="M616,437c-.1-2.29,6.63-7,6.63-7s13,16.59,31.8,16.89c0,0-5.35,11.33-11.65,14.27C642.74,461.11,616.58,450.54,616,437Z" class="cls-20"></path><path d="M654.39,446.84s10.05-5.81,10.08-12.77c0,0,6.07,2.91,8.88,6.3,0,0,2.59,7.53-.54,14.46C672.81,454.83,658.5,452.45,654.39,446.84Z" class="cls-20"></path><path d="M679,647.88a32.72,32.72,0,0,1-6.77,18l-6,7.42c-1.52,1.87-3.87,1.64-5.12-.48l-7.28-12.45a20.5,20.5,0,0,1-2.51-11.86c.77-9.5,2.23-27.81,3.41-45.48,1-14.32,1.77-28.23,1.89-36.68.4-27-2.84-113-2.84-113l4.84.27s11.74,33.27,17.64,78.65c1.46,11.18,2.55,23.08,3,35.41C679.28,567.67,681.37,616.8,679,647.88Z" class="cls-24"></path><path d="M679,647.88a32.72,32.72,0,0,1-6.77,18l-6,7.42c-1.52,1.87-3.87,1.64-5.12-.48l-7.28-12.45a20.5,20.5,0,0,1-2.51-11.86c.77-9.5,2.23-27.81,3.41-45.48,13.58-20.27,19.25-48.11,21.53-70.8,1.46,11.18,2.55,23.08,3,35.41C679.28,567.67,681.37,616.8,679,647.88Z" class="cls-23"></path><path d="M622.59,430S649.28,551.69,645,597.55c0,0-9.81-49-33.42-89.15,0,0,8.62-8.26,8.15-11.3a27.24,27.24,0,0,0-12.6-.67s.68-52.48,4.55-58S622.59,430,622.59,430Z" class="cls-13"></path><path d="M664.47,434.07c-4,.36,26.45,119,28.7,157,0,0-2.67-67.85-2.41-87.4,0,0-11.08-6.39-11.08-8.64s11.82-8.3,11.82-8.3-7.49-41.78-11.57-46.39S664.47,434.07,664.47,434.07Z" class="cls-13"></path><path d="M720.2,682.33s-1.85,2.73-.68,9.57.53,10.62,2.15,9.44,5-9.4,5-9.4Z" class="cls-17"></path><path d="M641.78,616.28c-31.06-5.06-51.83-36.68-63-60.62-1-14.2-2.65-30.65-4.18-45l7.27-22.59Z" class="cls-13"></path><path d="M740.66,636.35c-6.19,1.55-25,5.37-44.6.45-.33-3.16-.66-6.36-1-9.58,0-.28-.06-.55-.08-.83.64-2.74,1.29-5.49,1.93-8.23,11.12,4.33,36,13.83,43.6,16.75C740.56,635.4,740.61,635.87,740.66,636.35Z" class="cls-13"></path><path d="M611.71,438.41s-27.29,3.75-39.75,22.7,14.3,122.12,69.82,155.16c26.71,15.9,103.79,19.48,103.79,19.48s4.24.46,5.92-8.83a40.94,40.94,0,0,0,0-8.77S663.75,582.32,656,575.42,611.71,438.41,611.71,438.41Z" class="cls-21"></path><path d="M784.37,618.41s-9.18-2.51-11.81-3.11c-3.07-.71-5.88-3.23-6.78-2-1.66,2.2,5.36,6.08,8.13,12.88,1.37,3.35,4.1,5.16,9.59,2.71C786.27,627.61,788.47,621.37,784.37,618.41Z" class="cls-14"></path><ellipse ry="43.42" rx="39.86" cy="374.09" cx="1084.45" class="cls-4"></ellipse><path d="M1071.66,356.67c0-7.7,5.73-13.94,12.79-13.94s12.79,6.24,12.79,13.94-5.72,13.93-12.79,13.93S1071.66,364.36,1071.66,356.67Z" class="cls-2"></path><path d="M1084.45,370.6c-12.36,0-22.39,10.92-22.39,24.39h44.78C1106.84,381.52,1096.82,370.6,1084.45,370.6Z" class="cls-2"></path><ellipse ry="29.29" rx="26.89" cy="258.57" cx="789.84" class="cls-25"></ellipse><path d="M781.21,246.82c0-5.2,3.86-9.41,8.63-9.41s8.63,4.21,8.63,9.41-3.87,9.4-8.63,9.4S781.21,252,781.21,246.82Z" class="cls-2"></path><path d="M789.84,256.22c-8.35,0-15.11,7.36-15.11,16.45h30.21C804.94,263.58,798.18,256.22,789.84,256.22Z" class="cls-2"></path><path d="M981.57,111.5a2.31,2.31,0,0,1,2.92-1.69A2.6,2.6,0,0,1,986,113a2.31,2.31,0,0,1-2.92,1.69A2.6,2.6,0,0,1,981.57,111.5Z" class="cls-4"></path><path d="M991.92,115a2.31,2.31,0,0,1,2.92-1.69,2.6,2.6,0,0,1,1.55,3.19,2.31,2.31,0,0,1-2.92,1.69A2.6,2.6,0,0,1,991.92,115Z" class="cls-4"></path><path d="M1004,121.67a2.59,2.59,0,0,1-1.55-3.18,2.3,2.3,0,0,1,2.92-1.69,2.59,2.59,0,0,1,1.55,3.19A2.3,2.3,0,0,1,1004,121.67Z" class="cls-4"></path><path d="M1012.9,122a2.32,2.32,0,0,1,2.92-1.69,2.6,2.6,0,0,1,1.55,3.19,2.31,2.31,0,0,1-2.92,1.69A2.6,2.6,0,0,1,1012.9,122Z" class="cls-4"></path><path d="M1023.25,125.47a2.32,2.32,0,0,1,2.93-1.69,2.61,2.61,0,0,1,1.55,3.19,2.32,2.32,0,0,1-2.93,1.69A2.6,2.6,0,0,1,1023.25,125.47Z" class="cls-4"></path><path d="M1035.29,132.17a2.59,2.59,0,0,1-1.55-3.18,2.32,2.32,0,0,1,2.93-1.69,2.59,2.59,0,0,1,1.54,3.19A2.3,2.3,0,0,1,1035.29,132.17Z" class="cls-4"></path><path d="M1043.81,132.36a2.32,2.32,0,0,1,2.93-1.69,2.61,2.61,0,0,1,1.54,3.19,2.31,2.31,0,0,1-2.92,1.69A2.6,2.6,0,0,1,1043.81,132.36Z" class="cls-4"></path><path d="M1054.16,135.83a2.32,2.32,0,0,1,2.93-1.69,2.61,2.61,0,0,1,1.55,3.19,2.32,2.32,0,0,1-2.93,1.69A2.6,2.6,0,0,1,1054.16,135.83Z" class="cls-4"></path><path d="M1066.2,142.54a2.6,2.6,0,0,1-1.55-3.19,2.32,2.32,0,0,1,2.93-1.69,2.6,2.6,0,0,1,1.55,3.19A2.32,2.32,0,0,1,1066.2,142.54Z" class="cls-4"></path><path d="M1075.14,142.86a2.31,2.31,0,0,1,2.93-1.68,2.6,2.6,0,0,1,1.55,3.18,2.32,2.32,0,0,1-2.93,1.69A2.59,2.59,0,0,1,1075.14,142.86Z" class="cls-4"></path><path d="M1085.49,146.33a2.31,2.31,0,0,1,2.93-1.68,2.59,2.59,0,0,1,1.55,3.18,2.32,2.32,0,0,1-2.93,1.69A2.6,2.6,0,0,1,1085.49,146.33Z" class="cls-4"></path><path d="M1097.53,153a2.61,2.61,0,0,1-1.55-3.19,2.32,2.32,0,0,1,2.93-1.69,2.61,2.61,0,0,1,1.55,3.19A2.32,2.32,0,0,1,1097.53,153Z" class="cls-4"></path><path d="M1106.5,153.37a2.3,2.3,0,0,1,2.92-1.68,2.59,2.59,0,0,1,1.55,3.18,2.3,2.3,0,0,1-2.92,1.69A2.59,2.59,0,0,1,1106.5,153.37Z" class="cls-4"></path><path d="M1116.85,156.84a2.31,2.31,0,0,1,2.93-1.68,2.6,2.6,0,0,1,1.55,3.18,2.31,2.31,0,0,1-2.93,1.69A2.6,2.6,0,0,1,1116.85,156.84Z" class="cls-4"></path><path d="M1128.89,163.55a2.6,2.6,0,0,1-1.55-3.19,2.32,2.32,0,0,1,2.93-1.69,2.61,2.61,0,0,1,1.55,3.19A2.32,2.32,0,0,1,1128.89,163.55Z" class="cls-4"></path><path d="M1137.83,163.88a2.31,2.31,0,0,1,2.93-1.69,2.6,2.6,0,0,1,1.55,3.19,2.31,2.31,0,0,1-2.93,1.68A2.59,2.59,0,0,1,1137.83,163.88Z" class="cls-4"></path><path d="M1148.18,167.35a2.31,2.31,0,0,1,2.93-1.69,2.59,2.59,0,0,1,1.55,3.19,2.31,2.31,0,0,1-2.93,1.68A2.6,2.6,0,0,1,1148.18,167.35Z" class="cls-4"></path><path d="M1160.22,174.05a2.61,2.61,0,0,1-1.55-3.19,2.32,2.32,0,0,1,2.93-1.69,2.61,2.61,0,0,1,1.55,3.19A2.32,2.32,0,0,1,1160.22,174.05Z" class="cls-4"></path><path d="M1168.74,174.24a2.32,2.32,0,0,1,2.93-1.69,2.6,2.6,0,0,1,1.55,3.19,2.31,2.31,0,0,1-2.93,1.68A2.6,2.6,0,0,1,1168.74,174.24Z" class="cls-4"></path><path d="M1179.1,177.71A2.31,2.31,0,0,1,1182,176a2.59,2.59,0,0,1,1.55,3.19,2.31,2.31,0,0,1-2.93,1.68A2.59,2.59,0,0,1,1179.1,177.71Z" class="cls-4"></path><path d="M1191.13,184.41a2.6,2.6,0,0,1-1.55-3.19,2.33,2.33,0,0,1,2.93-1.69,2.6,2.6,0,0,1,1.55,3.19A2.32,2.32,0,0,1,1191.13,184.41Z" class="cls-4"></path><path d="M1200.07,184.74a2.32,2.32,0,0,1,2.93-1.69,2.59,2.59,0,0,1,1.55,3.19,2.32,2.32,0,0,1-2.93,1.69A2.61,2.61,0,0,1,1200.07,184.74Z" class="cls-4"></path><path d="M1210.43,188.21a2.31,2.31,0,0,1,2.92-1.69,2.59,2.59,0,0,1,1.55,3.19,2.32,2.32,0,0,1-2.92,1.69A2.6,2.6,0,0,1,1210.43,188.21Z" class="cls-4"></path><path d="M1222.47,194.91a2.59,2.59,0,0,1-1.55-3.19,2.3,2.3,0,0,1,2.92-1.68,2.59,2.59,0,0,1,1.55,3.18A2.3,2.3,0,0,1,1222.47,194.91Z" class="cls-4"></path><path d="M1112.38,329.66a2.69,2.69,0,0,1-.5-3.56,2.22,2.22,0,0,1,3.27-.55,2.69,2.69,0,0,1,.5,3.56A2.21,2.21,0,0,1,1112.38,329.66Z" class="cls-4"></path><path d="M1118.78,320.14a2.69,2.69,0,0,1-.5-3.56,2.22,2.22,0,0,1,3.27-.55,2.69,2.69,0,0,1,.5,3.56A2.21,2.21,0,0,1,1118.78,320.14Z" class="cls-4"></path><path d="M1128.54,310a2.22,2.22,0,0,1-3.27.55,2.71,2.71,0,0,1-.51-3.56,2.21,2.21,0,0,1,3.27-.55A2.69,2.69,0,0,1,1128.54,310Z" class="cls-4"></path><path d="M1131.75,300.86a2.71,2.71,0,0,1-.5-3.57,2.22,2.22,0,0,1,3.27-.55,2.72,2.72,0,0,1,.51,3.57A2.23,2.23,0,0,1,1131.75,300.86Z" class="cls-4"></path><path d="M1138.15,291.34a2.72,2.72,0,0,1-.5-3.57,2.22,2.22,0,0,1,3.27-.55,2.72,2.72,0,0,1,.51,3.57A2.23,2.23,0,0,1,1138.15,291.34Z" class="cls-4"></path><path d="M1147.91,281.14a2.22,2.22,0,0,1-3.27.55,2.69,2.69,0,0,1-.5-3.56,2.21,2.21,0,0,1,3.27-.55A2.69,2.69,0,0,1,1147.91,281.14Z" class="cls-4"></path><path d="M1151.14,272a2.69,2.69,0,0,1-.5-3.56,2.22,2.22,0,0,1,3.27-.55,2.69,2.69,0,0,1,.5,3.56A2.21,2.21,0,0,1,1151.14,272Z" class="cls-4"></path><path d="M1157.54,262.5a2.69,2.69,0,0,1-.5-3.56,2.22,2.22,0,0,1,3.27-.55,2.69,2.69,0,0,1,.5,3.56A2.21,2.21,0,0,1,1157.54,262.5Z" class="cls-4"></path><path d="M1167.3,252.31a2.22,2.22,0,0,1-3.27.55,2.71,2.71,0,0,1-.51-3.56,2.22,2.22,0,0,1,3.28-.55A2.7,2.7,0,0,1,1167.3,252.31Z" class="cls-4"></path><path d="M1170.51,243.22a2.72,2.72,0,0,1-.5-3.57,2.22,2.22,0,0,1,3.27-.55,2.72,2.72,0,0,1,.51,3.57A2.23,2.23,0,0,1,1170.51,243.22Z" class="cls-4"></path><path d="M1176.92,233.7a2.71,2.71,0,0,1-.51-3.57,2.22,2.22,0,0,1,3.27-.55,2.71,2.71,0,0,1,.51,3.57A2.22,2.22,0,0,1,1176.92,233.7Z" class="cls-4"></path><path d="M1186.67,223.5a2.22,2.22,0,0,1-3.27.55,2.69,2.69,0,0,1-.5-3.56,2.21,2.21,0,0,1,3.27-.55A2.69,2.69,0,0,1,1186.67,223.5Z" class="cls-4"></path><path d="M1189.63,214.79a2.69,2.69,0,0,1-.51-3.56,2.22,2.22,0,0,1,3.27-.55,2.69,2.69,0,0,1,.51,3.56A2.21,2.21,0,0,1,1189.63,214.79Z" class="cls-4"></path><path d="M1196,205.28a2.72,2.72,0,0,1-.51-3.57,2.23,2.23,0,0,1,3.28-.55,2.71,2.71,0,0,1,.5,3.57A2.22,2.22,0,0,1,1196,205.28Z" class="cls-4"></path><path d="M1205.78,195.08a2.21,2.21,0,0,1-3.27.55,2.69,2.69,0,0,1-.5-3.56,2.21,2.21,0,0,1,3.27-.55A2.69,2.69,0,0,1,1205.78,195.08Z" class="cls-4"></path><path d="M1209,186a2.72,2.72,0,0,1-.51-3.57,2.23,2.23,0,0,1,3.28-.55,2.71,2.71,0,0,1,.5,3.57A2.22,2.22,0,0,1,1209,186Z" class="cls-4"></path><path d="M1215.4,176.47a2.7,2.7,0,0,1-.5-3.57,2.22,2.22,0,0,1,3.27-.55,2.71,2.71,0,0,1,.5,3.57A2.22,2.22,0,0,1,1215.4,176.47Z" class="cls-4"></path><path d="M1225.16,166.27a2.21,2.21,0,0,1-3.27.55,2.69,2.69,0,0,1-.51-3.56,2.22,2.22,0,0,1,3.27-.55A2.69,2.69,0,0,1,1225.16,166.27Z" class="cls-4"></path><path d="M1131.75,369.62a2.55,2.55,0,0,1,1.94-2.93,2.37,2.37,0,0,1,2.68,2.11,2.53,2.53,0,0,1-1.93,2.93A2.38,2.38,0,0,1,1131.75,369.62Z" class="cls-4"></path><path d="M1142.44,367.71a2.53,2.53,0,0,1,1.93-2.92,2.37,2.37,0,0,1,2.69,2.1,2.53,2.53,0,0,1-1.93,2.93A2.38,2.38,0,0,1,1142.44,367.71Z" class="cls-4"></path><path d="M1156,367.89a2.39,2.39,0,0,1-2.69-2.11,2.54,2.54,0,0,1,1.94-2.93,2.37,2.37,0,0,1,2.68,2.11A2.53,2.53,0,0,1,1156,367.89Z" class="cls-4"></path><path d="M1164.1,363.85a2.54,2.54,0,0,1,1.94-2.93,2.36,2.36,0,0,1,2.68,2.1,2.53,2.53,0,0,1-1.93,2.93A2.37,2.37,0,0,1,1164.1,363.85Z" class="cls-4"></path><path d="M1174.79,361.94a2.54,2.54,0,0,1,1.93-2.93,2.37,2.37,0,0,1,2.69,2.1,2.53,2.53,0,0,1-1.93,2.93A2.37,2.37,0,0,1,1174.79,361.94Z" class="cls-4"></path><path d="M1188.31,362.11a2.38,2.38,0,0,1-2.69-2.11,2.52,2.52,0,0,1,1.93-2.92,2.37,2.37,0,0,1,2.69,2.1A2.53,2.53,0,0,1,1188.31,362.11Z" class="cls-4"></path><path d="M1196.48,358.07a2.53,2.53,0,0,1,1.93-2.93,2.37,2.37,0,0,1,2.69,2.1,2.54,2.54,0,0,1-1.93,2.93A2.37,2.37,0,0,1,1196.48,358.07Z" class="cls-4"></path><path d="M1207.17,356.16a2.54,2.54,0,0,1,1.93-2.93,2.37,2.37,0,0,1,2.69,2.1,2.54,2.54,0,0,1-1.93,2.93A2.37,2.37,0,0,1,1207.17,356.16Z" class="cls-4"></path><path d="M1220.69,356.33a2.38,2.38,0,0,1-2.69-2.11,2.54,2.54,0,0,1,1.93-2.93,2.38,2.38,0,0,1,2.69,2.11A2.54,2.54,0,0,1,1220.69,356.33Z" class="cls-4"></path><path d="M1228.83,352.29a2.54,2.54,0,0,1,1.93-2.93,2.37,2.37,0,0,1,2.69,2.1,2.53,2.53,0,0,1-1.93,2.93A2.37,2.37,0,0,1,1228.83,352.29Z" class="cls-4"></path><path d="M1239.52,350.38a2.53,2.53,0,0,1,1.93-2.93,2.37,2.37,0,0,1,2.69,2.11,2.52,2.52,0,0,1-1.93,2.92A2.37,2.37,0,0,1,1239.52,350.38Z" class="cls-4"></path><path d="M1253,350.55a2.37,2.37,0,0,1-2.69-2.1,2.54,2.54,0,0,1,1.93-2.93,2.37,2.37,0,0,1,2.69,2.1A2.54,2.54,0,0,1,1253,350.55Z" class="cls-4"></path><path d="M1260.75,346.59a2.53,2.53,0,0,1,1.93-2.93,2.38,2.38,0,0,1,2.69,2.1,2.54,2.54,0,0,1-1.94,2.93A2.36,2.36,0,0,1,1260.75,346.59Z" class="cls-4"></path><path d="M1271.44,344.68a2.53,2.53,0,0,1,1.93-2.93,2.38,2.38,0,0,1,2.69,2.11,2.55,2.55,0,0,1-1.94,2.93A2.37,2.37,0,0,1,1271.44,344.68Z" class="cls-4"></path><path d="M1285,344.85a2.37,2.37,0,0,1-2.69-2.1,2.55,2.55,0,0,1,1.94-2.93,2.36,2.36,0,0,1,2.68,2.1A2.53,2.53,0,0,1,1285,344.85Z" class="cls-4"></path><path d="M1293.1,340.81a2.53,2.53,0,0,1,1.93-2.93,2.39,2.39,0,0,1,2.69,2.11,2.55,2.55,0,0,1-1.94,2.93A2.37,2.37,0,0,1,1293.1,340.81Z" class="cls-4"></path><path d="M1303.78,338.9a2.52,2.52,0,0,1,1.94-2.92,2.36,2.36,0,0,1,2.68,2.1,2.53,2.53,0,0,1-1.93,2.93A2.38,2.38,0,0,1,1303.78,338.9Z" class="cls-4"></path><path d="M1317.3,339.07a2.37,2.37,0,0,1-2.69-2.1,2.55,2.55,0,0,1,1.94-2.93,2.37,2.37,0,0,1,2.68,2.11A2.52,2.52,0,0,1,1317.3,339.07Z" class="cls-4"></path><path d="M1070.23,323.11a2.3,2.3,0,0,1-2.94-1.65,2.6,2.6,0,0,1,1.51-3.21,2.3,2.3,0,0,1,2.94,1.65A2.6,2.6,0,0,1,1070.23,323.11Z" class="cls-4"></path><path d="M1066.93,311.87a2.3,2.3,0,0,1-2.94-1.65,2.6,2.6,0,0,1,1.51-3.21,2.32,2.32,0,0,1,3,1.66A2.6,2.6,0,0,1,1066.93,311.87Z" class="cls-4"></path><path d="M1065.1,297.28a2.59,2.59,0,0,1-1.51,3.2,2.32,2.32,0,0,1-2.95-1.65,2.6,2.6,0,0,1,1.52-3.2A2.3,2.3,0,0,1,1065.1,297.28Z" class="cls-4"></path><path d="M1060.25,289.1a2.33,2.33,0,0,1-3-1.66,2.6,2.6,0,0,1,1.52-3.2,2.3,2.3,0,0,1,2.94,1.65A2.6,2.6,0,0,1,1060.25,289.1Z" class="cls-4"></path><path d="M1057,277.86a2.32,2.32,0,0,1-3-1.66,2.6,2.6,0,0,1,1.52-3.2,2.3,2.3,0,0,1,2.94,1.65A2.6,2.6,0,0,1,1057,277.86Z" class="cls-4"></path><path d="M1055.12,263.26a2.6,2.6,0,0,1-1.51,3.21,2.31,2.31,0,0,1-2.95-1.65,2.61,2.61,0,0,1,1.52-3.21A2.3,2.3,0,0,1,1055.12,263.26Z" class="cls-4"></path><path d="M1050.25,255.05a2.31,2.31,0,0,1-2.94-1.65,2.61,2.61,0,0,1,1.52-3.21,2.32,2.32,0,0,1,2.94,1.66A2.58,2.58,0,0,1,1050.25,255.05Z" class="cls-4"></path><path d="M1047,243.81a2.31,2.31,0,0,1-3-1.65,2.6,2.6,0,0,1,1.52-3.2,2.3,2.3,0,0,1,2.94,1.65A2.59,2.59,0,0,1,1047,243.81Z" class="cls-4"></path><path d="M1045.13,229.22a2.6,2.6,0,0,1-1.52,3.21,2.32,2.32,0,0,1-2.94-1.66,2.6,2.6,0,0,1,1.52-3.2A2.3,2.3,0,0,1,1045.13,229.22Z" class="cls-4"></path><path d="M1040.27,221a2.3,2.3,0,0,1-2.94-1.65,2.61,2.61,0,0,1,1.52-3.21,2.3,2.3,0,0,1,2.94,1.65A2.61,2.61,0,0,1,1040.27,221Z" class="cls-4"></path><path d="M1037,209.8a2.31,2.31,0,0,1-2.94-1.65,2.61,2.61,0,0,1,1.52-3.21,2.3,2.3,0,0,1,2.94,1.65A2.6,2.6,0,0,1,1037,209.8Z" class="cls-4"></path><path d="M1035.15,195.21a2.6,2.6,0,0,1-1.52,3.2,2.3,2.3,0,0,1-2.94-1.65,2.61,2.61,0,0,1,1.52-3.21A2.3,2.3,0,0,1,1035.15,195.21Z" class="cls-4"></path><path d="M1030.42,187.48a2.31,2.31,0,0,1-2.94-1.65,2.61,2.61,0,0,1,1.52-3.21,2.3,2.3,0,0,1,2.94,1.65A2.59,2.59,0,0,1,1030.42,187.48Z" class="cls-4"></path><path d="M1027.13,176.24a2.32,2.32,0,0,1-3-1.65,2.61,2.61,0,0,1,1.52-3.21,2.3,2.3,0,0,1,2.94,1.65A2.6,2.6,0,0,1,1027.13,176.24Z" class="cls-4"></path><path d="M1025.3,161.65a2.58,2.58,0,0,1-1.52,3.2,2.31,2.31,0,0,1-2.94-1.65,2.61,2.61,0,0,1,1.52-3.21A2.32,2.32,0,0,1,1025.3,161.65Z" class="cls-4"></path><path d="M1020.44,153.47a2.32,2.32,0,0,1-2.94-1.66,2.6,2.6,0,0,1,1.52-3.2,2.3,2.3,0,0,1,2.94,1.65A2.61,2.61,0,0,1,1020.44,153.47Z" class="cls-4"></path><path d="M1017.14,142.23a2.32,2.32,0,0,1-2.94-1.66,2.6,2.6,0,0,1,1.52-3.2,2.3,2.3,0,0,1,2.94,1.65A2.61,2.61,0,0,1,1017.14,142.23Z" class="cls-4"></path><path d="M1015.32,127.63a2.61,2.61,0,0,1-1.52,3.21,2.3,2.3,0,0,1-2.94-1.65,2.61,2.61,0,0,1,1.52-3.21A2.3,2.3,0,0,1,1015.32,127.63Z" class="cls-4"></path><path d="M804.81,244.27a2.7,2.7,0,0,1,.6-3.55,2.22,2.22,0,0,1,3.25.65,2.7,2.7,0,0,1-.59,3.55A2.22,2.22,0,0,1,804.81,244.27Z" class="cls-4"></path><path d="M813.73,237.57a2.7,2.7,0,0,1,.59-3.55,2.23,2.23,0,0,1,3.26.65,2.7,2.7,0,0,1-.6,3.55A2.22,2.22,0,0,1,813.73,237.57Z" class="cls-4"></path><path d="M826,231.42a2.22,2.22,0,0,1-3.25-.65,2.69,2.69,0,0,1,.59-3.54,2.22,2.22,0,0,1,3.26.65A2.69,2.69,0,0,1,826,231.42Z" class="cls-4"></path><path d="M831.79,224a2.68,2.68,0,0,1,.6-3.54,2.22,2.22,0,0,1,3.25.65,2.68,2.68,0,0,1-.6,3.54A2.22,2.22,0,0,1,831.79,224Z" class="cls-4"></path><path d="M840.7,217.28a2.71,2.71,0,0,1,.6-3.55,2.23,2.23,0,0,1,3.26.65,2.71,2.71,0,0,1-.6,3.55A2.23,2.23,0,0,1,840.7,217.28Z" class="cls-4"></path><path d="M853,211.14a2.22,2.22,0,0,1-3.25-.65,2.7,2.7,0,0,1,.59-3.55,2.23,2.23,0,0,1,3.26.65A2.7,2.7,0,0,1,853,211.14Z" class="cls-4"></path><path d="M858.79,203.68a2.7,2.7,0,0,1,.6-3.55,2.22,2.22,0,0,1,3.25.65,2.7,2.7,0,0,1-.59,3.55A2.22,2.22,0,0,1,858.79,203.68Z" class="cls-4"></path><path d="M867.71,197a2.7,2.7,0,0,1,.59-3.55,2.23,2.23,0,0,1,3.26.65,2.7,2.7,0,0,1-.6,3.55A2.22,2.22,0,0,1,867.71,197Z" class="cls-4"></path><path d="M880,190.84a2.22,2.22,0,0,1-3.25-.65,2.7,2.7,0,0,1,.59-3.55,2.22,2.22,0,0,1,3.26.65A2.7,2.7,0,0,1,880,190.84Z" class="cls-4"></path><path d="M885.77,183.4a2.7,2.7,0,0,1,.6-3.55,2.22,2.22,0,0,1,3.25.65,2.7,2.7,0,0,1-.59,3.55A2.22,2.22,0,0,1,885.77,183.4Z" class="cls-4"></path><path d="M894.68,176.69a2.7,2.7,0,0,1,.6-3.54,2.23,2.23,0,0,1,3.26.65,2.7,2.7,0,0,1-.6,3.54A2.23,2.23,0,0,1,894.68,176.69Z" class="cls-4"></path><path d="M907,170.55a2.22,2.22,0,0,1-3.25-.65,2.68,2.68,0,0,1,.59-3.54,2.23,2.23,0,0,1,3.26.65A2.69,2.69,0,0,1,907,170.55Z" class="cls-4"></path><path d="M912.39,163.38a2.68,2.68,0,0,1,.59-3.54,2.22,2.22,0,0,1,3.26.65,2.69,2.69,0,0,1-.6,3.54A2.22,2.22,0,0,1,912.39,163.38Z" class="cls-4"></path><path d="M921.3,156.68a2.7,2.7,0,0,1,.6-3.55,2.22,2.22,0,0,1,3.25.65,2.7,2.7,0,0,1-.59,3.55A2.23,2.23,0,0,1,921.3,156.68Z" class="cls-4"></path><path d="M933.59,150.54a2.23,2.23,0,0,1-3.26-.65,2.71,2.71,0,0,1,.6-3.55,2.23,2.23,0,0,1,3.26.65A2.71,2.71,0,0,1,933.59,150.54Z" class="cls-4"></path><path d="M939.36,143.1a2.71,2.71,0,0,1,.6-3.55,2.23,2.23,0,0,1,3.26.65,2.7,2.7,0,0,1-.6,3.55A2.23,2.23,0,0,1,939.36,143.1Z" class="cls-4"></path><path d="M948.28,136.4a2.7,2.7,0,0,1,.6-3.55,2.22,2.22,0,0,1,3.25.65,2.7,2.7,0,0,1-.59,3.55A2.23,2.23,0,0,1,948.28,136.4Z" class="cls-4"></path><path d="M960.57,130.25a2.23,2.23,0,0,1-3.26-.65,2.69,2.69,0,0,1,.6-3.54,2.22,2.22,0,0,1,3.25.65A2.68,2.68,0,0,1,960.57,130.25Z" class="cls-4"></path><path d="M1252.37,209.4a2.21,2.21,0,0,1,3.31.07,2.73,2.73,0,0,1-.07,3.61,2.21,2.21,0,0,1-3.31-.08A2.7,2.7,0,0,1,1252.37,209.4Z" class="cls-4"></path><path d="M1259.86,217.92a2.21,2.21,0,0,1,3.31.07,2.72,2.72,0,0,1-.07,3.61,2.21,2.21,0,0,1-3.31-.08A2.72,2.72,0,0,1,1259.86,217.92Z" class="cls-4"></path><path d="M1267.38,230.15a2.72,2.72,0,0,1,.07-3.6,2.2,2.2,0,0,1,3.31.08,2.69,2.69,0,0,1-.07,3.6A2.2,2.2,0,0,1,1267.38,230.15Z" class="cls-4"></path><path d="M1275.05,235.18a2.21,2.21,0,0,1,3.31.08,2.72,2.72,0,0,1-.07,3.6,2.21,2.21,0,0,1-3.31-.07A2.71,2.71,0,0,1,1275.05,235.18Z" class="cls-4"></path><path d="M1282.54,243.7a2.21,2.21,0,0,1,3.31.08,2.72,2.72,0,0,1-.07,3.6,2.21,2.21,0,0,1-3.31-.07A2.72,2.72,0,0,1,1282.54,243.7Z" class="cls-4"></path><path d="M1290.06,255.94a2.73,2.73,0,0,1,.07-3.61,2.21,2.21,0,0,1,3.31.08,2.71,2.71,0,0,1-.07,3.61A2.21,2.21,0,0,1,1290.06,255.94Z" class="cls-4"></path><path d="M1297.74,261a2.2,2.2,0,0,1,3.31.08,2.69,2.69,0,0,1-.07,3.6,2.2,2.2,0,0,1-3.31-.08A2.72,2.72,0,0,1,1297.74,261Z" class="cls-4"></path><path d="M1305.24,269.51a2.2,2.2,0,0,1,3.31.08,2.72,2.72,0,0,1-.07,3.6,2.2,2.2,0,0,1-3.31-.08A2.69,2.69,0,0,1,1305.24,269.51Z" class="cls-4"></path><path d="M1312.76,281.75a2.73,2.73,0,0,1,.07-3.61,2.21,2.21,0,0,1,3.31.08,2.72,2.72,0,0,1-.07,3.6A2.21,2.21,0,0,1,1312.76,281.75Z" class="cls-4"></path><path d="M1320.42,286.77a2.21,2.21,0,0,1,3.31.08,2.71,2.71,0,0,1-.07,3.61,2.21,2.21,0,0,1-3.31-.08A2.73,2.73,0,0,1,1320.42,286.77Z" class="cls-4"></path><path d="M1327.92,295.29a2.21,2.21,0,0,1,3.31.08,2.73,2.73,0,0,1-.07,3.61,2.21,2.21,0,0,1-3.31-.08A2.71,2.71,0,0,1,1327.92,295.29Z" class="cls-4"></path><path d="M1335.44,307.53a2.7,2.7,0,0,1,.07-3.6,2.21,2.21,0,0,1,3.31.07,2.73,2.73,0,0,1-.07,3.61A2.21,2.21,0,0,1,1335.44,307.53Z" class="cls-4"></path><ellipse ry="36.09" rx="33.13" cy="114.8" cx="1000.51" class="cls-4"></ellipse><path d="M989.88,100.32c0-6.4,4.76-11.58,10.63-11.58s10.63,5.18,10.63,11.58-4.76,11.58-10.63,11.58S989.88,106.72,989.88,100.32Z" class="cls-2"></path><path d="M1000.51,111.9c-10.28,0-18.61,9.08-18.61,20.27h37.22C1019.12,121,1010.79,111.9,1000.51,111.9Z" class="cls-2"></path><ellipse ry="55.61" rx="51.05" cy="178.46" cx="1230.04" class="cls-25"></ellipse><ellipse ry="17.85" rx="16.38" cy="156.15" cx="1230.04" class="cls-2"></ellipse><path d="M1230,174c-15.84,0-28.67,14-28.67,31.24h57.34C1258.71,188,1245.87,174,1230,174Z" class="cls-2"></path><ellipse ry="37.54" rx="34.46" cy="330.84" cx="1357.83" class="cls-4"></ellipse><path d="M1361.92,339.77a6.1,6.1,0,0,0-.28-2,4.31,4.31,0,0,0-1-1.6,7.48,7.48,0,0,0-1.73-1.35,19.46,19.46,0,0,0-2.6-1.22,49.43,49.43,0,0,1-4.8-2.2,16.4,16.4,0,0,1-3.68-2.63,10.39,10.39,0,0,1-2.35-3.43,12.72,12.72,0,0,1,0-8.89,9.83,9.83,0,0,1,2.22-3.32,11.1,11.1,0,0,1,3.4-2.26,14.12,14.12,0,0,1,4.42-1.07l.08-5.87,4.34.07-.08,6a13,13,0,0,1,4.21,1.41,10.64,10.64,0,0,1,3.19,2.69,11.48,11.48,0,0,1,2,3.86,16.06,16.06,0,0,1,.66,5l-7.84-.12a7.65,7.65,0,0,0-1.27-4.95,4.42,4.42,0,0,0-3.57-1.69,5.4,5.4,0,0,0-2.11.34,3.93,3.93,0,0,0-1.46,1,4,4,0,0,0-.86,1.51,6.34,6.34,0,0,0-.3,1.89,5.65,5.65,0,0,0,.25,1.84,4.16,4.16,0,0,0,.91,1.54,7.5,7.5,0,0,0,1.75,1.34,25.41,25.41,0,0,0,2.7,1.32c1.75.74,3.33,1.5,4.76,2.27a16.09,16.09,0,0,1,3.66,2.65,10.55,10.55,0,0,1,2.36,3.45,12.74,12.74,0,0,1,0,9,9.5,9.5,0,0,1-2.23,3.28,10.7,10.7,0,0,1-3.43,2.2,15.28,15.28,0,0,1-4.45,1l-.07,5.45-4.31-.06.07-5.44a16.66,16.66,0,0,1-4.33-1.13,11.51,11.51,0,0,1-3.7-2.44,11.23,11.23,0,0,1-2.55-3.95,14.72,14.72,0,0,1-.9-5.66l7.84.12a9.13,9.13,0,0,0,.45,3.26,5.56,5.56,0,0,0,1.32,2.11,4.68,4.68,0,0,0,1.89,1.12,7.36,7.36,0,0,0,2.18.35,6.19,6.19,0,0,0,2.24-.32,4.46,4.46,0,0,0,1.63-1,3.94,3.94,0,0,0,1-1.48A5.19,5.19,0,0,0,1361.92,339.77Z" class="cls-2"></path></g></g></svg>