<svg viewBox="0 0 1620 1028" xmlns="http://www.w3.org/2000/svg"><defs><style>.cls-1{fill:#e8f2fa;}.cls-2{fill:#cedfff;}.cls-3{opacity:0.8;}.cls-4{fill:#a9c2ff;}.cls-5{opacity:0.5;}.cls-6{fill:#b6cfff;}.cls-7{fill:#6b98f6;}.cls-8{fill:#f1f9ff;}.cls-9{fill:#25468f;}.cls-10{fill:#899bfa;}.cls-11{fill:#a8ccff;}.cls-12{fill:#ff912b;}.cls-13{fill:#ffae73;}.cls-14{fill:#667ee8;}.cls-15{fill:#074a92;}.cls-16{fill:#ffa051;}.cls-17{fill:#ff8a3a;}.cls-18{fill:#ffa05e;}.cls-19{fill:#0b3563;}.cls-20{fill:#0b4d87;}.cls-21{fill:#accefc;}.cls-22{fill:#1e3865;}.cls-23{fill:#fd801a;}.cls-24{fill:#9cafff;}.cls-25{fill:#122d4e;}.cls-26{fill:#f8caa4;}.cls-27{fill:#fff;}.cls-28{fill:#f48f4e;}.cls-29{fill:#fc7600;}.cls-30{fill:#f9924f;}.cls-31{fill:#9bd399;}</style></defs><g id="图层_2"><g id="图层_1-2"><path d="M143.66,1024.45S-130,817.5,78,621.36C299.49,412.53,103.29,144.45,403.9,36.28c325-116.94,408.62,89,544.67,57.4,271.38-63.08,615.6-32,558.32,274.39C1435,752.71,1730,703.65,1554.77,1025.73Z" class="cls-1"></path><path d="M948.57,401.17S994,230.67,1147.19,211.93c0,0,29.81-3.25,39.73,25.83s-49.34,29.28-86,41S978.91,340,948.57,401.17Z" class="cls-2"></path><path d="M945.09,369.27S929.17,228,1041,177.91c0,0,21.87-9.44,38.12,10.52s-29.09,33.95-53.68,51.46S950.14,315.32,945.09,369.27Z" class="cls-2"></path><g class="cls-3"><path d="M600.59,501.07s65.71-32.59,35-76.83c0,0-24.54-27.16-50.82-34.15,0,0,14,66,0,67.52s-9.64-74.5-9.64-74.5S506,353.62,478.81,356c0,0,42.93,64.41,28.91,62.86s-62.2-66.75-62.2-66.75-71-11.64-82.36,25.62,7,55.87,17.52,58.2,78,1.55,76.23,9.32-47.32,20.17-72.72,13.19c0,0,28,61.31,64.83,58.2s48.19-23.28,71-24.83,39.42,3.88,28,9.31-49.94,1.78-68.33,15.64-33.3,22.39.87,28.6,95.5,2.33,107.77-20.95Z" class="cls-4"></path><path d="M395.58,389.32s184,52.77,205,111.75c0,0-.87,26.39,17.52,56.66v11.64s-19.27-39.58-29.78-45C588.33,524.36,629.5,473.13,395.58,389.32Z" class="cls-4"></path><path d="M618.11,557.73s28.38,38.16,12.2,84.62l-7.3-1.73s7.09-51.18-7.76-76.91S618.11,557.73,618.11,557.73Z" class="cls-4"></path></g><g class="cls-5"><path d="M637.09,764.24s43-114.23-58.56-140.31c0,0-70-9.87-114.69,9.08,0,0,109.18,73,92.59,90.17s-115-89.12-115-89.12-132.87,35.09-165.95,67.43c0,0,145.67,39.82,124.82,52.83s-174.6-22.19-174.6-22.19S114.93,793,150.81,855,236.8,922,254,913.83,360.29,832,368.59,844.24s-35.5,77.86-79,95.87c0,0,121.52,51.7,166.4,8s32.42-82.94,60.71-109.53,58-37.24,50.21-17.73-64.25,56.12-69.82,94.42-13.75,65.72,40.4,37.25,130.72-99.66,115.16-144Z" class="cls-2"></path><path d="M210.06,835.62s318.07-127.51,427-71.38c0,0,37,40.23,15.55,44.29C652.64,808.53,637.39,695.82,210.06,835.62Z" class="cls-2"></path></g><path d="M1107.47,776.45s12.68-68.32,72.25-57.45c0,0,38.6,11.6,55.58,31.85,0,0-77.62,11.2-74.38,23.87s85.48-18,85.48-18,57,49.41,64,73.71c0,0-86.13-14.34-79.47-2.78s95.51,30.18,95.51,30.18,37.91,57.23.9,80.24-64,13.69-70.31,5.43-29.28-66.85-37.21-62.6-5.5,48,11.17,67.53c0,0-77.45-2.57-87-35.47s8.61-49.88,2.27-70.12-18.21-32.71-20.17-20.94,15.69,43.79,6.93,64.59-12.9,36.7-31.81,9.35-36.32-81.72-15-100.55Z" class="cls-6"></path><path d="M1303.05,914.16s-123.17-140.39-195.58-137.71c0,0-28.76,10.08-68.6,4.88L1026,785.44s50.42,2.67,60.12,9.84C1086.16,795.28,1128,741.58,1303.05,914.16Z" class="cls-6"></path><path d="M1038.87,781.33s-52.08-11-97.54,19.36l4.49,5.7s53.87-24.21,87.47-20.48S1038.87,781.33,1038.87,781.33Z" class="cls-6"></path><path d="M1084.32,493.49s-80.32-39.84-42.84-93.91c0,0,30-33.21,62.12-41.75,0,0-17.14,80.64,0,82.54s11.78-91.07,11.78-91.07,84.6-36.05,117.8-33.21c0,0-52.48,78.74-35.34,76.85s76-81.59,76-81.59,86.75-14.23,100.67,31.31-8.57,68.3-21.42,71.15-95.32,1.89-93.17,11.38,57.83,24.67,88.89,16.13c0,0-34.27,74.94-79.25,71.15s-58.91-28.46-86.75-30.36-48.2,4.74-34.27,11.38,61,2.18,83.53,19.12,40.7,27.37-1.07,35-116.73,2.84-131.73-25.62Z" class="cls-2"></path><path d="M1334.92,356.89s-224.9,64.51-250.6,136.6c0,0,1.07,32.26-21.42,69.26V577s23.56-48.38,36.41-55C1099.31,522,1049,459.34,1334.92,356.89Z" class="cls-2"></path><path d="M1062.9,562.75S1028.22,609.4,1048,666.19l8.92-2.12s-8.66-62.55,9.49-94S1062.9,562.75,1062.9,562.75Z" class="cls-2"></path><rect height="727.27" width="600.38" y="296.2" x="545.54" class="cls-7"></rect><rect height="687.61" width="549.21" y="315.82" x="571.12" class="cls-8"></rect><path d="M731.87,296.2V321c0,13.68,12.51,24.77,27.94,24.77H909.89c15.44,0,28-11.09,28-24.77V296.2Z" class="cls-9"></path><rect height="6.09" width="67.95" y="906.1" x="634.87" class="cls-4"></rect><rect height="6.09" width="67.95" y="906.1" x="718.56" class="cls-4"></rect><rect height="6.09" width="94.24" y="919.62" x="634.87" class="cls-4"></rect><rect height="3.37" width="295.07" y="458.46" x="690.61" class="cls-10"></rect><path d="M731.94,438.07c1.07.63,2.38,1.56,4.07,2.57,4.18,2.49,9.73,2.81,16.54,2.81a198.26,198.26,0,0,0,23.29-1.5c-.87,2.12-2.19,6-2.25,8.18-4.68.25-14.55.62-21.35.62-7.8,0-12.8-.75-17.24-3.25-2.49-1.37-4.62-3.25-5.93-3.25-1.93,0-4.93,3.88-7.55,7.63l-5.12-7.25a32.19,32.19,0,0,1,8.24-6.18V421H717V414.1h14.92Zm-2.87-29.47c-2.31-2.24-7.3-6.06-10.74-8.74l4.87-4.68c3.37,2.37,8.56,5.93,11.12,8.12Zm9.68,29.54a.8.8,0,0,0-.19.5,52.23,52.23,0,0,0-2.62-7.37c1.31-.38,2.37-1.5,3.62-3.25a61.75,61.75,0,0,0,5.81-11.3h-11v-6.93h40.09v6.93H754.36a93,93,0,0,1-7.74,13.36l15-1.18c-1.57-2.75-3.06-5.5-4.5-7.94l6.18-2.8c3.44,5.74,8.31,13.55,10.62,18.23l-6.68,3.43c-.57-1.31-1.31-2.87-2.13-4.55-20.85,2-24,2.37-26.41,3.37Zm31.66-35.22H738.56v-6.87h31.85Z" class="cls-10"></path><path d="M836.19,397.24v6.62H823.58v3h-7.43v-3H800.48v3h-7.31v-3h-12.3v-6.62h12.3v-4.31h7.31v4.31h15.67v-4.31h7.43v4.31ZM782.25,408.1h53V421h-7.18v-7.24h-39V421h-6.8Zm4.8,23.86h43.58v19.35H823.2v-1.75h-29v1.75h-7.12Zm38-15.8v13.55H792.3V416.16Zm-30.91,22.23v5.12h29v-5.12Zm23.54-17.3H799.23v3.75h18.48Z" class="cls-10"></path><path d="M862.76,441.82c-1.43-2.37-4-6-6.37-9.18-1.68,6.56-4.55,12.93-9.68,17.86a28.74,28.74,0,0,0-5.24-5.06c6.25-5.55,8.55-13.86,9.37-21.54H842v-7h9.24c.06-1.25.06-2.44.06-3.56v-4h-8.05v-6.87h8.05v-8.93h7.06v8.93h7.5v6.87h-7.5v3.93c0,1.19,0,2.38-.06,3.63h8.24v7h-8.68l-.12,1.13c2.5,2.43,8.55,9.67,10,11.42Zm29.66,2.31c1.5,0,1.88-1.75,2.06-9.24a18.84,18.84,0,0,0,5.81,2.56c-.63,9.49-1.75,12.3-7.87,12.3h-4.25c-4.93,0-6.93-1.5-6.93-6.87V437.2a35.75,35.75,0,0,1-14.73,13.86,22.84,22.84,0,0,0-4.62-5.24c15.92-8.25,17.67-20.54,17.67-30.1v-9.8h6.87v9.92a49,49,0,0,1-1.19,11h2.56v15.23c0,1.56.5,2.06,1.69,2.06Zm-16.67-15.36h-7V395.68h28.84v33.09h-7.43V402.05H875.75Z" class="cls-10"></path><path d="M925.86,434.58c3.81,2.93,9.31,7.31,11.93,10.11l-4.69,5.25c-2.37-2.87-7.67-7.43-11.61-10.68-2.31,4.68-6.37,8.93-13.17,12a22.91,22.91,0,0,0-4.5-5.62c12.55-5.56,13.8-13.92,13.8-21.73V406h7v18.11c0,4.62-.56,9.86-2.87,14.61Zm-12.05-.44h-6.87v-38.4h29v38.09H928.8V402.42h-15Zm34,2.69h-6.93V398.61h6.93Zm12.11-43.21v48.14c0,4.37-.93,6.37-3.5,7.68s-6.62,1.43-12.36,1.37a28.88,28.88,0,0,0-2.62-7.68c4.06.19,8.18.19,9.43.19s1.68-.44,1.68-1.62V393.62Z" class="cls-10"></path><path d="M1065.4,571.34H966.07v-88h99.33Zm-94.65-4.15h90v-79.7h-90Z" class="cls-11"></path><path d="M1018.2,553.65a7.43,7.43,0,0,1-5.41-2.25l-30.65-32.85a5.74,5.74,0,0,1,.94-8.75,7.65,7.65,0,0,1,9.88.83l24.31,26,44-65.38a7.56,7.56,0,0,1,9.63-2.16c3.32,1.76,4.42,5.57,2.43,8.52l-49.07,73a7.16,7.16,0,0,1-5.49,3A4.87,4.87,0,0,1,1018.2,553.65Z" class="cls-12"></path><rect height="8.58" width="220.67" y="496.34" x="668.75" class="cls-4"></rect><rect height="8.58" width="203.37" y="534.68" x="668.75" class="cls-4"></rect><rect height="8.58" width="60.15" y="515.51" x="829.26" class="cls-4"></rect><rect height="8.58" width="143.85" y="515.51" x="668.75" class="cls-4"></rect><path d="M619.35,504l-9.88,2.43-2-6.94,14.73-4.17h6.74v48.93h-9.56Z" class="cls-4"></path><path d="M635.22,541.17a3.51,3.51,0,1,1,3.48,3.09A3.31,3.31,0,0,1,635.22,541.17Z" class="cls-4"></path><path d="M1066.17,702.78H966.84v-88h99.33Zm-94.65-4.15h90v-79.7h-90Z" class="cls-11"></path><path d="M1019,685.09a7.43,7.43,0,0,1-5.41-2.25L982.91,650a5.74,5.74,0,0,1,.94-8.75,7.65,7.65,0,0,1,9.88.83l24.31,26,44-65.38a7.56,7.56,0,0,1,9.63-2.16c3.33,1.76,4.42,5.57,2.43,8.52l-49.07,73a7.16,7.16,0,0,1-5.49,3A4.87,4.87,0,0,1,1019,685.09Z" class="cls-12"></path><path d="M607,669l18.75-14.13c7.47-5.58,10.19-8.68,10.19-13,0-4.76-3.81-7.52-8.79-7.52s-8.4,2.42-12.6,7.24l-6.77-4.69c5.21-6.47,10.35-10.13,20.07-10.13,10.66,0,18,5.79,18,14.54,0,7.59-4.59,11.65-14.15,18.68l-11.21,8.27h25.91v7.45H607Z" class="cls-4"></path><path d="M652.86,672.64a3.49,3.49,0,1,1,3.46,3.07A3.28,3.28,0,0,1,652.86,672.64Z" class="cls-4"></path><rect height="8.58" width="231.88" y="627.78" x="670.57" class="cls-4"></rect><rect height="8.58" width="213.7" y="666.12" x="670.57" class="cls-4"></rect><rect height="8.58" width="63.21" y="646.95" x="839.24" class="cls-4"></rect><rect height="8.58" width="151.16" y="646.95" x="670.57" class="cls-4"></rect><path d="M1066.17,835.19H966.84v-88h99.33ZM971.52,831h90v-79.7h-90Z" class="cls-11"></path><path d="M1019,817.5a7.43,7.43,0,0,1-5.41-2.25L982.91,782.4a5.74,5.74,0,0,1,.94-8.75,7.65,7.65,0,0,1,9.88.83l24.31,26,44-65.38a7.56,7.56,0,0,1,9.63-2.16c3.33,1.76,4.42,5.57,2.43,8.52l-49.07,73a7.16,7.16,0,0,1-5.49,3A4.87,4.87,0,0,1,1019,817.5Z" class="cls-12"></path><rect height="8.58" width="231.88" y="760.19" x="670.57" class="cls-4"></rect><rect height="8.58" width="213.7" y="798.53" x="670.57" class="cls-4"></rect><rect height="8.58" width="63.21" y="779.36" x="839.24" class="cls-4"></rect><rect height="8.58" width="151.16" y="779.36" x="670.57" class="cls-4"></rect><path d="M606.32,799.36l6.55-5.39c3.81,4,8.07,6.2,14,6.2,5.25,0,9.21-2.83,9.21-7.28,0-4.65-4.8-7.28-12.26-7.28h-4.34l-1.52-5.2,14.39-13.55H609.29v-7.22h35.25v6.21L629.7,779.33c8.45,1.08,15.68,4.93,15.68,13.42,0,8.7-7.61,14.91-18.65,14.91C617.44,807.66,610.81,804.22,606.32,799.36Z" class="cls-4"></path><path d="M648.06,804.66a3.42,3.42,0,1,1,3.39,3A3.22,3.22,0,0,1,648.06,804.66Z" class="cls-4"></path><path d="M886.16,925.56c-19.93,0-37.29-12.54-41.28-29.8a2.58,2.58,0,0,1,2.25-3,2.91,2.91,0,0,1,3.41,2c3.44,14.9,18.42,25.71,35.62,25.71,17,0,32-10.68,35.54-25.41a2.91,2.91,0,0,1,3.43-2,2.59,2.59,0,0,1,2.22,3C923.21,913.17,905.89,925.56,886.16,925.56Z" class="cls-4"></path><path d="M847.63,884.15a3.51,3.51,0,0,1-.55,0,2.59,2.59,0,0,1-2.28-3c3.82-17.49,21.21-30.18,41.36-30.18,19.35,0,36.15,11.6,40.86,28.2a2.56,2.56,0,0,1-2.1,3.11,2.94,2.94,0,0,1-3.5-1.86C917.36,866,902.86,856,886.16,856c-17.39,0-32.4,11-35.7,26.05A2.82,2.82,0,0,1,847.63,884.15Z" class="cls-4"></path><path d="M886.16,941.29c-33,0-59.89-23.8-59.89-53s26.86-53,59.89-53S946,859,946,888.24,919.18,941.29,886.16,941.29Zm0-98.84c-28.5,0-51.69,20.54-51.69,45.79S857.66,934,886.16,934s51.68-20.54,51.68-45.78S914.66,842.45,886.16,842.45Z" class="cls-4"></path><rect height="3.36" width="23.72" y="881.59" x="874.3" class="cls-4"></rect><rect height="3.36" width="23.72" y="895.35" x="874.3" class="cls-4"></rect><rect height="3.36" width="34.91" y="888.24" x="868.7" class="cls-4"></rect><path d="M497.62,660.11s1.86-3.72,3.07-5.48,6.37-6.91,7.25-5.75,4.39,9,2.52,11.23.12,6-9.16,8.34Z" class="cls-13"></path><path d="M394.43,636.64S442,671.79,460.5,668.53c14.49-2.54,36.73-9.3,36.73-9.3l4.45,10.08s-19.95,24-40.74,24.13c-32.51.24-56.53-12.47-56.53-12.47Z" class="cls-14"></path><path d="M311.07,1007.35s1.38,19.72,5.69,20c.57,0,21.84,0,21.84,0l27.15-.14s-.18-5.8-8.11-7-21.22-6.17-26-15.46C326.55,995,311.07,1007.35,311.07,1007.35Z" class="cls-15"></path><path d="M309.51,1008.72s8.25,2.44,14.7,2.44a60.6,60.6,0,0,0,13.72-1.73s1.55-13.31,10.1-42.64c4.48-15.37,10.89-35.14,20-59.7,25.19-67.88,32.85-107.58,33.54-111.34l.06-.3-.09,0L324.11,765.3s9.57,93.55-2.64,129.46A137.45,137.45,0,0,0,317,912C309.33,951,309.51,1008.72,309.51,1008.72Z" class="cls-16"></path><path d="M348,966.79c4.48-15.37,10.89-35.14,20-59.7,25.19-67.88,32.85-107.58,33.54-111.34a1.76,1.76,0,0,0,0-.33L324.11,765.3s9.57,93.55-2.64,129.46C319.76,899.78,348,966.79,348,966.79Z" class="cls-17"></path><path d="M371.54,1007.35s1.38,19.72,5.69,20c.57,0,21.84,0,21.84,0l27.15-.14s-.18-5.8-8.11-7-21.22-6.17-26-15.46C387,995,371.54,1007.35,371.54,1007.35Z" class="cls-15"></path><path d="M415.44,767.51s1,60.62-10.83,135-7.83,106-7.83,106-8.14,2.34-11.42,2.57a58,58,0,0,1-16.94-1.73S351.47,935,356.33,897.71s-23.21-127.84-23.21-127.84Z" class="cls-16"></path><path d="M360.54,625.64l15.11,8.78L389.42,631c2.52-3.17,3.18-9.3,3.22-14.62a79.82,79.82,0,0,0-.54-9.73l-20.39-8-7.61-3c0,.1.59,5.53.68,6.32C366.2,616.08,360.54,625.64,360.54,625.64Z" class="cls-13"></path><path d="M415.79,784.36c-18.81,16.09-90,13.38-94.39-4.34s4.78-150.9,36.92-159.26c6.66-1.74,42.31,8.47,42.31,8.47a182.18,182.18,0,0,1,9.26,29.46c.72,3.22,2.79,37.25,4.35,69.08.72,14.89,1.34,29.31,1.65,39.86C416.18,777.52,416.19,784,415.79,784.36Z" class="cls-10"></path><path d="M366.3,602.25c4.14,6.2,18.65,11.62,26.34,14.1a79.82,79.82,0,0,0-.54-9.73l-20.39-8C367.2,598.59,364.46,599.49,366.3,602.25Z" class="cls-18"></path><path d="M399.79,605.52s-32.85,9.08-38.92-9.13-14.39-29.31,6.33-35.87,27.12-.69,30.82,5S408.18,602.69,399.79,605.52Z" class="cls-13"></path><path d="M396.73,563.72s-2.1,21.19-7,20.27-10.4-2.89-9.67,3.5-4.81,17.34-11.95,17.31c-15.3,0-31.92-34.83-27.73-41.43C352.42,544.35,414.2,540.51,396.73,563.72Z" class="cls-19"></path><path d="M391.9,621.22c-.43-.16-24.46-9.71-27.27-8.89s-6.32,8.43-6.32,8.43l42.32,8.47S397.3,623.23,391.9,621.22Z" class="cls-14"></path><path d="M541.52,724.35,406.8,836.71c-2.64,2.2-6,2.9-7.4,1.56L394.85,834c-1.43-1.34-.44-4.25,2.2-6.45L531.78,715.18c2.64-2.2,6-2.9,7.4-1.56l4.54,4.28C545.15,719.25,544.16,722.15,541.52,724.35Z" class="cls-20"></path><path d="M465.92,787.4,406.8,836.71c-2.64,2.2-6,2.9-7.4,1.56L394.85,834c-1.43-1.34-.44-4.25,2.2-6.45l59.12-49.3Z" class="cls-7"></path><path d="M510.55,681.93a92.24,92.24,0,0,0,28.66,40.83c42.48,35.39,109.31,33.59,149.27-4,39.43-37.14,38-95.26-2.9-130.8-.54-.48-1.1-.95-1.66-1.42-42.47-35.39-109.29-33.6-149.25,4C507.79,615.84,499.9,650.91,510.55,681.93Zm30.19-86.33c23.25-21.9,56.39-30.62,87.5-25.85a101.94,101.94,0,0,1,50,22.14c39.12,32.6,41,87.12,4.19,121.78a100.45,100.45,0,0,1-48.34,24.79c-30.74,6.44-64.41-.47-89.13-21.08C505.8,684.78,503.92,630.26,540.74,595.6Z" class="cls-20"></path><g class="cls-5"><path d="M682.4,713.67a100.45,100.45,0,0,1-48.34,24.79c-30.74,6.44-64.42-.48-89.14-21.08-39.12-32.6-41-87.12-4.19-121.78,23.26-21.9,56.4-30.62,87.51-25.85a102,102,0,0,1,50,22.14C717.33,624.49,719.21,679,682.4,713.67Z" class="cls-21"></path></g><path d="M415.89,767.63c-74.23-46.86-68.06-109.38-68.06-109.38,27.13,13.55,54.06,43.53,66.41,69.52C415,742.66,415.58,757.08,415.89,767.63Z" class="cls-14"></path><path d="M489.16,746.29a20.59,20.59,0,0,0,9.48-5.19s2.23.14-.37,4.36c-.21.35-.7,1.26-1.06,1.9-.15.26.06.56.39.59,3,.2,6-.86,11.87.22.81.14,1,1.85,1,2.57a6.07,6.07,0,0,1-1.56,4.5c-.94,1.09-3.56,2.27-9.38,4.35-2.22.79-8.57.19-14.52-1.62l-4.75-2,1.47-7.82,1.2.22C484.83,748.77,487.18,746.72,489.16,746.29Z" class="cls-13"></path><path d="M370.87,629.23s-66.7,11.25,19.62,96.81c13.81,13.69,88.4,31.5,88.4,31.5s7.57-5.7,3.75-10.31c0,0-51.36-33-62.66-38.29-5.08-2.37-19.73-52.73-28-64.86A37.53,37.53,0,0,0,370.87,629.23Z" class="cls-10"></path><path d="M499.42,661.15a28.16,28.16,0,0,0,2.61-5.64c.43-2,3.17-7.63,4.31-8.64.45-.4,1.94.12,2.12,1.84a9.07,9.07,0,0,1-1.07,3.74c-1.19,2.65-1,6.23-1.41,7.43C504.94,662.85,499.42,661.15,499.42,661.15Z" class="cls-13"></path><path d="M719.72,999.48a20.77,20.77,0,0,0,.21,3,22.42,22.42,0,0,0,3.13,8.69,24.81,24.81,0,0,0,4.72,5.58,29.34,29.34,0,0,0,19.46,7.14h387c15.19,0,27.52-10.92,27.52-24.38a23,23,0,0,0-8.06-17.24,29.32,29.32,0,0,0-19.46-7.14h-387C732,975.1,719.72,986,719.72,999.48Z" class="cls-9"></path><path d="M749.24,970.69H881.93a4,4,0,0,0,4.23-3.74h0a4,4,0,0,0-4.23-3.74H749.24A4,4,0,0,0,745,967h0A4,4,0,0,0,749.24,970.69Z" class="cls-9"></path><rect transform="translate(1527.52 1945.79) rotate(180)" height="4.41" width="14.38" y="970.69" x="756.57" class="cls-22"></rect><path d="M723.06,1011.14a24.81,24.81,0,0,0,4.72,5.58,29.34,29.34,0,0,0,19.46,7.14h82v-12.72Z" class="cls-22"></path><path d="M1213,992.34v14.28a15.46,15.46,0,0,1-.68,4.52c-2.24,7.33-9.8,12.72-18.78,12.72H790.41c-9,0-16.54-5.39-18.78-12.72a15.45,15.45,0,0,1-.67-4.52V992.34c0-9.52,8.7-17.24,19.45-17.24h403.13C1204.29,975.1,1213,982.82,1213,992.34Z" class="cls-12"></path><path d="M1212.32,1011.14c-2.24,7.33-9.8,12.72-18.78,12.72H790.41c-9,0-16.54-5.39-18.78-12.72Z" class="cls-23"></path><path d="M1173,999.57a25.46,25.46,0,0,0,8,18.82l.33.3a20.81,20.81,0,0,0,13.81,5.34c8.16,0,28.39-10.91,40.92-18.15,6.25-3.61,10.59-6.31,10.59-6.31s-4.34-2.7-10.59-6.31c-12.53-7.25-32.76-18.16-40.92-18.16a20.36,20.36,0,0,0-6.77,1.16,22,22,0,0,0-9.34,6.53,25.36,25.36,0,0,0-5.6,11.93.77.77,0,0,0,0,.15A26.85,26.85,0,0,0,1173,999.57Z" class="cls-10"></path><path d="M1173,999.57a25.46,25.46,0,0,0,8,18.82l62-18.91-69.64-4.61A26.85,26.85,0,0,0,1173,999.57Z" class="cls-14"></path><path d="M1179,982.79l61.9,15-52.56-21.5A22,22,0,0,0,1179,982.79Z" class="cls-24"></path><path d="M1232,999.57a6.69,6.69,0,0,0,4,6.31c6.25-3.61,10.59-6.31,10.59-6.31s-4.34-2.7-10.59-6.31A6.67,6.67,0,0,0,1232,999.57Z" class="cls-25"></path><path d="M1341.76,553.9c-10.25-4.71-18.46-1.75-18.46-1.75-31.37-3.26-40.52,29.14-40.1,40.29s1.87,23.13-12.14,37.61c-40.47,41.84,44.28,43.69,44.28,43.69.71-33.43,46-21.23,44-17.85C1417.3,668.22,1365.08,564.62,1341.76,553.9Z" class="cls-19"></path><path d="M1220.77,686.58s-5.52-7.44-10-7.59-12.67-2.19-12-.73,5.77,1.61,6.26,2.48-7.57,2.19-9.88,2.34-7.74,0-7.57,1,9.79,5.25,16.59,4.66,15.19,1.75,15.19,1.75Z" class="cls-13"></path><path d="M1300.54,689a72.81,72.81,0,0,1-8.44,11.3c-6.55,7.28-16.66,15.68-29.35,17.34a35.15,35.15,0,0,1-17.43-2.51h0c-15.42-6.06-27-20-27-20a10.27,10.27,0,0,1,1.72-11s31.12,6.2,34.09,4.88,21.18-37.12,24.47-43.08c7-12.68,18-16.32,18-16.32Z" class="cls-16"></path><path d="M1292.1,700.28c-6.55,7.28-16.66,15.68-29.35,17.34a35.15,35.15,0,0,1-17.43-2.51c.6.07,16,1.75,22.13-8,6.25-9.92,13-25.67,22.32-20.42C1293.78,689,1293.6,694.62,1292.1,700.28Z" class="cls-17"></path><path d="M1416.64,986.54s9.5,7.68,7.65,13.14-10.43,9.09-11.58,15.75-5.79,10.3-10,10.3h-19.88s-3.07-4.69,4.34-6.1,10.21-9.25,9.75-16.52a113,113,0,0,1,.69-17l15.75-3.23Z" class="cls-15"></path><path d="M1336.27,989.8s3.42,32.52-.75,34.34l-53.35-.1s0-5.45,8.57-6.66,23.62-5.66,26.17-15.56S1336.27,989.8,1336.27,989.8Z" class="cls-15"></path><path d="M1377.31,667.05a165.71,165.71,0,0,1,0,21.84c-.53,7.9-9.55,18.48-10.83,21.1-3.21,6.56-6.83,7.63-6.83,7.63l-28,6.08-9.85,2.13-31.06-8.21s-14.15-35-8.47-54.67a141.94,141.94,0,0,1,14.36-33.37s21.06-7.36,58.35-1.86Z" class="cls-16"></path><path d="M1369.11,692.12c-.53,7.89-1.35,15.25-2.63,17.87-3.21,6.56-6.83,7.63-6.83,7.63l-28,6.08-12.17-3.17s40.62-5.45,36.12-36.4Z" class="cls-26"></path><path d="M1292.71,722.93s-15.39,42.41-16.37,56.85,29.4,205.12,30.62,211.77c1.15,6.28,10,10.27,10,10.27a14.75,14.75,0,0,0,9.81.67c8-2,10.54-4.4,10.54-4.4s12-136,4.56-184.57a682,682,0,0,1-7.49-90.59Z" class="cls-14"></path><path d="M1357.88,721.66s23.46,27.89,25.65,46.74,3.43,85.07,8.09,103.45,21.78,53.74,21.78,111.06c0,0-1.78,3.28-7.27,5a65.34,65.34,0,0,1-6.4,1.57,10.51,10.51,0,0,1-11.25-4.73c-11.58-20.64-48.45-87.23-50.34-101-1.34-9.78-13-74.52-38.38-112.51-6.09-9.12,3.74-45.39,3.74-45.39Z" class="cls-10"></path><path d="M1290.25,716.38s6.17,4.33,18.44,4.54c14.65.27,51-3.3,51-3.3a23.75,23.75,0,0,1,1.55,8.2s-44.34,9.91-70,1.45C1291.16,727.27,1287.85,721.75,1290.25,716.38Z" class="cls-22"></path><path d="M1305.18,732.11a6.71,6.71,0,1,1,6.68-6.7A6.7,6.7,0,0,1,1305.18,732.11Zm0-11.44a4.75,4.75,0,1,0,4.47,4.74A4.61,4.61,0,0,0,1305.18,720.67Z" class="cls-27"></path><path d="M1402.68,727.69l-36,27.77a6.81,6.81,0,0,1-8.81-.54l-45.95-46.74a5.11,5.11,0,0,1,.61-7.81l36-27.77a6.81,6.81,0,0,1,8.81.54l46,46.74A5.11,5.11,0,0,1,1402.68,727.69Z" class="cls-9"></path><path d="M1349.41,724.18c-.52.12-19.13,2.06-19.14,5.46,0,3.94,5.46,9.22,10.6,9,2.09-.1,11.69-7.92,11.69-7.92Z" class="cls-13"></path><path d="M1339.85,625.92c-2.12-4.55-3.36-11.48-3.32-20.06l-1.41.24-23.65,4.15s.54,6.59.56,12.8v.16c0,5.39-4.12,10.8,5.65,12.94C1320.7,636.81,1344.29,635.47,1339.85,625.92Z" class="cls-13"></path><path d="M1311.47,610.25s.54,6.59.56,12.8c13.23-.33,20.22-11,23.09-16.95Z" class="cls-28"></path><path d="M1307.05,616.13s31.31.46,31.33-16.82,4.08-28.85-15.91-29.87S1298.59,575,1297,580.77,1298.91,615.57,1307.05,616.13Z" class="cls-13"></path><path d="M1308.21,569s8.57,20.26,21.73,23.26,18.86-.12,18.86-.12-10.09-7.11-12.18-19.5C1336.62,572.66,1314.68,559.37,1308.21,569Z" class="cls-19"></path><path d="M1310.34,570.66s-6.36,2.11-9,6.21a25.55,25.55,0,0,0-4.23,15.86s-6.46-13.77.8-21.56C1305.63,562.9,1310.34,570.66,1310.34,570.66Z" class="cls-19"></path><path d="M1349.41,724.18s-4.47-1.27-7.45-.9-5.19,0-5.19.69,3.85,1.08,4.67,1.44S1349.41,724.18,1349.41,724.18Z" class="cls-13"></path><path d="M1355,627.72s22.22,1.38,30.74,19.73,24.69,49.14,24.69,54.32-9,21.16-57.52,30.34c0,0-5-4.67-4.71-8.37,0,0,30.27-23,30.18-25.72-.15-5.09-5-11.81-31.53-35.36C1339.59,656.26,1355,627.72,1355,627.72Z" class="cls-16"></path><path d="M602.8,82.35s-17.83-2.67-29.13,4.9-13.12,5.12-19.5,9.79.15,10.24-3.36,13.35-3.66,9.13,1.56,10.68,1.7,10,13,11.13,6.24,5.75,17,6.45,19.59,1,25.24,3.13,10.77-.07,12.39-3.88,6.13,1.11,7.45-4.11-3.39-7.26-.75-11.49S635.83,88,602.8,82.35Z" class="cls-22"></path><path d="M633.64,385.5a3.56,3.56,0,0,0-.75,4.18v0c1.16,2.77,4.94,5.85,9.32,8.93.56.39,1.06.75,1.5,1.09l.33.26.26.2c4.09,3.3,2.57,4.07,9.93,10.76,8.39,7.63,14.13,7.73,15.75,7,1.38-.61-1.46-4.66-4.6-9.22l-.46-.66-1.25-1.83c-3.69-5.49-2.77-8.08-2-16.28.65-6.67,11.41-37.29,11.41-37.29l-16-2.34s-4.61,24.36-9.88,28.14c-2.81,2-6,2.06-8.69,3.56-.2.1-.38.21-.57.32A20.64,20.64,0,0,0,633.64,385.5Z" class="cls-13"></path><path d="M633.64,385.5a3.56,3.56,0,0,0-.75,4.18v0c1.41,2.77,5.1,5.84,9.34,8.9.55.4,1,.77,1.48,1.12l.33.26.26.2c4.09,3.3,2.57,4.07,9.93,10.76,8.39,7.63,14.13,7.73,15.75,7,1.38-.61-1.46-4.66-4.6-9.22a35.86,35.86,0,0,1-14.93-9.6c-5.06-5.64-8.47-12.9-11.91-17.1-.2.1-.38.21-.57.32A20.64,20.64,0,0,0,633.64,385.5Z" class="cls-22"></path><path d="M762.3,375.86c1,4.36,8,3.59,15.87,1.84s6,.28,17.14-.88,14.52-4.88,14.85-6.35c.29-1.31-5.23-1.73-11.15-2.3l-2.25-.22c-6.69-.7-11.61-4.49-17.71-7.59-5.77-2.94-14.45-15-14.45-15l-15.31,1.17s8.13,10.76,11.27,15.44c1.85,2.76,1.79,6.42,1.58,9.24A15.06,15.06,0,0,0,762.3,375.86Z" class="cls-13"></path><path d="M778.17,377.7c7.83-1.75,6,.28,17.14-.88s14.52-4.88,14.85-6.35c.29-1.31-5.23-1.73-11.15-2.3l-.06.1a34.14,34.14,0,0,1-16,4.51c-7.58.21-15.62-1.67-20.85-1.56a15.06,15.06,0,0,0,.16,4.64C763.32,380.22,770.33,379.45,778.17,377.7Z" class="cls-22"></path><path d="M702.9,289.47l-14,34.22-18.34,44.68a34,34,0,0,1-9.94-.74,45.81,45.81,0,0,1-9.64-4.08s4.81-47.88,14.28-75.41c2.42-7.07,5.16-12.79,8.2-16C688.31,256.31,702.9,289.47,702.9,289.47Z" class="cls-29"></path><path d="M687.91,235.36c-9.4-2.62-36.13,1-63,5.81L619.25,233l-58.08-3.66S543,265,553,291c1.94,5.05,11.24,5.23,11.24,5.23s34,.33,45.25.26c28.87-.18,61-18,65.12-18.72,6.82-1.25,9.64,10.82,16.57,23.47s64.59,55.82,64.59,55.82,8.82,0,12.45-1.21c3.9-1.33,5.32-3,5.32-3S709.12,241.27,687.91,235.36Z" class="cls-12"></path><path d="M601,153.7c.09.05-10.15,3.21-17,.57-6.47-2.49-11.44-11.87-11.34-11.87,2.93-.14,6.14-2.44,8.5-17.37l1.26.39L603.41,132s-1.47,6-2.41,11.68C600.21,148.45,599.8,153,601,153.7Z" class="cls-13"></path><path d="M603.41,132s-.89,4.19-2.14,10.18c-12.09-1.85-17.19-11-18.93-16.75Z" class="cls-30"></path><path d="M606.59,137.9s-28.79-3.24-26.24-19.1.56-26.94,19-25.54,21.08,7.89,21.68,13.37S614.15,138.33,606.59,137.9Z" class="cls-13"></path><path d="M620,98s-18.31,14.17-30.82,15.38S571.86,111,571.86,111a44.43,44.43,0,0,0,11.71-14.27,8.79,8.79,0,0,1,7.23-4.64C599.74,91.37,616.69,91,620,98Z" class="cls-22"></path><path d="M608.45,96.77s6.2,5.24,8.17,9.14,2.53,12.79,1.07,16.39c0,0,9.47-16.59,4-24.59C615.83,89.23,608.45,96.77,608.45,96.77Z" class="cls-22"></path><path d="M625.47,191.08c-.46,51.59.09,40.8-6.24,45.74-1.53,1.19-5.84,1.92-11.51,2.28-17.85,1.16-49.26-1.25-50.47-4.16-4.2-10.09-1.32-13.25-4.88-28.71-.37-1.65-.83-3.43-1.36-5.36-3-10.62-5.77-14.22,4.26-31.37,9.09-15.53,18.57-28.15,19.43-27.71,24.42,12.64,26.3,1.88,26.3,1.88S625.7,165.92,625.47,191.08Z" class="cls-10"></path><path d="M688.86,323.69l-18.34,44.68a34,34,0,0,1-9.94-.74,45.81,45.81,0,0,1-9.64-4.08s4.81-47.88,14.28-75.41Z" class="cls-12"></path><path d="M601,143.67s25,3.6,28.07,13.12,20.75,65.52,20.75,65.52-12.71,2.11-18.63-3.06-20.83-48.17-20.83-48.17Z" class="cls-10"></path><path d="M607.72,239.1c-17.85,1.16-49.26-1.25-50.47-4.16-4.2-10.09-1.32-13.25-4.88-28.71l8.44-21.54s-1.23,23.93,6.78,30.18,32.7,11.94,36.62,17.17A18.22,18.22,0,0,1,607.72,239.1Z" class="cls-14"></path><path d="M587.18,229.17s17.59-3.58,20.44-2.22,9.84,6.37,10.72,8.12-6.33-1.29-8.68-1.84c-1.52-.35-5.5.91-7.47,1.5-8.29,2.51-13.4,1.28-13.4,1.28Z" class="cls-13"></path><path d="M574.69,141.78s-23.65,1.44-31.75,11.61c-11.42,14.31-33.8,75.14-20.63,83.15,14.83,9,67.18,2,67.18,2s1.69-7.23-.76-10.71S546.8,218.93,545,217.32s22.5-31.57,22.46-36.41S574.69,141.78,574.69,141.78Z" class="cls-10"></path><path d="M608.51,231.29s3.72,4.19,4.94,4.69a4,4,0,0,0,2,.37l-2.52-3.95Z" class="cls-13"></path><path d="M607.62,227l10.77,4.55a2,2,0,0,1-1.77.62A27.7,27.7,0,0,1,612,231Z" class="cls-13"></path><polygon points="611.15 242.79 696.03 242.26 721.12 185.85 636.37 186.38 611.15 242.79" class="cls-22"></polygon><polygon points="697.01 240.06 584.92 240.76 584.94 242.95 696.03 242.26 697.01 240.06" class="cls-22"></polygon><path d="M674.38,214.27c.63-2-.68-3.58-2.91-3.57a5.72,5.72,0,0,0-5.17,3.62c-.62,2,.68,3.57,2.91,3.56A5.7,5.7,0,0,0,674.38,214.27Z" class="cls-1"></path><path d="M179.39,1023.68h62c3.32-2.5-2.3-8.16-8.17-8.54a40.57,40.57,0,0,0-9.45,1c-.86-10-5.72-55.11-24.07-53.3-20.63,2,0,19.85,5.83,30.41,4.32,7.81,8.88,19,11,24.31-1.67.33-3.41.64-5.18.93-2.73-7.44-12.91-32.45-25.84-31-15.19,1.7-9.09,11.73,1.68,17.69,7.9,4.37,17.6,10.6,22.2,13.6a72.94,72.94,0,0,1-12.11.86C186.58,1019.42,181.4,1022.19,179.39,1023.68Z" class="cls-31"></path><path d="M1520.06,1023.55h-68.53c-3.68-2.76,2.54-9,9-9.45a45,45,0,0,1,10.46,1.1c.94-11.1,6.33-61,26.63-59,22.82,2.24,0,22-6.45,33.64-4.78,8.65-9.82,21-12.13,26.91,1.85.35,3.77.7,5.73,1,3-8.23,14.28-35.9,28.6-34.29,16.8,1.89,10,13-1.86,19.57-8.74,4.84-19.47,11.73-24.57,15a80.78,80.78,0,0,0,13.4,1C1512.11,1018.84,1517.84,1021.9,1520.06,1023.55Z" class="cls-31"></path><path d="M75.8,1023.47H1617.73a2.27,2.27,0,0,1,2.27,2.27v0a2.26,2.26,0,0,1-2.26,2.26H75.8a2.26,2.26,0,0,1-2.26-2.26v0a2.27,2.27,0,0,1,2.27-2.27Z" class="cls-22"></path></g></g></svg>