<svg viewBox="0 0 1476 1080" xmlns="http://www.w3.org/2000/svg"><defs><style>.cls-1{fill:#e8f2fa;}.cls-2{opacity:0.3;}.cls-3{fill:#a9c2ff;}.cls-4{fill:#c8dffd;}.cls-5{fill:#a8ccff;}.cls-6{opacity:0.5;}.cls-7{opacity:0.2;}.cls-8{fill:#ffae73;}.cls-9{fill:#25468f;}.cls-10{fill:#1e3865;}.cls-11{fill:#8eaff1;}.cls-12{fill:#ff912b;}.cls-13{fill:#fc7600;}.cls-14{fill:#f9924f;}.cls-15{fill:#6274ec;}.cls-16{opacity:0.9;}.cls-17{fill:#fff;}.cls-18{opacity:0.8;}.cls-19{fill:#f99352;}.cls-20{fill:#042646;}.cls-21{fill:#0b3563;}.cls-22{fill:#e96328;}.cls-23{fill:#ff7b35;}.cls-24{fill:#ffc194;}.cls-25{fill:#2d3554;}</style></defs><g id="图层_2"><g id="图层_1-2"><path d="M109.23,1078S-90.29,836.35,117.78,626C349,392.26,130.54,130.73,360.94,37.62c324.91-131.3,383.14,128.39,747,64,303.83-53.76,297.38,366.26,207.59,516.15-74.45,124.29,212.48,185.88,65.61,459.6Z" class="cls-1"></path><g class="cls-2"><path d="M864,432s31.51-143.87,152.24-162.87c0,0,23.51-3.36,32.11,20.79s-38.28,25.6-67,36.19S886.43,380.09,864,432Z" class="cls-3"></path></g><g class="cls-2"><path d="M860.43,405.33s-16.26-118,70.9-162.42c0,0,17.06-8.39,30.44,8S939.63,280,920.63,295.18,863,360,860.43,405.33Z" class="cls-3"></path></g><path d="M370.82,362.17c14.79-39.47,86.23-21.88,86.23-21.88s43.65,73.87,57.83,76.54-24.18-70-24.18-70c27.92-.6,96.06,36.16,96.06,36.16s-10.92,81.91,3.52,81.22,5.73-73,5.73-73c26.23,9.4,49,40.5,49,40.5,27.54,50-42.29,80.59-42.29,80.59s-3.13,28.46,13.08,62.48h0a94.9,94.9,0,0,1,7.27,16.9l-7.32-.5c-.45-1.88-1-3.71-1.57-5.46,0,0,0,0,0,0s0-.05,0-.07c-.42-1.1-1-2.66-1.78-4.56h0c-1.91-4.26-3.19-7.4-4-9.65,0,0,0,0,0,0-5.68-13.35-14-30.8-20.16-34.76a13.49,13.49,0,0,0,1.81-3c-.58,1-1.18,2-1.81,3-14.5,24.3-77.42,24.17-111.77,15s-18.42-17.3,1.53-31,59-7,71.08-12.09-4.45-12.11-27.83-12-36.72,21.08-74.54,21.84-61.23-67.49-61.23-67.49c25.34,9.34,72.89-.87,75.34-9.14s-66.48-12.18-77-15.44S356,401.64,370.82,362.17Z" class="cls-4"></path><path d="M261.33,982.56c-25.91-42.39,45.19-88.22,45.19-88.22s102.91,20.17,116.24,10.45-84.39-33.37-84.39-33.37c20.73-23.61,107.37-52.07,107.37-52.07s68.84,71.57,79.21,59.07S460.55,818,460.55,818c28.88-14.58,75.53-9.7,75.53-9.7,68.11,15.3,43.65,96.57,43.65,96.57s24.43,24.33,68.85,36.84h0a127.88,127.88,0,0,1,21.47,6.87l-6,5.69q-3.18-1.61-6.35-2.87s0,0,0,0l-.09,0c-1.35-.49-3.28-1.18-5.64-2h0c-5.47-1.66-9.4-3-12.12-4.07h0c-16.92-5.47-39.71-11.89-48.15-9.8a14.82,14.82,0,0,0-1.48-3.83c.47,1.22,1,2.49,1.48,3.83,11.84,30.57-36.3,82.66-71.11,104.18s-30.36,2.08-28-24.91,38.41-54.28,42.86-68.17-14.81-5.57-32.59,13.88-8.16,46.54-36.3,78.49-110.33-.72-110.33-.72C384.22,1024.27,410.89,977,405,968.7s-62.21,45.83-73.31,52.08S287.23,1024.94,261.33,982.56Z" class="cls-5"></path><g class="cls-6"><path d="M1253.22,417.4c-5-43.93-83-42.06-83-42.06s-63.92,66-79.18,65.56,42.9-66.47,42.9-66.47c-28.54-6.95-108.07,15.37-108.07,15.37s-9.88,86.68-24.55,82.7,12.93-76.34,12.93-76.34c-29.39,3.72-60.78,30.52-60.78,30.52-41.2,45.13,22.7,92.44,22.7,92.44s-4.12,30-29.55,61.26h0A103.52,103.52,0,0,0,934.8,596.1l7.65,1.15c.95-1.84,1.95-3.59,3-5.27,0,0,0,0,0,0a.43.43,0,0,0,0-.07c.71-1,1.73-2.49,3-4.28h0c3.06-3.94,5.18-6.88,6.56-9l0,0c9.28-12.43,22.34-28.48,29.69-31.16a13.27,13.27,0,0,1-1.08-3.53c.34,1.13.7,2.3,1.08,3.53,8.63,28.28,73.35,42.42,111,40.84s23.39-13.6,6.41-32.19-58.83-20.6-70-28.55S1040,516,1064,521.42s32.31,30,71,39.37,80.35-55.49,80.35-55.49c-28.46,3.86-74.71-17.43-75.09-26.48s71.47,2.56,83.14,1.6S1258.25,461.33,1253.22,417.4Z" class="cls-5"></path></g><g class="cls-7"><path d="M1294.18,951.77c51.65-39.78-11.38-125.15-11.38-125.15s-133.25-19.79-144.52-37.15,117.45-4,117.45-4c-13.41-37.2-103.52-108.37-103.52-108.37s-117.34,56.43-123.71,37,106.62-45,106.62-45c-27.57-29.84-85.89-43.93-85.89-43.93C960.09,614.46,950,722.41,950,722.41s-41.11,18.74-100.48,14.76h0s-11.44-1.72-29.09-.93l4.51,9.4c3.05-.37,6.06-.61,9-.73h.18c1.86,0,4.51,0,7.74,0h0c7.37.35,12.73.42,16.52.3h0c23,.67,53.41,2.72,62.51,8.83a20.71,20.71,0,0,1,3.64-4l-3.64,4c-29,31.61,3.42,114.68,34.72,155.38s35.41,15.47,45.71-17.91S981.62,810,983,791.4s20.47-.34,32.35,30.59-12.82,59.32,5.43,109.67,132.7,46.3,132.7,46.3c-27-28.69-36.07-96.75-24.92-104.22s52.37,81.57,62.66,93.82S1242.53,991.54,1294.18,951.77Z" class="cls-5"></path></g><g id="man"><path d="M500.16,653.36c-2.45,6.19-6.7,13.37-11.16,15.15a17.2,17.2,0,0,0-7.17,4.89l-4.08-2.23-4.88-2.66s.11-.51.35-1.33.6-2,1.1-3.25a4.23,4.23,0,0,0,.58-4.07,8.92,8.92,0,0,1,.83-7.9c1.56-2.13,3.07-7.39,4-7.23,2.29.37-1.12,7.59-.14,8.93a1.74,1.74,0,0,0,2.19.7l0,0c6.4-2.64,14.16-16.87,17.59-15C500.71,640.11,501.2,650.73,500.16,653.36Z" class="cls-8"></path><path d="M478,662l8,5.28a1.31,1.31,0,0,0,1.75-.29l20.53-27.41a1.13,1.13,0,0,0-.3-1.64l-8-5.29a1.32,1.32,0,0,0-1.75.29l-20.53,27.41A1.15,1.15,0,0,0,478,662Z" class="cls-9"></path><path d="M485.36,666.81l4.7,3.1a1,1,0,0,0,1.33-.22l20.88-27.87a.86.86,0,0,0-.23-1.25l-4.7-3.1a1,1,0,0,0-1.33.22l-20.88,27.87A.86.86,0,0,0,485.36,666.81Z" class="cls-10"></path><path d="M363,622.64s40.79,66.75,55.58,79l54.26-38s7.87,2.27,11.32,9.69c0,0-32.95,63-65.39,65.65s-78-75.49-78-75.49Z" class="cls-11"></path><path d="M270.73,1076.61H247.17c-3-1.51-5.61-5-6.45-10.13-1.15-7.12-9.66-11-11.5-16.83s7.59-14,7.59-14l1.58-1.9,1.64-2,15.64,3.45s.39,3.5.62,8a93.35,93.35,0,0,1,.07,10.18c-.46,7.77,2.32,16.14,9.68,17.65C271.48,1072.08,271.23,1075.11,270.73,1076.61Z" class="cls-10"></path><path d="M407.5,1076.61H353.61c-2.6-3-1.64-13.91-1.25-17.49.08-.72.14-1.14.14-1.14s18.4-13.81,20.93-3.24c.08.34.17.66.27,1,3.19,9.89,17.47,14.39,25.72,15.64C404.78,1072.17,406.77,1074.79,407.5,1076.61Z" class="cls-10"></path><path d="M397.23,794.36s-2.79,32.72-6.08,72c-4.46,53.41-9.83,119-10.36,131.46-.92,21.58-4.6,56.11-4.6,56.11s-8.74,8.2-26.22,4.74c0,0-15.58-49.29-20-101.43l-.21-2.58c-4.14-53.08-10.58-164.87-10.58-164.87Z" class="cls-12"></path><path d="M397.23,794.36s-2.79,32.72-6.08,72l-61.21,90.88-.21-2.58c-4.14-53.08-10.58-164.87-10.58-164.87Z" class="cls-13"></path><path d="M384.47,798.25S334.1,916.72,301,972.39s-43.47,71.22-43.47,71.22-19-7.12-20.7-12c0,0,12.67-107.48,34.85-133.68,12.53-14.81,27.25-59.24,27.94-74.78s4.49-46.29,4.49-46.29Z" class="cls-12"></path><path d="M371.93,625.54c-19.68,5.83-53.74-9.9-53.74-9.9s18.15-12.78,17.2-39.35l15.22,11.51,10.33,7.81a108.83,108.83,0,0,1-1.17,12.69c-.3,2.12,2.26,6.81,4.47,9.44C370.21,624.84,371.93,625.54,371.93,625.54Z" class="cls-8"></path><path d="M360.94,595.61a108.83,108.83,0,0,1-1.17,12.69c-11.45-1.85-24.45-19.22-24.45-19.22a38.82,38.82,0,0,1,15.29-1.28Z" class="cls-14"></path><path d="M367,595.18s-32.51,5.06-35.56-14-9.3-31.22,11.33-35.26,25.83,2.66,28.5,8.78S375.34,593.37,367,595.18Z" class="cls-8"></path><path d="M399.4,797.09a3.31,3.31,0,0,1-2.07.74c-7.39-.1-28.94,3.76-47.18,2-15.37-1.39-29-5.66-43.6-11.81-1.94-.81-6.4-3-6.3-5.08.06-2.23.3-5.46.6-9.54,1-14.15,2.83-38.49,1.07-66.57-.31-5.23-.48-10.42-.5-15.53-.15-38.06,7.9-71.54,24.06-82.87,1.38-.93,9.86,3,17.64,6.56a34.17,34.17,0,0,0,21.19,2.41l6.8,5.64c8.28,7.21,17.35,17,21.29,31.9,3.36,12.67,5.33,35.52,6.41,59.19.49,10.73.89,21.55,1,31.82v.36c.09,1,.09,2.13.09,3.15C400.29,775.82,399.89,796.72,399.4,797.09Z" class="cls-3"></path><path d="M300.85,773.4c1-14.15,2.83-38.49,1.07-66.57-.31-5.23-.48-10.42-.5-15.53,6.74-15.32,12.24-26.44,12.24-26.44h17S343.07,744.61,300.85,773.4Z" class="cls-11"></path><path d="M213.91,863.78l72.38,9.68c9.42,1.26,18.23-4.94,19.57-13.78l4.47-29.43c1.34-8.84-5.27-17.11-14.69-18.37l-72.38-9.67C213.84,801,205,807.15,203.69,816l-4.47,29.43C197.88,854.26,204.49,862.52,213.91,863.78Z" class="cls-10"></path><path d="M299.73,820.66h0a17.1,17.1,0,0,0-12-9.83h0c-.54-.12-1.1-.22-1.67-.3l-14.41-1.92,1-6.36a5.08,5.08,0,0,0-1.09-4,5.77,5.77,0,0,0-3.77-2.1l-3.76-.5-15.14-2-2.73-.37a5.68,5.68,0,0,0-6.47,4.57l-1,6.35-24.88-3.33c-9.45-1.26-18.29,5-19.64,13.83l-4.52,29.78c-1.35,8.87,5.29,17.16,14.74,18.42l72.26,9.67a18.28,18.28,0,0,0,3.76.11h0a18.11,18.11,0,0,0,5.64-1.34,16.5,16.5,0,0,0,10.22-12.61L300.79,829A15.2,15.2,0,0,0,299.73,820.66Zm-56.54-22.35a2.07,2.07,0,0,1,1.78-1.69,2,2,0,0,1,.64,0l3.22.43,11.91,1.59,6.49.87a2,2,0,0,1,1.82,2.27l-1,6.35-25.85-3.46Z" class="cls-9"></path><path d="M269,776.14s-3.8,4.76-3.95,6.65c-1,12.87,5.24,14.65-11,21.8,0,0-6.93,2.48-7-2.57s4.8-5.13,3.9-12.19c-1-8.15-.93-8.22,4.77-12.48l3.77-5.85Z" class="cls-8"></path><path d="M259.28,779.79a59.69,59.69,0,0,0,12.74.66s18.14-52.59,20.48-57.39,53.89-61.67,53.89-61.67L324.92,611s-55.77,87.4-61.43,99.68c-9.36,20.3-12.61,65.79-12.61,65.79A24.06,24.06,0,0,0,259.28,779.79Z" class="cls-3"></path><path d="M331.37,579.37s3.34-.53,2.8-4.84-.53-9.95,3.21-8.9,3.92,3.86,5.45,2.22,1.57-8.54,12.68-9,15.64,3.15,20.81,1,5.44-9.48,5.44-9.48a8.63,8.63,0,0,1-3.69,3.46s8.63-11.07-1.36-18.66-20.17-2.62-25.95-2.29c-12.73.72-20.95,1.43-25.11,9.29S323.2,571.81,331.37,579.37Z" class="cls-9"></path><path d="M263,781.8s3.66,3.58,3.9,5.07c.74,4.78,2.44,6.85,1.59,7.37-1.78,1.08-4.12-2.46-5.24-5.64A13.71,13.71,0,0,1,263,781.8Z" class="cls-8"></path></g><rect rx="58.87" height="709.39" width="433.6" y="361.77" x="544.54" class="cls-15"></rect><path d="M938,1075.89H584.73c-24.94,0-45.23-19-45.23-42.44v-634c0-23.41,20.29-42.44,45.23-42.44H938c24.94,0,45.23,19,45.23,42.44v634C983.18,1056.85,962.89,1075.89,938,1075.89ZM584.73,366.5c-19.38,0-35.15,14.79-35.15,33v634c0,18.18,15.77,33,35.15,33H938c19.38,0,35.14-14.79,35.14-33v-634c0-18.19-15.76-33-35.14-33Z" class="cls-9"></path><g class="cls-16"><rect height="267.58" width="285.19" y="548.44" x="618.74" class="cls-17"></rect></g><rect height="10.63" width="11.33" y="787.93" x="647.33" class="cls-9"></rect><rect height="10.63" width="11.33" y="787.93" x="658.67" class="cls-9"></rect><rect height="10.63" width="11.33" y="787.93" x="670" class="cls-9"></rect><rect height="10.63" width="11.33" y="787.93" x="681.33" class="cls-9"></rect><rect height="10.63" width="11.33" y="787.93" x="692.67" class="cls-9"></rect><rect height="10.63" width="11.33" y="787.93" x="715.33" class="cls-9"></rect><rect height="10.63" width="11.33" y="787.93" x="726.67" class="cls-9"></rect><rect height="10.63" width="11.33" y="787.93" x="760.67" class="cls-9"></rect><rect height="10.63" width="12" y="787.93" x="783.33" class="cls-9"></rect><rect height="10.63" width="11.33" y="787.93" x="795.34" class="cls-9"></rect><rect height="10.63" width="11.33" y="787.93" x="818.01" class="cls-9"></rect><rect height="10.63" width="11.33" y="787.93" x="829.34" class="cls-9"></rect><rect height="10.63" width="11.33" y="787.93" x="840.67" class="cls-9"></rect><rect height="10.63" width="11.33" y="787.93" x="852.01" class="cls-9"></rect><rect height="10.63" width="11.33" y="787.93" x="863.34" class="cls-9"></rect><rect height="10.63" width="12" y="787.93" x="874.67" class="cls-9"></rect><rect height="10.63" width="11.33" y="787.93" x="636" class="cls-9"></rect><rect height="10.63" width="11.33" y="777.3" x="692.67" class="cls-9"></rect><rect height="10.63" width="11.33" y="777.3" x="726.67" class="cls-9"></rect><rect height="10.63" width="11.33" y="777.3" x="749.33" class="cls-9"></rect><rect height="10.63" width="11.33" y="777.3" x="760.67" class="cls-9"></rect><rect height="10.63" width="11.33" y="777.3" x="772" class="cls-9"></rect><rect height="10.63" width="12" y="777.3" x="783.33" class="cls-9"></rect><rect height="10.63" width="11.33" y="777.3" x="818.01" class="cls-9"></rect><rect height="10.63" width="12" y="777.3" x="874.67" class="cls-9"></rect><rect height="10.63" width="11.33" y="777.3" x="636" class="cls-9"></rect><rect height="10.63" width="11.33" y="766.67" x="658.67" class="cls-9"></rect><rect height="10.63" width="11.33" y="766.67" x="670" class="cls-9"></rect><rect height="10.63" width="11.33" y="766.67" x="692.67" class="cls-9"></rect><rect height="10.63" width="11.33" y="766.67" x="715.33" class="cls-9"></rect><rect height="10.63" width="11.33" y="766.67" x="726.67" class="cls-9"></rect><rect height="10.63" width="11.33" y="766.67" x="738" class="cls-9"></rect><rect height="10.63" width="11.33" y="766.67" x="760.67" class="cls-9"></rect><rect height="10.63" width="11.33" y="766.67" x="772" class="cls-9"></rect><rect height="10.63" width="12" y="766.67" x="783.33" class="cls-9"></rect><rect height="10.63" width="11.33" y="766.67" x="795.34" class="cls-9"></rect><rect height="10.63" width="11.33" y="766.67" x="818.01" class="cls-9"></rect><rect height="10.63" width="11.33" y="766.67" x="840.67" class="cls-9"></rect><rect height="10.63" width="11.33" y="766.67" x="852.01" class="cls-9"></rect><rect height="10.63" width="12" y="766.67" x="874.67" class="cls-9"></rect><rect height="10.63" width="11.33" y="766.67" x="636" class="cls-9"></rect><rect height="10.63" width="11.33" y="756.03" x="658.67" class="cls-9"></rect><rect height="10.63" width="11.33" y="756.03" x="670" class="cls-9"></rect><rect height="10.63" width="11.33" y="756.03" x="692.67" class="cls-9"></rect><rect height="10.63" width="11.33" y="756.03" x="715.33" class="cls-9"></rect><rect height="10.63" width="11.33" y="756.03" x="738" class="cls-9"></rect><rect height="10.63" width="11.33" y="756.03" x="760.67" class="cls-9"></rect><rect height="10.63" width="11.33" y="756.03" x="818.01" class="cls-9"></rect><rect height="10.63" width="11.33" y="756.03" x="840.67" class="cls-9"></rect><rect height="10.63" width="11.33" y="756.03" x="852.01" class="cls-9"></rect><rect height="10.63" width="12" y="756.03" x="874.67" class="cls-9"></rect><rect height="10.63" width="11.33" y="756.03" x="636" class="cls-9"></rect><rect height="10.63" width="11.33" y="745.4" x="692.67" class="cls-9"></rect><rect height="10.63" width="11.33" y="745.4" x="715.33" class="cls-9"></rect><rect height="10.63" width="11.33" y="745.4" x="726.67" class="cls-9"></rect><rect height="10.63" width="11.33" y="745.4" x="738" class="cls-9"></rect><rect height="10.63" width="11.33" y="745.4" x="760.67" class="cls-9"></rect><rect height="10.63" width="11.33" y="745.4" x="772" class="cls-9"></rect><rect height="10.63" width="11.33" y="745.4" x="795.34" class="cls-9"></rect><rect height="10.63" width="11.33" y="745.4" x="818.01" class="cls-9"></rect><rect height="10.63" width="12" y="745.4" x="874.67" class="cls-9"></rect><rect height="10.63" width="11.33" y="745.4" x="636" class="cls-9"></rect><rect height="10.63" width="11.33" y="734.76" x="647.33" class="cls-9"></rect><rect height="10.63" width="11.33" y="734.76" x="658.67" class="cls-9"></rect><rect height="10.63" width="11.33" y="734.76" x="670" class="cls-9"></rect><rect height="10.63" width="11.33" y="734.76" x="681.33" class="cls-9"></rect><rect height="10.63" width="11.33" y="734.76" x="692.67" class="cls-9"></rect><rect height="10.63" width="11.33" y="734.76" x="715.33" class="cls-9"></rect><rect height="10.63" width="11.33" y="734.76" x="738" class="cls-9"></rect><rect height="10.63" width="11.33" y="734.76" x="749.33" class="cls-9"></rect><rect height="10.63" width="11.33" y="734.76" x="772" class="cls-9"></rect><rect height="10.63" width="11.33" y="734.76" x="818.01" class="cls-9"></rect><rect height="10.63" width="11.33" y="734.76" x="829.34" class="cls-9"></rect><rect height="10.63" width="11.33" y="734.76" x="840.67" class="cls-9"></rect><rect height="10.63" width="11.33" y="734.76" x="852.01" class="cls-9"></rect><rect height="10.63" width="11.33" y="734.76" x="863.34" class="cls-9"></rect><rect height="10.63" width="12" y="734.76" x="874.67" class="cls-9"></rect><rect height="10.63" width="11.33" y="734.76" x="636" class="cls-9"></rect><rect height="10.63" width="11.33" y="724.13" x="749.33" class="cls-9"></rect><rect height="10.63" width="11.33" y="724.13" x="760.67" class="cls-9"></rect><rect height="10.63" width="11.33" y="724.13" x="772" class="cls-9"></rect><rect height="10.63" width="11.33" y="724.13" x="795.34" class="cls-9"></rect><rect height="10.63" width="11.33" y="713.5" x="647.33" class="cls-9"></rect><rect height="10.63" width="11.33" y="713.5" x="658.67" class="cls-9"></rect><rect height="10.63" width="11.33" y="713.5" x="670" class="cls-9"></rect><rect height="10.63" width="11.33" y="713.5" x="681.33" class="cls-9"></rect><rect height="10.63" width="11.33" y="713.5" x="715.33" class="cls-9"></rect><rect height="10.63" width="11.33" y="713.5" x="726.67" class="cls-9"></rect><rect height="10.63" width="11.33" y="713.5" x="738" class="cls-9"></rect><rect height="10.63" width="11.33" y="713.5" x="760.67" class="cls-9"></rect><rect height="10.63" width="11.33" y="713.5" x="772" class="cls-9"></rect><rect height="10.63" width="12" y="713.5" x="783.33" class="cls-9"></rect><rect height="10.63" width="11.33" y="713.5" x="795.34" class="cls-9"></rect><rect height="10.63" width="11.33" y="713.5" x="806.67" class="cls-9"></rect><rect height="10.63" width="11.33" y="713.5" x="818.01" class="cls-9"></rect><rect height="10.63" width="11.33" y="713.5" x="829.34" class="cls-9"></rect><rect height="10.63" width="11.33" y="713.5" x="840.67" class="cls-9"></rect><rect height="10.63" width="11.33" y="713.5" x="863.34" class="cls-9"></rect><rect height="10.63" width="12" y="713.5" x="874.67" class="cls-9"></rect><rect height="10.63" width="11.33" y="702.86" x="658.67" class="cls-9"></rect><rect height="10.63" width="11.33" y="702.86" x="670" class="cls-9"></rect><rect height="10.63" width="11.33" y="702.86" x="704" class="cls-9"></rect><rect height="10.63" width="11.33" y="702.86" x="715.33" class="cls-9"></rect><rect height="10.63" width="11.33" y="702.86" x="738" class="cls-9"></rect><rect height="10.63" width="11.33" y="702.86" x="772" class="cls-9"></rect><rect height="10.63" width="11.33" y="702.86" x="795.34" class="cls-9"></rect><rect height="10.63" width="11.33" y="702.86" x="806.67" class="cls-9"></rect><rect height="10.63" width="11.33" y="702.86" x="829.34" class="cls-9"></rect><rect height="10.63" width="11.33" y="702.86" x="840.67" class="cls-9"></rect><rect height="10.63" width="11.33" y="692.23" x="647.33" class="cls-9"></rect><rect height="10.63" width="11.33" y="692.23" x="670" class="cls-9"></rect><rect height="10.63" width="11.33" y="692.23" x="681.33" class="cls-9"></rect><rect height="10.63" width="11.33" y="692.23" x="692.67" class="cls-9"></rect><rect height="10.63" width="11.33" y="692.23" x="704" class="cls-9"></rect><rect height="10.63" width="11.33" y="692.23" x="726.67" class="cls-9"></rect><rect height="10.63" width="11.33" y="692.23" x="738" class="cls-9"></rect><rect height="10.63" width="11.33" y="692.23" x="749.33" class="cls-9"></rect><rect height="10.63" width="11.33" y="692.23" x="760.67" class="cls-9"></rect><rect height="10.63" width="11.33" y="692.23" x="772" class="cls-9"></rect><rect height="10.63" width="12" y="692.23" x="783.33" class="cls-9"></rect><rect height="10.63" width="11.33" y="692.23" x="840.67" class="cls-9"></rect><rect height="10.63" width="11.33" y="692.23" x="852.01" class="cls-9"></rect><rect height="10.63" width="12" y="692.23" x="874.67" class="cls-9"></rect><rect height="10.63" width="11.33" y="692.23" x="636" class="cls-9"></rect><rect height="10.63" width="11.33" y="681.6" x="647.33" class="cls-9"></rect><rect height="10.63" width="11.33" y="681.6" x="658.67" class="cls-9"></rect><rect height="10.63" width="11.33" y="681.6" x="670" class="cls-9"></rect><rect height="10.63" width="11.33" y="681.6" x="715.33" class="cls-9"></rect><rect height="10.63" width="11.33" y="681.6" x="726.67" class="cls-9"></rect><rect height="10.63" width="11.33" y="681.6" x="772" class="cls-9"></rect><rect height="10.63" width="11.33" y="681.6" x="806.67" class="cls-9"></rect><rect height="10.63" width="11.33" y="681.6" x="818.01" class="cls-9"></rect><rect height="10.63" width="11.33" y="681.6" x="840.67" class="cls-9"></rect><rect height="10.63" width="11.33" y="681.6" x="852.01" class="cls-9"></rect><rect height="10.63" width="11.33" y="681.6" x="863.34" class="cls-9"></rect><rect height="10.63" width="12" y="681.6" x="874.67" class="cls-9"></rect><rect height="10.63" width="11.33" y="681.6" x="636" class="cls-9"></rect><rect height="10.63" width="11.33" y="670.96" x="670" class="cls-9"></rect><rect height="10.63" width="11.33" y="670.96" x="681.33" class="cls-9"></rect><rect height="10.63" width="11.33" y="670.96" x="692.67" class="cls-9"></rect><rect height="10.63" width="11.33" y="670.96" x="704" class="cls-9"></rect><rect height="10.63" width="11.33" y="670.96" x="715.33" class="cls-9"></rect><rect height="10.63" width="11.33" y="670.96" x="726.67" class="cls-9"></rect><rect height="10.63" width="11.33" y="670.96" x="760.67" class="cls-9"></rect><rect height="10.63" width="11.33" y="670.96" x="795.34" class="cls-9"></rect><rect height="10.63" width="11.33" y="670.96" x="806.67" class="cls-9"></rect><rect height="10.63" width="11.33" y="670.96" x="852.01" class="cls-9"></rect><rect height="10.63" width="11.33" y="670.96" x="636" class="cls-9"></rect><rect height="10.63" width="11.33" y="660.33" x="647.33" class="cls-9"></rect><rect height="10.63" width="11.33" y="660.33" x="658.67" class="cls-9"></rect><rect height="10.63" width="11.33" y="660.33" x="670" class="cls-9"></rect><rect height="10.63" width="11.33" y="660.33" x="681.33" class="cls-9"></rect><rect height="10.63" width="11.33" y="660.33" x="704" class="cls-9"></rect><rect height="10.63" width="11.33" y="660.33" x="726.67" class="cls-9"></rect><rect height="10.63" width="11.33" y="660.33" x="738" class="cls-9"></rect><rect height="10.63" width="11.33" y="660.33" x="760.67" class="cls-9"></rect><rect height="10.63" width="11.33" y="660.33" x="772" class="cls-9"></rect><rect height="10.63" width="12" y="660.33" x="783.33" class="cls-9"></rect><rect height="10.63" width="11.33" y="660.33" x="795.34" class="cls-9"></rect><rect height="10.63" width="11.33" y="660.33" x="818.01" class="cls-9"></rect><rect height="10.63" width="11.33" y="660.33" x="829.34" class="cls-9"></rect><rect height="10.63" width="11.33" y="660.33" x="840.67" class="cls-9"></rect><rect height="10.63" width="11.33" y="660.33" x="852.01" class="cls-9"></rect><rect height="10.63" width="12" y="660.33" x="874.67" class="cls-9"></rect><rect height="10.63" width="11.33" y="649.69" x="647.33" class="cls-9"></rect><rect height="10.63" width="11.33" y="649.69" x="670" class="cls-9"></rect><rect height="10.63" width="11.33" y="649.69" x="692.67" class="cls-9"></rect><rect height="10.63" width="11.33" y="649.69" x="704" class="cls-9"></rect><rect height="10.63" width="11.33" y="649.69" x="738" class="cls-9"></rect><rect height="10.63" width="11.33" y="649.69" x="749.33" class="cls-9"></rect><rect height="10.63" width="11.33" y="649.69" x="760.67" class="cls-9"></rect><rect height="10.63" width="12" y="649.69" x="783.33" class="cls-9"></rect><rect height="10.63" width="11.33" y="649.69" x="795.34" class="cls-9"></rect><rect height="10.63" width="11.33" y="649.69" x="806.67" class="cls-9"></rect><rect height="10.63" width="11.33" y="649.69" x="829.34" class="cls-9"></rect><rect height="10.63" width="11.33" y="649.69" x="852.01" class="cls-9"></rect><rect height="10.63" width="11.33" y="649.69" x="863.34" class="cls-9"></rect><rect height="10.63" width="12" y="649.69" x="874.67" class="cls-9"></rect><rect height="10.63" width="11.33" y="649.69" x="636" class="cls-9"></rect><rect height="10.63" width="11.33" y="639.06" x="647.33" class="cls-9"></rect><rect height="10.63" width="11.33" y="639.06" x="692.67" class="cls-9"></rect><rect height="10.63" width="11.33" y="639.06" x="704" class="cls-9"></rect><rect height="10.63" width="11.33" y="639.06" x="726.67" class="cls-9"></rect><rect height="10.63" width="11.33" y="639.06" x="738" class="cls-9"></rect><rect height="10.63" width="11.33" y="639.06" x="760.67" class="cls-9"></rect><rect height="10.63" width="11.33" y="639.06" x="772" class="cls-9"></rect><rect height="10.63" width="11.33" y="639.06" x="795.34" class="cls-9"></rect><rect height="10.63" width="11.33" y="639.06" x="806.67" class="cls-9"></rect><rect height="10.63" width="11.33" y="639.06" x="818.01" class="cls-9"></rect><rect height="10.63" width="11.33" y="639.06" x="829.34" class="cls-9"></rect><rect height="10.63" width="11.33" y="639.06" x="840.67" class="cls-9"></rect><rect height="10.63" width="11.33" y="639.06" x="852.01" class="cls-9"></rect><rect height="10.63" width="11.33" y="639.06" x="636" class="cls-9"></rect><rect height="10.63" width="11.33" y="628.43" x="726.67" class="cls-9"></rect><rect height="10.63" width="11.33" y="628.43" x="749.33" class="cls-9"></rect><rect height="10.63" width="11.33" y="628.43" x="760.67" class="cls-9"></rect><rect height="10.63" width="12" y="628.43" x="783.33" class="cls-9"></rect><rect height="10.63" width="11.33" y="628.43" x="795.34" class="cls-9"></rect><rect height="10.63" width="11.33" y="628.43" x="806.67" class="cls-9"></rect><rect height="10.63" width="11.33" y="617.79" x="647.33" class="cls-9"></rect><rect height="10.63" width="11.33" y="617.79" x="658.67" class="cls-9"></rect><rect height="10.63" width="11.33" y="617.79" x="670" class="cls-9"></rect><rect height="10.63" width="11.33" y="617.79" x="681.33" class="cls-9"></rect><rect height="10.63" width="11.33" y="617.79" x="692.67" class="cls-9"></rect><rect height="10.63" width="11.33" y="617.79" x="715.33" class="cls-9"></rect><rect height="10.63" width="11.33" y="617.79" x="726.67" class="cls-9"></rect><rect height="10.63" width="11.33" y="617.79" x="760.67" class="cls-9"></rect><rect height="10.63" width="11.33" y="617.79" x="806.67" class="cls-9"></rect><rect height="10.63" width="11.33" y="617.79" x="818.01" class="cls-9"></rect><rect height="10.63" width="11.33" y="617.79" x="840.67" class="cls-9"></rect><rect height="10.63" width="12" y="617.79" x="874.67" class="cls-9"></rect><rect height="10.63" width="11.33" y="617.79" x="636" class="cls-9"></rect><rect height="10.63" width="11.33" y="607.16" x="692.67" class="cls-9"></rect><rect height="10.63" width="12" y="607.16" x="783.33" class="cls-9"></rect><rect height="10.63" width="11.33" y="607.16" x="795.34" class="cls-9"></rect><rect height="10.63" width="11.33" y="607.16" x="818.01" class="cls-9"></rect><rect height="10.63" width="11.33" y="607.16" x="829.34" class="cls-9"></rect><rect height="10.63" width="11.33" y="607.16" x="852.01" class="cls-9"></rect><rect height="10.63" width="11.33" y="607.16" x="863.34" class="cls-9"></rect><rect height="10.63" width="12" y="607.16" x="874.67" class="cls-9"></rect><rect height="10.63" width="11.33" y="607.16" x="636" class="cls-9"></rect><rect height="10.63" width="11.33" y="596.53" x="658.67" class="cls-9"></rect><rect height="10.63" width="11.33" y="596.53" x="670" class="cls-9"></rect><rect height="10.63" width="11.33" y="596.53" x="692.67" class="cls-9"></rect><rect height="10.63" width="11.33" y="596.53" x="715.33" class="cls-9"></rect><rect height="10.63" width="11.33" y="596.53" x="726.67" class="cls-9"></rect><rect height="10.63" width="11.33" y="596.53" x="749.33" class="cls-9"></rect><rect height="10.63" width="11.33" y="596.53" x="760.67" class="cls-9"></rect><rect height="10.63" width="12" y="596.53" x="783.33" class="cls-9"></rect><rect height="10.63" width="11.33" y="596.53" x="829.34" class="cls-9"></rect><rect height="10.63" width="11.33" y="596.53" x="840.67" class="cls-9"></rect><rect height="10.63" width="11.33" y="596.53" x="852.01" class="cls-9"></rect><rect height="10.63" width="11.33" y="596.53" x="636" class="cls-9"></rect><rect height="10.63" width="11.33" y="585.89" x="658.67" class="cls-9"></rect><rect height="10.63" width="11.33" y="585.89" x="670" class="cls-9"></rect><rect height="10.63" width="11.33" y="585.89" x="692.67" class="cls-9"></rect><rect height="10.63" width="11.33" y="585.89" x="715.33" class="cls-9"></rect><rect height="10.63" width="11.33" y="585.89" x="738" class="cls-9"></rect><rect height="10.63" width="11.33" y="585.89" x="749.33" class="cls-9"></rect><rect height="10.63" width="11.33" y="585.89" x="760.67" class="cls-9"></rect><rect height="10.63" width="11.33" y="585.89" x="772" class="cls-9"></rect><rect height="10.63" width="12" y="585.89" x="783.33" class="cls-9"></rect><rect height="10.63" width="11.33" y="585.89" x="806.67" class="cls-9"></rect><rect height="10.63" width="11.33" y="585.89" x="818.01" class="cls-9"></rect><rect height="10.63" width="11.33" y="585.89" x="829.34" class="cls-9"></rect><rect height="10.63" width="11.33" y="585.89" x="852.01" class="cls-9"></rect><rect height="10.63" width="11.33" y="585.89" x="863.34" class="cls-9"></rect><rect height="10.63" width="12" y="585.89" x="874.67" class="cls-9"></rect><rect height="10.63" width="11.33" y="585.89" x="636" class="cls-9"></rect><rect height="10.63" width="11.33" y="575.26" x="692.67" class="cls-9"></rect><rect height="10.63" width="11.33" y="575.26" x="738" class="cls-9"></rect><rect height="10.63" width="11.33" y="575.26" x="749.33" class="cls-9"></rect><rect height="10.63" width="11.33" y="575.26" x="772" class="cls-9"></rect><rect height="10.63" width="12" y="575.26" x="783.33" class="cls-9"></rect><rect height="10.63" width="11.33" y="575.26" x="795.34" class="cls-9"></rect><rect height="10.63" width="11.33" y="575.26" x="806.67" class="cls-9"></rect><rect height="10.63" width="11.33" y="575.26" x="863.34" class="cls-9"></rect><rect height="10.63" width="11.33" y="575.26" x="636" class="cls-9"></rect><rect height="10.63" width="11.33" y="564.62" x="647.33" class="cls-9"></rect><rect height="10.63" width="11.33" y="564.62" x="658.67" class="cls-9"></rect><rect height="10.63" width="11.33" y="564.62" x="670" class="cls-9"></rect><rect height="10.63" width="11.33" y="564.62" x="681.33" class="cls-9"></rect><rect height="10.63" width="11.33" y="564.62" x="692.67" class="cls-9"></rect><rect height="10.63" width="11.33" y="564.62" x="715.33" class="cls-9"></rect><rect height="10.63" width="11.33" y="564.62" x="726.67" class="cls-9"></rect><rect height="10.63" width="12" y="564.62" x="783.33" class="cls-9"></rect><rect height="10.63" width="11.33" y="564.62" x="806.67" class="cls-9"></rect><rect height="10.63" width="11.33" y="564.62" x="829.34" class="cls-9"></rect><rect height="10.63" width="11.33" y="564.62" x="840.67" class="cls-9"></rect><rect height="10.63" width="12" y="564.62" x="874.67" class="cls-9"></rect><rect height="10.63" width="11.33" y="564.62" x="636" class="cls-9"></rect><g class="cls-18"><path d="M598.12,585.57a3.91,3.91,0,0,1-4-3.79V530.21a3.91,3.91,0,0,1,4-3.78h55.46a3.79,3.79,0,1,1,0,7.56H602.15v47.79A3.92,3.92,0,0,1,598.12,585.57Z" class="cls-17"></path><path d="M924.56,585.8a3.92,3.92,0,0,1-4-3.78V533.76H869.59a3.79,3.79,0,1,1,0-7.56h55a3.91,3.91,0,0,1,4,3.78v52A3.92,3.92,0,0,1,924.56,585.8Z" class="cls-17"></path></g><g class="cls-18"><path d="M924.56,845H869.09a3.79,3.79,0,1,1,0-7.56h51.43v-47.8a4,4,0,0,1,8.07,0v51.58A3.91,3.91,0,0,1,924.56,845Z" class="cls-17"></path><path d="M653.09,845.2h-55a3.91,3.91,0,0,1-4-3.78v-52a4,4,0,0,1,8.06,0v48.26h50.94a3.79,3.79,0,1,1,0,7.56Z" class="cls-17"></path></g><path d="M903.93,916.72V924a7.44,7.44,0,0,1-7.64,7.17H626.39a7.43,7.43,0,0,1-7.64-7.17v-7.23a7.43,7.43,0,0,1,7.64-7.16h269.9A7.43,7.43,0,0,1,903.93,916.72Z" class="cls-17"></path><path d="M818,909.56v21.56H626.39a7.43,7.43,0,0,1-7.64-7.17v-7.23a7.43,7.43,0,0,1,7.64-7.16Z" class="cls-13"></path><polygon points="778.08 909.56 756.88 931.12 717.21 931.12 738.41 909.56 778.08 909.56" class="cls-12"></polygon><polygon points="818 909.56 818 931.12 781.24 931.12 802.44 909.56 818 909.56" class="cls-12"></polygon><polygon points="714.21 909.56 693.01 931.12 653.34 931.12 674.54 909.56 714.21 909.56" class="cls-12"></polygon><path d="M650.34,909.56l-21.2,21.56h-2.91a7.43,7.43,0,0,1-7.64-7.17v-7.23a7.43,7.43,0,0,1,7.64-7.16Z" class="cls-12"></path><path d="M732.09,897.25l1.51-1.68a6.8,6.8,0,0,0,4.5,1.73c1.54,0,2.52-.66,2.52-1.72s-.57-1.47-3.22-2.06c-3-.67-4.74-1.51-4.74-4,0-2.3,2-3.88,4.87-3.88a8.24,8.24,0,0,1,5.17,1.68l-1.35,1.78a6.71,6.71,0,0,0-3.87-1.38c-1.46,0-2.32.71-2.32,1.63s.66,1.49,3.38,2.1c3,.69,4.59,1.7,4.59,3.95,0,2.51-2.1,4-5.1,4A9.13,9.13,0,0,1,732.09,897.25Z" class="cls-17"></path><path d="M745.45,892.51a7,7,0,0,1,7.35-6.92,7.68,7.68,0,0,1,5.58,2.08l-1.61,1.74a5.85,5.85,0,0,0-4-1.66,4.76,4.76,0,0,0,0,9.52,5.75,5.75,0,0,0,4.09-1.74l1.61,1.53a7.56,7.56,0,0,1-5.78,2.37A7,7,0,0,1,745.45,892.51Z" class="cls-17"></path><path d="M766.16,885.72h2.33l6.27,13.48h-2.65L770.67,896h-6.75l-1.46,3.23h-2.57Zm3.59,8.16-2.47-5.35-2.44,5.35Z" class="cls-17"></path><path d="M777.2,885.82h2.33l7.63,9.25v-9.25h2.47V899.2h-2.1l-7.86-9.52v9.52H777.2Z" class="cls-17"></path><g id="girl_2"><path d="M975.18,791.8a39,39,0,0,1,37.28,10c23,23.39,6,41.42,17.52,57.8,6.94,9.89,12.77,27.22-8.74,37.47-9.94,4.73-39.56,29.5-45.63,30.09-61.46,5.92-62.56-52.59-41.85-69.54C962.88,833.77,936.28,802.44,975.18,791.8Z" class="cls-10"></path><path d="M1007.3,882.24s56.1,25.5,66.6,25.07,76.19-22.13,76.19-22.13l-1.65,10.45s-50,27-67.43,28.49c-17.2,1.51-76-14.48-81.69-17.85S990.8,885.66,1007.3,882.24Z" class="cls-19"></path><path d="M1013.48,906.29A57.83,57.83,0,0,1,994,914.07c-30,6.5-41.5-17.29-45.81-33.62a27.2,27.2,0,0,1,10.16-2.93c2.17-.24,4.45-.4,6.34-.49,3.37-2.42,8.38-12.32,9.49-27.71l1.42.36,23.64,6.07s-1.09,7-1.62,13.72c-.41,5.21-.47,10.2.58,11.42,1.85.37,2.95.62,2.95.62v0A138.65,138.65,0,0,1,1013.48,906.29Z" class="cls-8"></path><path d="M999.26,855.76s-1.09,7-1.62,13.71c-13.39-1.26-19.61-13.22-22-19.78Z" class="cls-19"></path><path d="M1003.26,862.37s-31.79-1.64-30.4-20.2-1.76-31.27,18.59-31,23.77,7.61,24.91,13.91S1011.56,862.32,1003.26,862.37Z" class="cls-8"></path><path d="M1016.2,814.69c-4.48-5.91-8.28-4.94-10.49-3.4-16.67-10.12-28.87,2.37-28.87,2.37-3.14,13.17-14,20.11-14,20.11s5.64,4.22,19.12,1.42a32.89,32.89,0,0,0,24-19.78c1.81,1.76,4.15,2.88,6,6.71,2.13,4.54,3.47,7.18,3.51,14.65C1015.45,836.77,1022.92,823.56,1016.2,814.69Z" class="cls-10"></path><path d="M939.15,966.94c-2.87-13.77-12.23-68.79-2.87-86.49,3.36-6.36,16.55-6.93,31-6.37,4.5,2.72,21.66,13,28.71,11.75l.4-.09c3.32-.78,4.57-3,1.8-4.85a153.18,153.18,0,0,1,15.26,2c5,.89,18.83,8.84,18.83,8.84s-6.26,9.14-16.33,13.13c1.71,14.38-.83,20.72-16.72,53.91-13.43,28.06,1.81,53.33,1.81,53.33s-79.05,59.63-79.49,29.27C921.25,1018.5,942.82,984.54,939.15,966.94Z" class="cls-12"></path><path d="M1005,1076.93a14.82,14.82,0,0,0,10.57-6l1.22-1.72c9-12.79,12.5-51.93,32.74-93.62,4.93-10.15,22.63-12,27.45-23.46,0,0,11.88-37.19-22.73-38.29s-92.69,103.49-93.6,114.46C959.75,1038.89,937.75,1084.05,1005,1076.93Z" class="cls-11"></path><path d="M1142.54,1076.72h-49.26s-1.84-7.57,1.39-12.72c2.87-4.56,1.77-7.15-.35-10.93a19.7,19.7,0,0,0,8.3,1.51,17.91,17.91,0,0,0,7.32-2.48c2.12,2.33,11.2,12.24,14,14.2C1127.19,1068.53,1141.55,1067.74,1142.54,1076.72Z" class="cls-20"></path><path d="M1078.1,924.55c3,20.87,14.55,86.72,35,118.85,6.59,10.36-16.6,16.16-16.72,16.13-3.11-.76-8.29-5.41-10.68-7.43-16.59-14-50.26-53.75-50.26-85.59,0-15.53-.29-45.18,11.74-52.72C1054.57,909.15,1076.92,916.27,1078.1,924.55Z" class="cls-11"></path><path d="M941.09,906.27s10,19.08,56.66,32.56,20-20.39,20-20.39l-65.24-21.39Z" class="cls-13"></path><path d="M980.93,1077a32.94,32.94,0,0,0,4.08-8.73c2.65-8.72,3.59-15.06,8.68-28.64,5.34-14.26,11.68-31.8,19.6-50,2.44-5.63,5-11.33,7.8-17,4.93-10.15,18.49-8.74,23.32-20.22,0,0,18.82-39.78-15.78-40.88s-100.38,106.42-104.15,116.83C920.34,1039.66,905.47,1087.9,980.93,1077Z" class="cls-3"></path><path d="M1106.38,1076.72h-49.26s-1.84-7.57,1.39-12.72c2.87-4.56,1.77-7.15-.35-10.93a19.7,19.7,0,0,0,8.3,1.51,17.86,17.86,0,0,0,7.32-2.48c2.12,2.33,11.2,12.24,14,14.2C1091,1068.53,1105.39,1067.74,1106.38,1076.72Z" class="cls-21"></path><g class="cls-6"><path d="M993.69,1039.61c5.34-14.26,11.68-31.8,19.6-50-2.07-13.82-6.53-25.92-14-30.8C999.26,958.76,981.05,1011.68,993.69,1039.61Z" class="cls-11"></path></g><path d="M1049.34,923.07c3,20.87,7.15,88.2,27.58,120.33,6.59,10.36-16.6,16.16-16.72,16.13-3.11-.76-8.29-5.41-10.68-7.43-16.59-14-50.26-53.75-50.26-85.59,0-15.53,19.42-43.93,31.45-51.47C1038.12,910.4,1048.16,914.79,1049.34,923.07Z" class="cls-3"></path><path d="M1156,858.29l-50.44-5a3.27,3.27,0,0,0-3.39,2l-18.05,44.5a3.07,3.07,0,0,0,2.91,4.13l50.06,1.9a3.27,3.27,0,0,0,3.13-1.87l18.44-41.37A3.06,3.06,0,0,0,1156,858.29Z" class="cls-22"></path><path d="M1160.35,858.72l-50.44-5a3.28,3.28,0,0,0-3.39,1.95l-18,44.5a3.08,3.08,0,0,0,2.91,4.14l50.06,1.89a3.27,3.27,0,0,0,3.13-1.87L1163,862.94A3.06,3.06,0,0,0,1160.35,858.72Z" class="cls-23"></path><path d="M1132.39,879.5a2,2,0,0,0-2-2.88,4.84,4.84,0,0,0-4.18,2.88,2,2,0,0,0,2,2.88A4.83,4.83,0,0,0,1132.39,879.5Z" class="cls-1"></path><path d="M1158.84,862.93a1,1,0,0,0-.95-1.41,2.37,2.37,0,0,0-2.06,1.41,1,1,0,0,0,1,1.41A2.37,2.37,0,0,0,1158.84,862.93Z" class="cls-1"></path><path d="M948.21,880.45s69.91,24.16,80.42,23.66c6.79-.32,63.22-18.93,63.22-18.93l5.07,9s-54.93,33.13-70,33c-29.82-.33-80.13-17.5-85.8-20.87S931.71,883.87,948.21,880.45Z" class="cls-8"></path><path d="M1091.85,885.18s5.07-7.32,10.12-7.53,13.76,3.23,16.74,3.76,11.46,3.12,8.94,7-14.22,4.73-19.26,3.87-11.47,1.89-11.47,1.89Z" class="cls-8"></path><path d="M1100.59,877.87s8-3.45,10.32-4.09,1.83,0,1.15,2.05-4.82,4-4.82,4.62S1100.59,877.87,1100.59,877.87Z" class="cls-8"></path><path d="M1155.16,881.31s-3.2-9.9-6.72-6.79-1.44,6.47-1,10.6c.86,7.88,2.56,7.54,3.63,7.19S1156.35,885.27,1155.16,881.31Z" class="cls-8"></path><path d="M1155.35,882.81a12.25,12.25,0,0,1-6.91,12.82l2.53-5.8Z" class="cls-8"></path><path d="M1009.21,851.7s-3-1.11-11.46-.47c0,0,.45,3.09,6.68,3.4A4.94,4.94,0,0,0,1009.21,851.7Z" class="cls-17"></path><path d="M984.23,892.37a37.34,37.34,0,0,1-27.73,22.79S921,904.91,938.69,882.24C938.69,882.24,956.15,870.07,984.23,892.37Z" class="cls-12"></path><path d="M1155.35,884s1.47-4.63,1.56-5.43,0-1.21-.78-.65-1.92,2.05-1.58,3.46S1155.35,884,1155.35,884Z" class="cls-8"></path></g><path d="M694.65,467.2a4.53,4.53,0,0,0-.9,5.08v0c1.31,3.39,5.62,7.17,10.64,10.94.64.49,1.21.93,1.7,1.34l.38.32c.11.08.2.17.3.25,4.67,4,2.91,5,11.31,13.17,9.57,9.34,16.16,9.51,18,8.66,1.58-.73-1.64-5.68-5.21-11.25l-.52-.82c-.48-.74-.95-1.49-1.42-2.23-4.19-6.71-3.11-9.85-2.12-19.83.81-8.11,13.45-45.3,13.45-45.3l-18.35-3s-5.52,29.61-11.61,34.17c-3.26,2.43-6.9,2.46-10,4.27l-.65.38A23.91,23.91,0,0,0,694.65,467.2Z" class="cls-24"></path><path d="M694.65,467.2a4.53,4.53,0,0,0-.9,5.08v0c1.6,3.38,5.81,7.14,10.65,10.91.64.49,1.19.94,1.69,1.37l.38.32c.11.08.2.17.3.25,4.67,4,2.91,5,11.31,13.17,9.57,9.34,16.16,9.51,18,8.66,1.58-.73-1.64-5.68-5.21-11.25a40.89,40.89,0,0,1-17.06-11.8c-5.77-6.9-9.61-15.77-13.54-20.9l-.65.38A23.91,23.91,0,0,0,694.65,467.2Z" class="cls-10"></path><path d="M842.57,456.45c1.13,5.31,9.21,4.42,18.22,2.36s6.88.39,19.71-.95,16.72-5.82,17.12-7.61c.35-1.59-6-2.15-12.8-2.88l-2.57-.29c-7.68-.91-13.31-5.56-20.28-9.38-6.61-3.61-16.47-18.35-16.47-18.35l-17.6,1.31s9.24,13.16,12.81,18.88c2.1,3.37,2,7.82,1.73,11.26A19.82,19.82,0,0,0,842.57,456.45Z" class="cls-24"></path><path d="M860.79,458.81c9-2.07,6.88.39,19.71-.95s16.72-5.82,17.12-7.61c.35-1.59-6-2.15-12.8-2.88l-.06.12a37.76,37.76,0,0,1-18.38,5.36c-8.71.2-17.93-2.14-23.94-2.05a19.82,19.82,0,0,0,.13,5.65C843.7,461.76,851.78,460.87,860.79,458.81Z" class="cls-10"></path><path d="M775.12,350.85l-16.45,41.54-21.48,54.24a37,37,0,0,1-11.42-1,50.49,50.49,0,0,1-11-5s6-58.24,17.09-91.67c2.85-8.58,6-15.52,9.57-19.43C758.65,310.39,775.12,350.85,775.12,350.85Z" class="cls-13"></path><path d="M758.39,284.88c-10.27-3.11-38.64.54-68,5.8a6.64,6.64,0,0,1-6.74-2.82l-4.13-6.39-66.71-4.89s-17.22,36.71-9.9,67.24c1.8,7.48,11.55,17.17,26.45,18,41.79,2.44,70-11.17,113.35-25.48,7.54-2.49,11,13.24,18.82,28.69s73.71,68.43,73.71,68.43,10.12.09,14.31-1.38c4.49-1.58,6.14-3.64,6.14-3.64S782.7,292.24,758.39,284.88Z" class="cls-12"></path><path d="M676.89,99.22c-8.54-4.21-21.54-4.78-23.66-5C628,91,612.74,125.45,611.85,135.89c-1.65,19.25-12.5,22.19-27.78,34.24-30.63,24.17-21.65,52.26-4.9,62.69,10.05,6.27,27.76,0,27.76,0,.25.17,48.44-25.27,72.2-37.54C714.74,190.53,698.67,110,676.89,99.22Z" class="cls-10"></path><path d="M659.22,184.83c.1.06-11.69,3.84-19.58.56-7.41-3.07-13-14.52-12.92-14.53,3.37-.14,7.08-2.91,9.93-21.07l1.44.48,24.15,8.16s-1.75,7.27-2.88,14.19C658.41,178.44,657.9,184,659.22,184.83Z" class="cls-8"></path><path d="M662.24,158.43s-1.21,5.16-2.54,12.22c-13.88-2.35-19.66-13.34-21.61-20.38Z" class="cls-14"></path><path d="M665.84,165.64s-33.05-4.16-30-23.43.89-32.79,22.12-30.95,24.15,9.77,24.79,16.44S674.52,166.23,665.84,165.64Z" class="cls-8"></path><path d="M681.58,117.14s-21.16,17.1-35.56,18.48-19.84-3-19.84-3a53.42,53.42,0,0,0,13.59-17.28,10.09,10.09,0,0,1,8.34-5.59C658.39,109,677.87,108.58,681.58,117.14Z" class="cls-10"></path><path d="M668.35,115.6s7.08,6.42,9.31,11.19c2.15,4.59,2.79,15.59,1.08,20,0,0,11-20.12,4.78-29.89C676.9,106.48,668.35,115.6,668.35,115.6Z" class="cls-10"></path><path d="M687.05,230.52c2.53,56-1.48,52.89-7.59,55.61a41.45,41.45,0,0,1-13.25,2.7c-20.52,1.28-56.58-1.9-58-5.45-4.73-12.31-1.39-16.14-5.34-35-.41-2-.92-4.18-1.51-6.54-3.3-12.94-6.5-17.35,5.18-38.14,10.59-18.84,21.59-34.13,22.58-33.57,28,15.56,30.2,2.48,30.2,2.48S685.66,199.92,687.05,230.52Z" class="cls-3"></path><path d="M758.67,392.39l-21.48,54.24a37,37,0,0,1-11.42-1,50.49,50.49,0,0,1-11-5s6-58.24,17.09-91.67Z" class="cls-12"></path><path d="M659.36,172.62s28.76,4.58,32.13,16.19l23.25,79.9s-14.62,2.47-21.37-3.87-23.5-58.78-23.5-58.78Z" class="cls-3"></path><path d="M666.21,288.83c-20.52,1.28-56.58-1.9-58-5.45-4.73-12.31-1.39-16.14-5.34-35l9.9-26.15s-1.64,29.12,7.52,36.77,37.46,14.79,41.91,21.18A22.58,22.58,0,0,1,666.21,288.83Z" class="cls-11"></path><path d="M642.7,276.58s20.24-4.23,23.51-2.54,11.25,7.82,12.25,10-7.27-1.62-10-2.3c-1.75-.44-6.33,1.06-8.6,1.77-9.56,3-15.41,1.45-15.41,1.45Z" class="cls-8"></path><path d="M629.15,170.13S602,171.7,592.56,184c-13.24,17.33-39.52,91.19-24.46,101,17,11.1,77.18,2.9,77.18,2.9s2-8.78-.79-13-48.1-11.11-50.19-13.08,26.14-38.26,26.14-44.14S629.15,170.13,629.15,170.13Z" class="cls-3"></path><path d="M667.19,279.32s4.24,5.14,5.63,5.75a4.43,4.43,0,0,0,2.29.46l-2.86-4.83Z" class="cls-8"></path><path d="M666.21,274l12.33,5.62a2.25,2.25,0,0,1-2,.74,31.36,31.36,0,0,1-5.35-1.38Z" class="cls-8"></path><polygon points="672.82 292.93 770.36 292.93 799.7 224.47 702.31 224.47 672.82 292.93" class="cls-9"></polygon><polygon points="771.5 290.27 642.7 290.27 642.7 292.93 770.36 292.93 771.5 290.27" class="cls-9"></polygon><path d="M745.74,258.7a3.21,3.21,0,0,0-3.31-4.35,6.61,6.61,0,0,0-6,4.35,3.21,3.21,0,0,0,3.31,4.36A6.6,6.6,0,0,0,745.74,258.7Z" class="cls-1"></path><path d="M1.7,1075.89H1474.31a1.69,1.69,0,0,1,1.69,1.69v.72a1.69,1.69,0,0,1-1.69,1.69H1.7a1.7,1.7,0,0,1-1.7-1.7v-.72a1.7,1.7,0,0,1,1.7-1.7Z" class="cls-25"></path></g></g></svg>