<svg viewBox="0 0 1620 1028" xmlns="http://www.w3.org/2000/svg"><defs><style>.cls-1{fill:#e8f2fa;}.cls-2{fill:#dceaff;}.cls-3,.cls-8{fill:#a9c2ff;}.cls-4,.cls-5{fill:#6d9ae5;}.cls-5{opacity:0.7;}.cls-6{fill:#8eaff1;}.cls-7{fill:#cedfff;}.cls-8{opacity:0.5;}.cls-9{fill:#fc7600;}.cls-10{fill:#ff912b;}.cls-11{fill:#ef6500;}.cls-12{fill:#2a3967;}.cls-13{fill:#ffae73;}.cls-14{fill:#fff;}.cls-15{fill:#26529f;}.cls-16{fill:#1e3865;}.cls-17{fill:#f99352;}.cls-18{fill:#2d3554;}.cls-19{fill:#0b3563;}.cls-20{fill:#033c7e;}.cls-21{fill:#f9924f;}.cls-22{fill:#25468f;}</style></defs><g id="图层_2"><g id="图层_1-2"><path d="M68,1025.87S-45.43,925.65,33.69,686.09c46.64-141.23,204-119.54,196-373.21S366.8-51.35,626.79,63.78c187.63,83.08,469-292.85,701.56,179.74,89.7,182.27,246.69,158.65,288.48,492,11.43,91.11-5.71,186.5-90.36,290.37Z" class="cls-1"></path><path d="M753.28,421.34,766.86,410a3.37,3.37,0,0,1,3.89-.35c1.6.92,3.24,1.78,4.93,2.56a58.12,58.12,0,0,0,9.48,3.49,4,4,0,0,1,2.82,3.46l2.69,19.74a3.74,3.74,0,0,0,3.85,3.48l16.11-1.2A3.86,3.86,0,0,0,814,437.3l.68-18.37a4,4,0,0,1,2.71-3.82,61.88,61.88,0,0,0,18.74-9.62,3.37,3.37,0,0,1,4.51.41l7.3,7.55a3.45,3.45,0,0,0,5,.05l12-12a3.76,3.76,0,0,0,.63-.81,4.5,4.5,0,0,0-.1-4.74l-7.51-11.48-1.83-2.79a77.2,77.2,0,0,0,4.06-9.25,80.39,80.39,0,0,0,3.58-13.17,3.85,3.85,0,0,1,3-3.23l14.06-2.42a4.14,4.14,0,0,0,3.16-4.46l-.81-13.93-.24-4a4,4,0,0,0-3.6-4l-13.58-.66a3.71,3.71,0,0,1-3.36-2.92,79.06,79.06,0,0,0-5.39-14.44,12.46,12.46,0,0,0-.56-1.16,2.83,2.83,0,0,1-.17-.4,4.59,4.59,0,0,1,.66-4.56l10.82-13.43a3.14,3.14,0,0,0,.33-.48,4.68,4.68,0,0,0-.29-5.11L857.14,270.5a3.43,3.43,0,0,0-5-.59L838,281.78a3.25,3.25,0,0,1-4.08.2,63.29,63.29,0,0,0-8.95-5.09q-2.51-1.17-5.05-2.08a4.19,4.19,0,0,1-2.59-3.44l-2.58-19a3.76,3.76,0,0,0-3.82-3.47L795,250.14a4.07,4.07,0,0,0-3.54,4.1l-.55,14.53a4.08,4.08,0,0,1-3,4A60.44,60.44,0,0,0,769,280.47a3.37,3.37,0,0,1-4.32-.57l-10.7-11a3.51,3.51,0,0,0-5.09-.05L737,280.75a4.52,4.52,0,0,0-.52,5.57l.43.68,8.73,13.33a4.68,4.68,0,0,1,.13,4.82v0a76.71,76.71,0,0,0-5.29,11.52c-.8,2.17-1.47,4.36-2.08,6.58a3.87,3.87,0,0,1-3,2.93l-14.28,2.46a4.21,4.21,0,0,0-3.22,4.52L719,351.13a5.43,5.43,0,0,0,.32,1.43,3.82,3.82,0,0,0,3.24,2.5l10.84.49a3.77,3.77,0,0,1,3.13,2.25,5,5,0,0,1,.35,1.11,78.85,78.85,0,0,0,9.92,26.76,4.59,4.59,0,0,1,.06,4.54,3.6,3.6,0,0,1-.39.57l-8.76,10.86a4.62,4.62,0,0,0,0,5.6l.24.31,10.3,13.21A3.47,3.47,0,0,0,753.28,421.34Zm69-107.59a45.68,45.68,0,0,1,5.87,6.29c3.53,4.58,6.78,13.33,7.14,19.41.05.65.07,1.29.1,1.93,1.09,39.16-39.2,57.66-62.6,28-3.06-3.88-5.85-10.62-7-16.44a29.88,29.88,0,0,1-.48-3.83,51.22,51.22,0,0,1,1.4-15.34C773.5,307.15,801.85,295.82,822.27,313.75Z" class="cls-2"></path><path d="M861.52,232.26l11.65-7.15a2.65,2.65,0,0,1,3.06.22q1.72,1.36,3.58,2.6a46.87,46.87,0,0,0,7,3.9,3.29,3.29,0,0,1,1.86,3l.16,15.67a3.08,3.08,0,0,0,2.65,3.19l12.63,1.07a2.89,2.89,0,0,0,3-2.57L909.43,238a3,3,0,0,1,2.47-2.63,46.58,46.58,0,0,0,15.5-5.14,2.71,2.71,0,0,1,3.47.89l4.93,6.77a2.72,2.72,0,0,0,3.85.67l10.49-7.85a2.48,2.48,0,0,0,.57-.55,3.5,3.5,0,0,0,.38-3.69l-4.71-9.85-1.15-2.4a56.79,56.79,0,0,0,4.06-6.68,62.21,62.21,0,0,0,4.07-9.78,2.86,2.86,0,0,1,2.63-2.14l11.16-.13a3.1,3.1,0,0,0,2.89-3.07l.73-10.92.21-3.13a3.32,3.32,0,0,0-2.41-3.56l-10.49-2.21a3,3,0,0,1-2.32-2.69A64.45,64.45,0,0,0,953,158.06c-.09-.34-.2-.64-.32-1a2.58,2.58,0,0,1-.1-.33,3.54,3.54,0,0,1,1-3.46l9.71-9.08a2.35,2.35,0,0,0,.3-.33,3.67,3.67,0,0,0,.28-4L956.92,128a2.74,2.74,0,0,0-3.83-1.09l-12.16,7.46a2.57,2.57,0,0,1-3.19-.36,51.62,51.62,0,0,0-6.45-5.07q-1.83-1.22-3.72-2.25a3.42,3.42,0,0,1-1.68-3l-.15-15.06a3.09,3.09,0,0,0-2.63-3.18l-12.5-1a3.05,3.05,0,0,0-3.15,2.74l-1.85,11.22a3.09,3.09,0,0,1-2.7,2.71,46.08,46.08,0,0,0-15.41,3.65,2.68,2.68,0,0,1-3.3-1L877,113.9a2.76,2.76,0,0,0-3.94-.67L862.58,121a3.51,3.51,0,0,0-.94,4.27l.27.57,5.47,11.45a3.66,3.66,0,0,1-.36,3.76v0a57.34,57.34,0,0,0-5.23,8.28c-.83,1.6-1.57,3.21-2.26,4.86a2.87,2.87,0,0,1-2.58,1.9l-11.33.13a3.17,3.17,0,0,0-3,3.11l-.92,14.08a4,4,0,0,0,.1,1.15,3.14,3.14,0,0,0,2.27,2.35l8.38,1.74a3.08,3.08,0,0,1,2.21,2.13,3.86,3.86,0,0,1,.17.91,63.57,63.57,0,0,0,5.09,22,3.57,3.57,0,0,1-.4,3.53,2.57,2.57,0,0,1-.35.39L851.34,215a3.6,3.6,0,0,0-.58,4.34l.16.28,6.71,11.54A2.78,2.78,0,0,0,861.52,232.26Zm64.09-75a38.29,38.29,0,0,1,3.94,5.62,33.45,33.45,0,0,1,3.66,16c0,.51-.07,1-.12,1.52-3,30.55-36.08,39.9-51.36,14a34.22,34.22,0,0,1-3.82-13.64,25.48,25.48,0,0,1,0-3,39.34,39.34,0,0,1,2.59-11.74C888.36,146.07,911.49,140.8,925.61,157.28Z" class="cls-2"></path><path d="M1383.9,818.29l14.39-8.82a3.29,3.29,0,0,1,3.78.26c1.42,1.14,2.9,2.21,4.42,3.23a58,58,0,0,0,8.67,4.8,4.07,4.07,0,0,1,2.29,3.76l.2,19.34a3.8,3.8,0,0,0,3.27,3.94l15.6,1.33a3.58,3.58,0,0,0,3.67-3.18l2.87-17.52a3.71,3.71,0,0,1,3.06-3.24,57.84,57.84,0,0,0,19.13-6.35,3.33,3.33,0,0,1,4.28,1.09l6.09,8.37a3.36,3.36,0,0,0,4.76.82l12.95-9.68a3.53,3.53,0,0,0,.71-.68,4.37,4.37,0,0,0,.46-4.57L1488.69,799l-1.42-3a71.81,71.81,0,0,0,5-8.25,75.57,75.57,0,0,0,5-12.08,3.54,3.54,0,0,1,3.26-2.63l13.78-.16a3.86,3.86,0,0,0,3.57-3.79l.9-13.49.25-3.86a4.1,4.1,0,0,0-3-4.4l-12.94-2.73a3.74,3.74,0,0,1-2.88-3.32,78.15,78.15,0,0,0-3.43-14.68,11.82,11.82,0,0,0-.39-1.19,3.17,3.17,0,0,1-.12-.41,4.35,4.35,0,0,1,1.19-4.27l12-11.22a3.69,3.69,0,0,0,.38-.41,4.53,4.53,0,0,0,.34-4.95l-8.52-14.62a3.37,3.37,0,0,0-4.73-1.34l-15,9.21A3.2,3.2,0,0,1,1478,697a63.6,63.6,0,0,0-8-6.27c-1.51-1-3-1.93-4.59-2.77a4.26,4.26,0,0,1-2.07-3.7l-.19-18.6a3.79,3.79,0,0,0-3.25-3.91l-15.43-1.3a3.78,3.78,0,0,0-3.89,3.39l-2.28,13.86a3.8,3.8,0,0,1-3.33,3.34,56.61,56.61,0,0,0-19,4.51,3.33,3.33,0,0,1-4.08-1.21L1403,672.15a3.42,3.42,0,0,0-4.88-.82l-12.88,9.59a4.33,4.33,0,0,0-1.17,5.27l.34.71,6.76,14.13a4.55,4.55,0,0,1-.45,4.65v0a71.92,71.92,0,0,0-6.46,10.23c-1,2-1.94,4-2.79,6a3.56,3.56,0,0,1-3.19,2.36l-14,.16a3.9,3.9,0,0,0-3.64,3.84l-1.14,17.37a5.15,5.15,0,0,0,.13,1.43,3.85,3.85,0,0,0,2.8,2.89l10.35,2.15a3.84,3.84,0,0,1,2.73,2.64,5,5,0,0,1,.2,1.12,78.37,78.37,0,0,0,6.29,27.19,4.43,4.43,0,0,1-.49,4.37,4,4,0,0,1-.44.48l-9.71,9.07a4.45,4.45,0,0,0-.72,5.36l.2.34,8.29,14.26A3.41,3.41,0,0,0,1383.9,818.29ZM1463,725.71a47.9,47.9,0,0,1,4.87,6.94c2.84,4.94,4.9,13.84,4.52,19.72,0,.63-.09,1.25-.15,1.87-3.67,37.73-44.55,49.27-63.42,17.24-2.46-4.2-4.33-11.08-4.71-16.85a29.12,29.12,0,0,1,0-3.74,48.79,48.79,0,0,1,3.19-14.5C1417.05,711.87,1445.61,705.37,1463,725.71Z" class="cls-2"></path><path d="M1469,649.59l7.7-4.72a1.77,1.77,0,0,1,2,.14c.76.61,1.55,1.18,2.36,1.73a31.79,31.79,0,0,0,4.64,2.57,2.18,2.18,0,0,1,1.23,2l.1,10.35a2,2,0,0,0,1.76,2.1l8.34.72a1.92,1.92,0,0,0,2-1.71l1.54-9.37a2,2,0,0,1,1.63-1.73,31,31,0,0,0,10.24-3.4,1.78,1.78,0,0,1,2.29.59l3.26,4.47a1.8,1.8,0,0,0,2.54.44l6.93-5.18a1.86,1.86,0,0,0,.38-.36,2.35,2.35,0,0,0,.25-2.45l-3.11-6.5-.76-1.59a37.75,37.75,0,0,0,2.68-4.41,41,41,0,0,0,2.69-6.46,1.89,1.89,0,0,1,1.74-1.41l7.37-.09a2.05,2.05,0,0,0,1.91-2l.48-7.22.14-2.07a2.19,2.19,0,0,0-1.6-2.35l-6.92-1.46a2,2,0,0,1-1.54-1.77,41.59,41.59,0,0,0-1.83-7.86c-.06-.22-.13-.42-.21-.64a1.42,1.42,0,0,1-.07-.22,2.32,2.32,0,0,1,.64-2.28l6.41-6a2.18,2.18,0,0,0,.21-.22,2.45,2.45,0,0,0,.18-2.65l-4.56-7.82a1.8,1.8,0,0,0-2.53-.72l-8,4.93a1.71,1.71,0,0,1-2.11-.24,34.16,34.16,0,0,0-4.26-3.35c-.81-.54-1.63-1-2.46-1.48a2.25,2.25,0,0,1-1.1-2l-.11-9.95a2,2,0,0,0-1.73-2.1l-8.26-.69a2,2,0,0,0-2.08,1.81l-1.22,7.42a2,2,0,0,1-1.78,1.78,30.48,30.48,0,0,0-10.19,2.42A1.77,1.77,0,0,1,1484,578l-4.78-6.54a1.83,1.83,0,0,0-2.61-.44l-6.89,5.13a2.32,2.32,0,0,0-.63,2.82l.18.38,3.62,7.56a2.45,2.45,0,0,1-.24,2.49h0a38.62,38.62,0,0,0-3.46,5.48c-.54,1-1,2.12-1.49,3.21a1.89,1.89,0,0,1-1.7,1.25l-7.49.09a2.08,2.08,0,0,0-1.94,2l-.62,9.3a3.07,3.07,0,0,0,.07.76,2.09,2.09,0,0,0,1.5,1.55l5.54,1.15a2.07,2.07,0,0,1,1.46,1.41,2.9,2.9,0,0,1,.11.6,41.85,41.85,0,0,0,3.36,14.55,2.39,2.39,0,0,1-.26,2.34,2.73,2.73,0,0,1-.23.25l-5.2,4.86a2.36,2.36,0,0,0-.38,2.87l.1.18,4.44,7.63A1.82,1.82,0,0,0,1469,649.59Zm42.34-49.53a25.21,25.21,0,0,1,2.6,3.72,22,22,0,0,1,2.42,10.55c0,.33-.05.67-.08,1-2,20.18-23.83,26.36-33.93,9.22a22.78,22.78,0,0,1-2.52-9,15,15,0,0,1,0-2,26.22,26.22,0,0,1,1.71-7.75C1486.77,592.66,1502.05,589.18,1511.38,600.06Z" class="cls-3"></path><path d="M187.45,651.36l8.44-5.18a1.93,1.93,0,0,1,2.22.16c.83.66,1.7,1.29,2.59,1.89a35.48,35.48,0,0,0,5.08,2.82,2.38,2.38,0,0,1,1.35,2.2l.11,11.35a2.24,2.24,0,0,0,1.93,2.31l9.14.78a2.11,2.11,0,0,0,2.16-1.87l1.68-10.27a2.19,2.19,0,0,1,1.79-1.91,33.78,33.78,0,0,0,11.23-3.72,2,2,0,0,1,2.51.64l3.57,4.91A2,2,0,0,0,244,656l7.6-5.68a1.94,1.94,0,0,0,.41-.4,2.56,2.56,0,0,0,.28-2.68l-3.41-7.13-.84-1.74a42.81,42.81,0,0,0,2.94-4.83A44.83,44.83,0,0,0,254,626.4a2.08,2.08,0,0,1,1.91-1.55l8.08-.09a2.24,2.24,0,0,0,2.09-2.22l.53-7.91.15-2.27a2.4,2.4,0,0,0-1.75-2.58l-7.59-1.6a2.18,2.18,0,0,1-1.68-1.94,46.2,46.2,0,0,0-2-8.62,5.73,5.73,0,0,0-.23-.7,2.17,2.17,0,0,1-.07-.24,2.54,2.54,0,0,1,.7-2.5l7-6.58a1.23,1.23,0,0,0,.22-.24,2.67,2.67,0,0,0,.2-2.91l-5-8.57a2,2,0,0,0-2.78-.79l-8.8,5.4a1.85,1.85,0,0,1-2.31-.26,38.23,38.23,0,0,0-4.68-3.67c-.88-.59-1.78-1.13-2.69-1.63a2.48,2.48,0,0,1-1.21-2.17L234,561.85a2.21,2.21,0,0,0-1.9-2.29L223,558.8a2.22,2.22,0,0,0-2.29,2l-1.33,8.13a2.24,2.24,0,0,1-2,2,33.46,33.46,0,0,0-11.16,2.65,1.94,1.94,0,0,1-2.39-.71l-5.24-7.17a2,2,0,0,0-2.86-.49l-7.56,5.63a2.53,2.53,0,0,0-.68,3.09l.19.42,4,8.29a2.64,2.64,0,0,1-.26,2.72h0a43,43,0,0,0-3.79,6c-.6,1.16-1.14,2.33-1.63,3.52a2.09,2.09,0,0,1-1.88,1.38l-8.2.1a2.27,2.27,0,0,0-2.13,2.25l-.68,10.19a3.28,3.28,0,0,0,.08.84,2.27,2.27,0,0,0,1.65,1.69l6.06,1.26a2.25,2.25,0,0,1,1.6,1.55,2.41,2.41,0,0,1,.12.66,46.28,46.28,0,0,0,3.69,16,2.58,2.58,0,0,1-.29,2.56,2.18,2.18,0,0,1-.25.28l-5.7,5.33a2.59,2.59,0,0,0-.42,3.14l.11.2,4.87,8.36A2,2,0,0,0,187.45,651.36Zm46.42-54.3a27.14,27.14,0,0,1,2.86,4.07,24.32,24.32,0,0,1,2.65,11.56l-.09,1.1c-2.15,22.13-26.13,28.9-37.2,10.11a24.72,24.72,0,0,1-2.76-9.88,14.66,14.66,0,0,1,0-2.2,28.34,28.34,0,0,1,1.87-8.5C206.89,588.93,223.65,585.12,233.87,597.06Z" class="cls-2"></path><path d="M957.49,491.5l21.69-17.56a5.35,5.35,0,0,1,6.16-.44c2.5,1.51,5.08,2.91,7.72,4.2a92.16,92.16,0,0,0,14.88,5.79,6.39,6.39,0,0,1,4.39,5.55l3.77,31.24c.38,3.34,3,5.8,6,5.62l25.46-1.42c2.88-.17,5.17-2.75,5.36-6l1.51-29a6.3,6.3,0,0,1,4.36-5.95,97.23,97.23,0,0,0,29.81-14.64,5.36,5.36,0,0,1,7.12.79l11.35,12.13a5.43,5.43,0,0,0,7.84.24l19.21-18.63a5.37,5.37,0,0,0,1-1.26,7.12,7.12,0,0,0-.06-7.49l-11.58-18.34-2.83-4.47a120.05,120.05,0,0,0,6.63-14.47,127.1,127.1,0,0,0,6-20.69,6,6,0,0,1,4.8-5l22.26-3.41c3-.49,5.26-3.49,5.09-6.95l-1-22-.29-6.31c-.14-3.44-2.56-6.24-5.6-6.43l-21.42-1.45a5.87,5.87,0,0,1-5.24-4.71,125,125,0,0,0-8.17-23c-.26-.66-.55-1.23-.85-1.84a4.55,4.55,0,0,1-.27-.64,7.23,7.23,0,0,1,1.16-7.18L1141.16,287a5.37,5.37,0,0,0,.54-.74,7.41,7.41,0,0,0-.34-8.09L1125,256.42a5.42,5.42,0,0,0-7.89-1.09l-22.62,18.33a5.16,5.16,0,0,1-6.45.19,100.37,100.37,0,0,0-14-8.31q-3.93-1.92-7.92-3.43a6.66,6.66,0,0,1-4-5.51l-3.63-30c-.39-3.31-3-5.75-6-5.59l-25.18,1.44c-3,.16-5.5,2.87-5.7,6.37l-1.2,22.93a6.43,6.43,0,0,1-4.79,6.16,95,95,0,0,0-30,11.66,5.33,5.33,0,0,1-6.81-1l-16.63-17.72a5.53,5.53,0,0,0-8-.23L935,269a7.15,7.15,0,0,0-.94,8.79l.67,1.08,13.46,21.31a7.41,7.41,0,0,1,.11,7.62l0,0a121.29,121.29,0,0,0-8.62,18c-1.3,3.42-2.42,6.85-3.43,10.34a6.06,6.06,0,0,1-4.74,4.53l-22.6,3.46c-3.09.47-5.35,3.56-5.19,7L905,379.61a8.17,8.17,0,0,0,.46,2.27,6.08,6.08,0,0,0,5.06,4.05l17.11,1.1a6,6,0,0,1,4.89,3.64,8.28,8.28,0,0,1,.53,1.77,124.7,124.7,0,0,0,15,42.54,7.25,7.25,0,0,1,0,7.17,6.65,6.65,0,0,1-.62.88l-14.09,16.9a7.31,7.31,0,0,0-.2,8.83l.38.51,16,21.16A5.5,5.5,0,0,0,957.49,491.5Zm111.42-167.84a73.13,73.13,0,0,1,9.11,10.11c5.48,7.34,10.41,21.25,10.84,30.86.05,1,.08,2,.1,3.06.82,61.86-63.23,89.88-99.49,42.39-4.73-6.22-9-16.94-10.63-26.17a46.5,46.5,0,0,1-.67-6.06,80.29,80.29,0,0,1,2.57-24.17C992.05,311.8,1037.08,294.75,1068.91,323.66Z" class="cls-2"></path><path d="M284.13,439.43c6.79-39,64.57-31.52,64.57-31.52s42.88,63.84,54.24,64.54-27.23-62.68-27.23-62.68c21.68-4.12,79.19,21.75,79.19,21.75s1.31,78.33,12.48,75.85-4.29-69.3-4.29-69.3c21.58,5.5,43,31.82,43,31.82C533.57,513.33,482.82,551,482.82,551s1,27.13,17.68,57h0a95.79,95.79,0,0,1,7.69,15l-5.76.45c-.58-1.71-1.2-3.35-1.88-4.93a0,0,0,0,0,0,0l0-.07c-.45-1-1.11-2.36-1.93-4h0c-2-3.76-3.37-6.54-4.25-8.56v0c-6-11.81-14.61-27.15-19.88-30.09a13.88,13.88,0,0,0,1.05-3.08c-.34,1-.69,2-1.05,3.08C466.06,600.32,417,608.2,389.14,604s-16.43-13.9-2.52-29.29,45.13-14.1,53.94-20.4-4.91-10.81-23.13-7.77S391.35,571,362,576.54s-55.82-55.61-55.82-55.61c20.87,5.55,56.71-10.09,57.62-18.17s-53.26-3-61.86-4.71S277.34,478.39,284.13,439.43Z" class="cls-2"></path><path d="M749.55,587.63,719,998.62s-3.2,24.92,13.19,25c26.94.08,134.1,0,134.1,0s-20.28-5.18-20-16.85c.29-13.76,35.73-423,35.73-423Z" class="cls-4"></path><path d="M875,1016.13c-5.3,0-107.65.38-133.88,0-11.44-.17-13.44-11.5-13.54-18.84a42.46,42.46,0,0,1,.35-6.12l.79-10.68,2-27.23,1.79-24,2.3-30.91,1.94-26.09,21.71-292,132.41-3.89s-14.92,171.26-25.48,295.93c-1.18,13.89-2.3,27.21-3.33,39.64q-.51,6-1,11.63c-1,11.79-1.87,22.62-2.65,32.19-.41,5-.79,9.72-1.13,14-1.35,16.81-2.14,27.55-2.15,29.59a20.45,20.45,0,0,0,.26,3.33C857.57,1015.7,873,1016.13,875,1016.13Z" class="cls-3"></path><polygon points="427.99 363.98 502.43 702.18 512.63 748.5 547.3 906.02 1191.48 906.02 1063.68 363.98 427.99 363.98" class="cls-3"></polygon><polygon points="427.98 363.98 417.67 367.87 533.58 917.78 547.3 906.02 427.98 363.98" class="cls-4"></polygon><polygon points="533.58 917.78 1173.8 917.78 1191.48 906.02 547.3 906.02 533.58 917.78" class="cls-4"></polygon><rect transform="translate(1655.44 2040.03) rotate(180)" height="7.45" width="138.62" y="1016.29" x="758.41" class="cls-3"></rect><polygon points="861.79 917.78 861.07 923.48 730.71 953.26 732.5 929.21 733.35 917.78 861.79 917.78" class="cls-5"></polygon><path d="M875,1016.13c-5.3,0-107.65.38-133.88,0-11.44-.17-13.44-11.5-13.54-18.84l129.75-27.61c-1.35,16.81-2.14,27.55-2.15,29.59a20.45,20.45,0,0,0,.26,3.33C857.57,1015.7,873,1016.13,875,1016.13Z" class="cls-6"></path><polygon points="830.28 796.29 547.3 906.02 512.63 748.5 830.28 796.29" class="cls-6"></polygon><polygon points="427.98 363.98 1063.68 363.98 1166.04 799.61 523.91 799.61 427.98 363.98" class="cls-7"></polygon><polygon points="453.61 379.45 544.92 776.29 1135.26 776.29 1042.93 384.02 453.61 379.45" class="cls-8"></polygon><rect height="159.34" width="223.29" y="616.93" x="667.3" class="cls-9"></rect><rect height="159.33" width="223.29" y="616.94" x="778.95" class="cls-10"></rect><polygon points="778.95 640.47 731.88 693.7 667.43 693.7 667.43 616.93 778.95 616.93 778.95 640.47" class="cls-11"></polygon><polygon points="667.3 616.93 617.1 671.72 728.81 671.72 778.95 616.93 667.3 616.93" class="cls-10"></polygon><polygon points="1002.24 622.58 778.95 616.94 778.95 637.12 778.94 637.12 778.94 640.42 820.46 691.9 1002.23 691.9 1002.23 640.66 1001.08 639.13 1002.24 639.13 1002.24 622.58" class="cls-9"></polygon><polygon points="778.95 616.93 823.13 671.72 1043.46 671.72 1002.24 616.93 778.95 616.93" class="cls-10"></polygon><path d="M389.85,596.77s1.55-19.13-17.35-19.13c0,0,5.73,1.75,8.69,5.27,0,0-12.06-8-25.18,4.29s-5,43.16-9,49-19.53,7-17.63,26,49.32,42.67,46.27,58.34c0,0,18.59-30.89,5.3-45,0,0,6.47,6.9,7.13,15.1,0,0,1.76-16-7.25-21.14-8-4.53-14.5-21.1-13.81-24.06S389.85,596.77,389.85,596.77Z" class="cls-12"></path><path d="M371.24,688.65s14.12,66.08,28,79.29c8.33,7.94,33.11,26.16,33.11,26.16L422,798.33S387.66,785.2,380,775s-28.76-61.5-28.76-61.5Z" class="cls-13"></path><path d="M452.53,818.25l-3.32-9.3c-3.56-10-12.11-16.49-21.61-16.49H366.37V1024H619.64V836.4H476.32C465.86,836.4,456.45,829.22,452.53,818.25Z" class="cls-10"></path><path d="M404.57,933.25V916.56l51.76-25.64V908l-36.14,16.81,36.14,16.81v17.3Z" class="cls-14"></path><path d="M510.12,871h13.79L476.54,983h-13.8Z" class="cls-14"></path><path d="M581.44,916.56v16.69l-51.76,25.64V941.83L565.83,925l-36.15-16.81V890.92Z" class="cls-14"></path><path d="M238.5,804.74l.39.77c3.09,6.08,10.18,21,18,37.25,3.7,7.73,7.56,15.78,11.23,23.35,6.32,13.06,12.07,24.7,15.43,30.85s5.92,10.64,6.94,12.4h0a3.28,3.28,0,0,1,.33,1.81,106.45,106.45,0,0,0,.22,16.38c4.71,53,36.31,81.4,36.31,81.4l9.4,1.57s-13.3-55.71-17.22-87.2a67.52,67.52,0,0,1-.71-12.49c.69-8.2-.6-20.25-3-34.08-4.34-24.58-12.29-54.74-19.21-78.89-.44-1.54-13.65-55.6-13.65-55.6-11.09,11-51.54,15.49-51.54,15.49S224.52,776.62,238.5,804.74Z" class="cls-15"></path><path d="M356.47,1024H317.25s-.94-6.76,1.11-11.89c2-4.92,4.76-5.08.36-12.79,2.49,2.9,10.5,4.1,16.17,3.24.69,1.27,4.48,9.82,6.8,11.7C344.25,1016.33,355.68,1015.58,356.47,1024Z" class="cls-16"></path><path d="M238.5,804.74l.39.77c3.09,6.08,19.81,41,27.62,57.28-9.05-42.1-2.76-84.2-2.76-84.2Z" class="cls-16"></path><path d="M384.5,594.08c.26-1.16-22.39,11.58-23.54,13-10.63,13.33-7.6,30.72-1.52,30.89,3.9.1,3.15,7.44,3.15,7.44L406,624.65S400.79,590.16,384.5,594.08Z" class="cls-12"></path><path d="M369.91,678.72s6.61,14.94,5.78,27c0,0-8,14.23-28.64,17.83C347.05,723.6,364.82,678.71,369.91,678.72Z" class="cls-10"></path><path d="M269.07,761.06l.14-8.3C254.59,754.85,218.82,733,218.82,733s-15.28,11.5-17.38,44.33c-1,16-7.48,83.82-8.19,104.06-.26,7.34-.35,12.57-.38,14.66v0a3.07,3.07,0,0,1-.62,1.71,97,97,0,0,0-7.92,13.73C162,958.44,173.7,1022.19,173.7,1022.19l5.17-1.48s18.86-66.09,31.18-94.68a61.57,61.57,0,0,1,5.58-10.8c4.63-6.36,9.52-17.17,14.33-30.18C239.06,860.46,269.07,761.06,269.07,761.06Z" class="cls-15"></path><path d="M204.88,1024H165.67s-.94-6.76,1.1-11.89c2-4.92,5-7.16,4.3-13.11,2.5,2.9,6.56,6.15,12.23,5.29.69,1.27,4.48,8.09,6.8,10C192.66,1016.33,204.09,1015.58,204.88,1024Z" class="cls-16"></path><path d="M344.41,733.13c-5.27,1,.86,5.75-6.39,6.64-10.31,1.27-21,2.14-26.53,4.66-2,.92-3.4,2.05-3.82,3.5-2.42,8.22-17.73,22.34-17.73,22.34-68.28-3.51-72.67-37.93-72.67-37.93,44.31-48.67,82-75.21,113.17-78.49,7.58-.8,17.8.27,22.6,2.69,10.9,5.49,16.87,22.18,16.87,22.18S364.42,729.27,344.41,733.13Z" class="cls-10"></path><path d="M338,739.77c-10.31,1.27-21,2.14-26.53,4.66C309.21,705.91,325.28,677,325.28,677S335.76,725.19,338,739.77Z" class="cls-9"></path><path d="M346.92,670.43s-25.93-1.61-30.54,16.81,8.64,91.89,11.5,99.48c5.2,13.81,30.51,53.22,30.51,53.22l9.31-3.21s-16.88-60.2-20.65-66.16C341.14,761.21,354.68,678.44,346.92,670.43Z" class="cls-13"></path><path d="M367.7,836.73s.48,4.67,2.22,7.08,6.82,8.24,6.91,11.66c0,0-.26,1.51-1.35,1.24s-4.86-4.51-6.8-4.21c0,0,1,6.85,2.06,8.77s.21,10.1-.41,11.76-8.18-8.93-11.29-13.65-.05-23.93-.05-23.93Z" class="cls-13"></path><path d="M311.27,711.86c.06.43,24.53,5.09,39.84-3.7,0,0,12.78-45.3-5.49-43.13s-29.09,8.67-29.55,18.57S311.27,711.86,311.27,711.86Z" class="cls-10"></path><path d="M352.46,659.72c1.94,6.9,8.44,26.57,17.45,19-.31-1.46,1.58-5.73,3.81-10.07,2.86-5.54,6.25-11.21,6.25-11.21L365.3,642.9l-.88-.87a40.94,40.94,0,0,1-10.92,14A3.56,3.56,0,0,0,352.46,659.72Z" class="cls-13"></path><path d="M380,657.45s-3.39,5.65-6.24,11.2c-9.13-6.36-9.14-19.13-8.43-25.75Z" class="cls-17"></path><path d="M380.38,664.74s-22.15-13.94-14.26-29.41,10.34-27.68,24.81-19.43,14.19,15.92,12.67,21.81S386.34,668,380.38,664.74Z" class="cls-13"></path><path d="M407.34,628.69c-1-6.87-4.1-7.53-6.25-7.07-8.18-15.29-21.54-9.32-21.54-9.32a29.32,29.32,0,0,1-17.46,11.85s2.57,5.41,13.16,8.76c3.23,1,6.91.4,10.45-.94a54.81,54.81,0,0,1-15,6.4c13.95,1.45,27.23-13,28.61-14.52.64,2.23,1.77,6.91,1.09,10.33-.92,4.66-4.57,13.08-2.34,14.17C398,648.35,408.86,639,407.34,628.69Z" class="cls-12"></path><path d="M436.39,794.13s-6.18,5.24-1.52,8.67,13,4.35,13,2.1C448,797.36,444.66,792,436.39,794.13Z" class="cls-13"></path><rect rx="2.13" height="4.26" width="1591.68" y="1023.74" class="cls-18"></rect><path d="M525.85,506.37c-.72-3.36.58-6,3.33-6s5.14,2.59,5.86,6-.56,6-3.33,6S526.57,509.76,525.85,506.37Zm6.86,0c-.45-2.1-1.71-3.68-3.07-3.68s-1.92,1.54-1.46,3.69,1.7,3.69,3.07,3.69S533.16,508.49,532.71,506.35Z" class="cls-10"></path><path d="M486.1,419.37l-1.7.5-.92-2.09,2.76-1h1.56l2.49,11.66H488Z" class="cls-6"></path><path d="M494.17,422.64c-.72-3.35.58-6,3.33-6s5.14,2.59,5.86,6-.56,6-3.33,6S494.89,426,494.17,422.64Zm6.86,0c-.45-2.1-1.71-3.68-3.07-3.68s-1.92,1.54-1.46,3.69,1.7,3.69,3.07,3.68S501.48,424.77,501,422.63Z" class="cls-6"></path><path d="M675.32,419l-1.69.5-.92-2.08,2.76-1H677l2.49,11.66h-2.24Z" class="cls-6"></path><path d="M683.39,422.26c-.72-3.36.58-6,3.33-6s5.14,2.59,5.87,6-.57,6-3.33,6S684.12,425.65,683.39,422.26Zm6.86,0c-.45-2.1-1.71-3.68-3.07-3.68s-1.91,1.54-1.45,3.69,1.69,3.69,3.06,3.69S690.71,424.38,690.25,422.24Z" class="cls-6"></path><path d="M697.14,422.23c-.72-3.36.58-6,3.33-6s5.14,2.59,5.87,6-.57,6-3.34,6S697.87,425.62,697.14,422.23Zm6.86,0c-.45-2.1-1.71-3.69-3.07-3.69s-1.91,1.55-1.45,3.7,1.69,3.68,3.06,3.68S704.46,424.35,704,422.22Z" class="cls-6"></path><path d="M767.46,422.26c-.72-3.36.58-6,3.33-6s5.14,2.59,5.86,6-.56,6-3.33,6S768.18,425.65,767.46,422.26Zm6.86,0c-.45-2.1-1.71-3.68-3.07-3.68s-1.92,1.54-1.46,3.69,1.7,3.69,3.07,3.69S774.77,424.38,774.32,422.24Z" class="cls-6"></path><path d="M781.21,422.23c-.72-3.36.58-6,3.33-6s5.14,2.59,5.86,6-.56,6-3.33,6S781.93,425.62,781.21,422.23Zm6.86,0c-.45-2.1-1.71-3.69-3.07-3.69s-1.92,1.55-1.46,3.7,1.69,3.68,3.07,3.68S788.52,424.35,788.07,422.22Z" class="cls-6"></path><path d="M795,422.2c-.72-3.35.58-6,3.33-6s5.14,2.59,5.86,6-.56,6-3.33,6S795.68,425.59,795,422.2Zm6.86,0c-.45-2.1-1.71-3.69-3.07-3.68s-1.92,1.54-1.46,3.69,1.69,3.69,3.07,3.68S802.27,424.32,801.82,422.19Z" class="cls-6"></path><path d="M890.54,421.94c-.72-3.36.58-6,3.33-6s5.14,2.59,5.87,6-.57,6-3.33,6S891.27,425.33,890.54,421.94Zm6.86,0c-.45-2.1-1.7-3.69-3.06-3.69s-1.92,1.54-1.46,3.69,1.69,3.69,3.06,3.69S897.86,424.06,897.4,421.93Z" class="cls-6"></path><path d="M903.7,421.91c-.72-3.35.58-6,3.33-6s5.14,2.59,5.87,6-.57,6-3.33,6S904.43,425.3,903.7,421.91Zm6.86,0c-.45-2.1-1.71-3.69-3.07-3.68s-1.91,1.54-1.45,3.69,1.69,3.69,3.06,3.68S911,424,910.56,421.9Z" class="cls-6"></path><path d="M918,421.89c-.72-3.36.58-6,3.33-6s5.14,2.59,5.87,6-.57,6-3.33,6S918.74,425.28,918,421.89Zm6.86,0c-.45-2.1-1.71-3.68-3.07-3.68s-1.91,1.54-1.45,3.69,1.69,3.69,3.06,3.69S925.33,424,924.87,421.87Z" class="cls-6"></path><path d="M941.39,421.84c-.72-3.35.58-6,3.33-6s5.14,2.58,5.86,6-.57,6-3.33,6S942.11,425.23,941.39,421.84Zm6.85,0c-.44-2.1-1.7-3.69-3.06-3.68s-1.92,1.54-1.46,3.69,1.69,3.68,3.07,3.68S948.7,424,948.24,421.83Z" class="cls-6"></path><path d="M956.19,418.52l-1.7.5-.92-2.08,2.76-1h1.55l2.5,11.66h-2.25Z" class="cls-6"></path><path d="M964.26,421.8c-.72-3.36.58-6,3.33-6s5.14,2.59,5.86,6-.56,6-3.33,6S965,425.19,964.26,421.8Zm6.86,0c-.45-2.1-1.71-3.69-3.07-3.69s-1.92,1.54-1.46,3.69,1.69,3.69,3.07,3.69S971.57,423.92,971.12,421.79Z" class="cls-6"></path><path d="M987.17,421.73c-.72-3.36.58-6,3.33-6s5.14,2.59,5.86,6-.56,6-3.33,6S987.89,425.12,987.17,421.73Zm6.86,0c-.45-2.1-1.71-3.69-3.07-3.69s-1.92,1.54-1.46,3.69,1.7,3.69,3.07,3.69S994.48,423.85,994,421.72Z" class="cls-6"></path><path d="M590.66,447.67c-.71-3.36.58-6,3.33-6s5.14,2.58,5.87,6-.57,6-3.33,6S591.39,451.06,590.66,447.67Zm6.86,0c-.45-2.1-1.7-3.69-3.06-3.68s-1.92,1.54-1.46,3.69,1.69,3.68,3.07,3.68S598,449.79,597.52,447.66Z" class="cls-6"></path><path d="M604.41,447.65c-.72-3.36.58-6,3.33-6s5.14,2.59,5.87,6-.57,6-3.33,6S605.14,451,604.41,447.65Zm6.86,0c-.45-2.1-1.7-3.68-3.06-3.68s-1.92,1.54-1.46,3.69,1.69,3.69,3.07,3.69S611.73,449.77,611.27,447.63Z" class="cls-6"></path><path d="M946.78,447c-.72-3.35.58-6,3.33-6s5.14,2.59,5.87,6-.57,6-3.33,6S947.51,450.43,946.78,447Zm6.86,0c-.45-2.1-1.71-3.69-3.07-3.68s-1.91,1.54-1.45,3.69,1.69,3.68,3.06,3.68S954.1,449.16,953.64,447Z" class="cls-6"></path><path d="M961.58,443.72l-1.69.5-.92-2.08,2.76-1h1.55l2.5,11.66h-2.25Z" class="cls-6"></path><path d="M969.65,447c-.72-3.36.58-6,3.33-6s5.14,2.59,5.87,6-.57,6-3.33,6S970.38,450.39,969.65,447Zm6.86,0c-.45-2.1-1.7-3.69-3.07-3.69s-1.91,1.54-1.45,3.7,1.69,3.68,3.06,3.68S977,449.12,976.51,447Z" class="cls-6"></path><path d="M1020.06,446.88c-.72-3.36.58-6,3.33-6s5.14,2.59,5.87,6-.57,6-3.33,6S1020.79,450.27,1020.06,446.88Zm6.86,0c-.45-2.1-1.7-3.68-3.06-3.68s-1.92,1.54-1.46,3.69,1.69,3.69,3.06,3.69S1027.38,449,1026.92,446.86Z" class="cls-6"></path><path d="M1034.87,443.56l-1.7.5-.92-2.09,2.76-1h1.55l2.5,11.66h-2.25Z" class="cls-6"></path><path d="M579.1,583.73c-.72-3.36.58-6,3.33-6s5.14,2.59,5.86,6-.56,6-3.33,6S579.82,587.12,579.1,583.73Zm6.86,0c-.45-2.11-1.71-3.69-3.07-3.69s-1.92,1.54-1.46,3.69,1.69,3.69,3.07,3.69S586.41,585.85,586,583.72Z" class="cls-6"></path><path d="M592.85,583.7c-.72-3.36.58-6,3.33-6s5.14,2.58,5.86,6-.56,6-3.33,6S593.57,587.09,592.85,583.7Zm6.86,0c-.45-2.1-1.71-3.69-3.07-3.68s-1.92,1.54-1.46,3.69,1.69,3.68,3.07,3.68S600.16,585.82,599.71,583.69Z" class="cls-6"></path><path d="M607.65,580.38l-1.7.5L605,578.8l2.76-1h1.56l2.49,11.66h-2.25Z" class="cls-6"></path><path d="M629.47,583.63c-.72-3.36.58-6,3.33-6s5.14,2.58,5.86,6-.56,6-3.33,6S630.19,587,629.47,583.63Zm6.86,0c-.45-2.1-1.71-3.69-3.07-3.68s-1.92,1.54-1.46,3.69,1.69,3.68,3.07,3.68S636.78,585.75,636.33,583.62Z" class="cls-6"></path><path d="M643.22,583.61c-.72-3.36.58-6,3.33-6s5.14,2.59,5.86,6-.56,6-3.33,6S643.94,587,643.22,583.61Zm6.86,0c-.45-2.1-1.71-3.68-3.07-3.68s-1.92,1.54-1.46,3.69,1.69,3.69,3.07,3.68S650.53,585.73,650.08,583.59Z" class="cls-6"></path><path d="M657,583.58c-.72-3.36.58-6,3.33-6s5.14,2.59,5.86,6-.57,6-3.33,6S657.69,587,657,583.58Zm6.86,0c-.45-2.1-1.71-3.69-3.07-3.69s-1.92,1.55-1.46,3.7,1.69,3.68,3.07,3.68S664.28,585.7,663.83,583.57Z" class="cls-6"></path><path d="M828.61,583.73c-.72-3.36.58-6,3.33-6s5.14,2.59,5.87,6-.57,6-3.33,6S829.34,587.12,828.61,583.73Zm6.86,0c-.45-2.11-1.7-3.69-3.06-3.69s-1.92,1.54-1.46,3.69,1.69,3.69,3.06,3.69S835.93,585.85,835.47,583.72Z" class="cls-6"></path><path d="M842.36,583.7c-.72-3.36.58-6,3.33-6s5.14,2.58,5.87,6-.57,6-3.33,6S843.09,587.09,842.36,583.7Zm6.86,0c-.45-2.1-1.71-3.69-3.07-3.68s-1.91,1.54-1.45,3.69,1.69,3.68,3.06,3.68S849.68,585.82,849.22,583.69Z" class="cls-6"></path><path d="M857.17,580.38l-1.7.5-.92-2.08,2.76-1h1.55l2.5,11.66h-2.25Z" class="cls-6"></path><path d="M920.79,583.73c-.72-3.36.58-6,3.33-6s5.14,2.59,5.87,6-.57,6-3.33,6S921.52,587.12,920.79,583.73Zm6.86,0c-.45-2.11-1.71-3.69-3.07-3.69s-1.91,1.54-1.45,3.69,1.69,3.69,3.06,3.69S928.11,585.85,927.65,583.72Z" class="cls-6"></path><path d="M934.54,583.7c-.72-3.36.58-6,3.33-6s5.14,2.58,5.87,6-.57,6-3.34,6S935.27,587.09,934.54,583.7Zm6.86,0c-.45-2.1-1.71-3.69-3.07-3.68s-1.91,1.54-1.45,3.69,1.69,3.68,3.06,3.68S941.86,585.82,941.4,583.69Z" class="cls-6"></path><path d="M949.34,580.38l-1.69.5-.92-2.08,2.76-1H951l2.5,11.66h-2.25Z" class="cls-6"></path><path d="M879,583.63c-.72-3.36.58-6,3.33-6s5.14,2.58,5.87,6-.57,6-3.33,6S879.71,587,879,583.63Zm6.86,0c-.45-2.1-1.7-3.69-3.06-3.68s-1.92,1.54-1.46,3.69,1.69,3.68,3.06,3.68S886.3,585.75,885.84,583.62Z" class="cls-6"></path><path d="M892.73,583.61c-.72-3.36.58-6,3.33-6s5.14,2.59,5.87,6-.57,6-3.33,6S893.46,587,892.73,583.61Zm6.86,0c-.45-2.1-1.71-3.68-3.07-3.68s-1.91,1.54-1.45,3.69,1.69,3.69,3.06,3.68S900.05,585.73,899.59,583.59Z" class="cls-6"></path><path d="M906.48,583.58c-.72-3.36.58-6,3.33-6s5.14,2.59,5.87,6-.57,6-3.33,6S907.21,587,906.48,583.58Zm6.86,0c-.45-2.1-1.71-3.69-3.07-3.69s-1.91,1.55-1.45,3.7,1.69,3.68,3.06,3.68S913.8,585.7,913.34,583.57Z" class="cls-6"></path><path d="M704,583.32c-.72-3.36.58-6,3.33-6s5.14,2.59,5.86,6-.56,6-3.33,6S704.71,586.71,704,583.32Zm6.86,0c-.45-2.11-1.71-3.69-3.07-3.69s-1.92,1.54-1.46,3.69S708,587,709.39,587,711.3,585.44,710.85,583.31Z" class="cls-6"></path><path d="M718.79,580l-1.7.5-.92-2.09,2.76-1h1.56L723,589.07h-2.24Z" class="cls-6"></path><path d="M726.86,583.27c-.72-3.35.58-6,3.33-6s5.14,2.59,5.86,6-.56,6-3.33,6S727.58,586.66,726.86,583.27Zm6.86,0c-.45-2.1-1.71-3.69-3.07-3.68s-1.92,1.54-1.46,3.69,1.7,3.69,3.07,3.68S734.18,585.39,733.72,583.26Z" class="cls-6"></path><path d="M998.8,583c-.71-3.36.59-6,3.34-6s5.13,2.58,5.86,6-.57,6-3.33,6S999.53,586.34,998.8,583Zm6.86,0c-.45-2.1-1.7-3.69-3.06-3.68s-1.92,1.54-1.46,3.69,1.69,3.68,3.07,3.68S1006.12,585.07,1005.66,582.94Z" class="cls-6"></path><path d="M1013.61,579.63l-1.7.5-.92-2.08,2.76-1h1.55l2.5,11.66h-2.25Z" class="cls-6"></path><path d="M1021.68,582.91c-.72-3.36.58-6,3.33-6s5.14,2.59,5.86,6-.57,6-3.33,6S1022.4,586.3,1021.68,582.91Zm6.86,0c-.45-2.11-1.71-3.69-3.07-3.69s-1.92,1.54-1.46,3.69,1.69,3.69,3.07,3.69S1029,585,1028.54,582.9Z" class="cls-6"></path><path d="M497.76,473.84l-1.69.5-.92-2.08,2.76-1h1.55l2.5,11.66h-2.25Z" class="cls-6"></path><path d="M505.83,477.12c-.72-3.36.58-6,3.33-6s5.14,2.59,5.87,6-.57,6-3.33,6S506.56,480.51,505.83,477.12Zm6.86,0c-.45-2.1-1.71-3.69-3.07-3.69s-1.91,1.55-1.45,3.7,1.69,3.68,3.06,3.68S513.15,479.24,512.69,477.11Z" class="cls-6"></path><path d="M583.7,477c-.72-3.36.58-6,3.33-6s5.14,2.58,5.87,6-.57,6-3.34,6S584.43,480.36,583.7,477Zm6.86,0c-.45-2.1-1.71-3.69-3.07-3.69s-1.91,1.55-1.45,3.7,1.69,3.68,3.06,3.68S591,479.09,590.56,477Z" class="cls-6"></path><path d="M597.45,476.94c-.72-3.35.58-6,3.33-6s5.14,2.59,5.86,6-.56,6-3.33,6S598.17,480.34,597.45,476.94Zm6.86,0c-.45-2.1-1.71-3.68-3.07-3.68s-1.92,1.54-1.46,3.69,1.7,3.69,3.07,3.68S604.77,479.07,604.31,476.93Z" class="cls-6"></path><path d="M611.2,476.92c-.72-3.36.58-6,3.33-6s5.14,2.59,5.86,6-.56,6-3.33,6S611.92,480.31,611.2,476.92Zm6.86,0c-.45-2.1-1.71-3.69-3.07-3.69s-1.92,1.54-1.46,3.69,1.7,3.69,3.07,3.69S618.51,479,618.06,476.91Z" class="cls-6"></path><path d="M626,473.6l-1.7.5-.91-2.08,2.75-1h1.56l2.49,11.66H628Z" class="cls-6"></path><path d="M635.2,473.58l-1.7.5-.92-2.08,2.76-1h1.55l2.5,11.66h-2.25Z" class="cls-6"></path><path d="M643.27,476.86c-.72-3.36.58-6,3.33-6s5.13,2.59,5.86,6-.57,6-3.33,6S644,480.25,643.27,476.86Zm6.85,0c-.44-2.1-1.7-3.68-3.06-3.68s-1.92,1.54-1.46,3.69,1.69,3.69,3.07,3.69S650.58,479,650.12,476.84Z" class="cls-6"></path><path d="M998.83,476.2c-.72-3.35.58-6,3.33-6s5.14,2.59,5.87,6-.57,6-3.33,6S999.56,479.59,998.83,476.2Zm6.86,0c-.45-2.1-1.71-3.69-3.07-3.68s-1.91,1.54-1.45,3.69,1.69,3.69,3.06,3.68S1006.15,478.32,1005.69,476.19Z" class="cls-10"></path><path d="M1012.58,476.18c-.72-3.36.58-6,3.33-6s5.14,2.59,5.87,6-.57,6-3.34,6S1013.31,479.57,1012.58,476.18Zm6.86,0c-.45-2.1-1.71-3.68-3.07-3.68s-1.91,1.54-1.45,3.69,1.69,3.69,3.06,3.69S1019.9,478.3,1019.44,476.16Z" class="cls-10"></path><path d="M1026.33,476.15c-.72-3.36.58-6,3.33-6s5.14,2.58,5.87,6-.57,6-3.34,6S1027.06,479.54,1026.33,476.15Zm6.86,0c-.45-2.1-1.71-3.69-3.07-3.69s-1.91,1.55-1.45,3.7,1.69,3.68,3.06,3.68S1033.65,478.27,1033.19,476.14Z" class="cls-6"></path><path d="M1041.13,472.83l-1.69.5-.92-2.08,2.76-1h1.55l2.49,11.66h-2.24Z" class="cls-6"></path><path d="M504,503.12l-1.7.5-.92-2.09,2.76-1h1.56l2.49,11.66H506Z" class="cls-6"></path><path d="M512.1,506.39c-.72-3.35.58-6,3.33-6s5.14,2.59,5.86,6-.56,6-3.33,6S512.82,509.78,512.1,506.39Zm6.86,0c-.45-2.1-1.71-3.69-3.07-3.68s-1.92,1.54-1.46,3.69,1.7,3.69,3.07,3.68S519.41,508.51,519,506.38Z" class="cls-6"></path><path d="M576.22,506.27c-.72-3.36.58-6,3.33-6s5.14,2.58,5.86,6-.56,6-3.33,6S576.94,509.66,576.22,506.27Zm6.86,0c-.45-2.1-1.71-3.69-3.07-3.69s-1.92,1.55-1.46,3.7,1.69,3.68,3.07,3.68S583.53,508.39,583.08,506.26Z" class="cls-6"></path><path d="M590,506.25c-.72-3.36.58-6,3.33-6s5.14,2.59,5.86,6-.56,6-3.33,6S590.69,509.64,590,506.25Zm6.86,0c-.45-2.1-1.71-3.68-3.07-3.68s-1.92,1.54-1.46,3.69,1.69,3.69,3.07,3.68S597.28,508.37,596.83,506.23Z" class="cls-6"></path><path d="M537.82,562.92c-.72-3.36.58-6,3.33-6s5.14,2.59,5.87,6-.57,6-3.33,6S538.55,566.31,537.82,562.92Zm6.86,0c-.45-2.1-1.7-3.68-3.06-3.68s-1.92,1.54-1.46,3.69,1.69,3.69,3.06,3.68S545.14,565,544.68,562.9Z" class="cls-10"></path><path d="M552.63,559.59l-1.7.5L550,558l2.76-1h1.55l2.5,11.66h-2.25Z" class="cls-10"></path><path d="M509.74,530.39l-1.7.5-.92-2.08,2.76-1h1.55l2.5,11.66h-2.25Z" class="cls-6"></path><path d="M517.81,533.67c-.72-3.36.58-6,3.33-6s5.13,2.59,5.86,6-.57,6-3.33,6S518.53,537.06,517.81,533.67Zm6.86,0c-.45-2.1-1.71-3.68-3.07-3.68s-1.92,1.54-1.46,3.69,1.69,3.69,3.07,3.69S525.12,535.79,524.67,533.65Z" class="cls-6"></path><path d="M531.55,533.64c-.71-3.36.59-6,3.34-6s5.13,2.58,5.86,6-.57,6-3.33,6S532.28,537,531.55,533.64Zm6.86,0c-.45-2.1-1.7-3.69-3.06-3.69s-1.92,1.55-1.46,3.7,1.69,3.68,3.07,3.68S538.87,535.76,538.41,533.63Z" class="cls-6"></path><path d="M546.36,530.32l-1.7.5-.92-2.08,2.76-1h1.55l2.5,11.66H548.3Z" class="cls-6"></path><path d="M554.43,533.6c-.72-3.36.58-6,3.33-6s5.14,2.59,5.86,6-.56,6-3.33,6S555.15,537,554.43,533.6Zm6.86,0c-.45-2.11-1.71-3.69-3.07-3.69s-1.92,1.54-1.46,3.69,1.69,3.69,3.07,3.69S561.74,535.72,561.29,533.59Z" class="cls-6"></path><path d="M568.17,533.57c-.71-3.36.59-6,3.34-6s5.13,2.58,5.86,6-.57,6-3.33,6S568.9,537,568.17,533.57Zm6.87,0c-.45-2.1-1.71-3.69-3.07-3.69s-1.92,1.55-1.46,3.7,1.69,3.68,3.07,3.68S575.49,535.69,575,533.56Z" class="cls-6"></path><path d="M581.92,533.55c-.71-3.36.59-6,3.34-6s5.13,2.59,5.86,6-.57,6-3.33,6S582.65,536.94,581.92,533.55Zm6.86,0c-.45-2.1-1.7-3.68-3.06-3.68s-1.92,1.54-1.46,3.69,1.69,3.69,3.07,3.68S589.24,535.67,588.78,533.53Z" class="cls-6"></path><path d="M595.67,533.52c-.71-3.36.58-6,3.33-6s5.14,2.59,5.87,6-.57,6-3.33,6S596.4,536.91,595.67,533.52Zm6.86,0c-.45-2.1-1.7-3.69-3.06-3.69s-1.92,1.54-1.46,3.69,1.69,3.69,3.07,3.69S603,535.64,602.53,533.51Z" class="cls-6"></path><path d="M609.42,533.49c-.72-3.35.58-6,3.33-6s5.14,2.59,5.87,6-.57,6-3.33,6S610.15,536.88,609.42,533.49Zm6.86,0c-.45-2.1-1.7-3.69-3.06-3.68s-1.92,1.54-1.46,3.69,1.69,3.68,3.07,3.68S616.74,535.61,616.28,533.48Z" class="cls-6"></path><path d="M623.17,533.47c-.72-3.36.58-6,3.33-6s5.14,2.59,5.87,6-.57,6-3.33,6S623.9,536.86,623.17,533.47Zm6.86,0c-.45-2.1-1.7-3.68-3.06-3.68s-1.92,1.54-1.46,3.69,1.69,3.69,3.06,3.69S630.49,535.59,630,533.45Z" class="cls-6"></path><path d="M638,530.15l-1.7.5-.92-2.09,2.76-1h1.55l2.5,11.66h-2.25Z" class="cls-6"></path><path d="M647.17,530.13l-1.7.5-.91-2.08,2.75-1h1.56l2.49,11.66h-2.24Z" class="cls-6"></path><path d="M655.24,533.41c-.72-3.36.58-6,3.33-6s5.14,2.59,5.87,6-.57,6-3.34,6S656,536.8,655.24,533.41Zm6.86,0c-.45-2.1-1.71-3.68-3.07-3.68s-1.91,1.54-1.45,3.69,1.69,3.69,3.06,3.68S662.56,535.53,662.1,533.39Z" class="cls-6"></path><path d="M516,559.66l-1.7.5-.92-2.08,2.76-1h1.55l2.5,11.66H518Z" class="cls-6"></path><path d="M524.07,562.94c-.72-3.36.58-6,3.33-6s5.14,2.58,5.87,6-.57,6-3.33,6S524.8,566.33,524.07,562.94Zm6.86,0c-.45-2.1-1.7-3.69-3.06-3.69s-1.92,1.55-1.46,3.7,1.69,3.68,3.06,3.68S531.39,565.06,530.93,562.93Z" class="cls-6"></path><path d="M560.69,562.87c-.72-3.36.58-6,3.33-6s5.14,2.58,5.87,6-.57,6-3.33,6S561.42,566.26,560.69,562.87Zm6.86,0c-.45-2.1-1.7-3.69-3.06-3.69s-1.92,1.55-1.46,3.7,1.69,3.68,3.07,3.68S568,565,567.55,562.86Z" class="cls-6"></path><path d="M574.44,562.85c-.72-3.36.58-6,3.33-6s5.14,2.59,5.87,6-.57,6-3.33,6S575.17,566.24,574.44,562.85Zm6.86,0c-.45-2.1-1.7-3.68-3.06-3.68s-1.92,1.54-1.46,3.69,1.69,3.69,3.06,3.68S581.76,565,581.3,562.83Z" class="cls-6"></path><path d="M550,627.82c-.72-3.35.58-6,3.33-6s5.14,2.59,5.87,6-.57,6-3.33,6S550.71,631.21,550,627.82Zm6.86,0c-.45-2.1-1.71-3.69-3.07-3.68s-1.91,1.54-1.45,3.69,1.69,3.69,3.06,3.68S557.3,629.94,556.84,627.81Z" class="cls-6"></path><path d="M564.78,624.5l-1.69.5-.92-2.08,2.76-1h1.55l2.5,11.66h-2.25Z" class="cls-6"></path><path d="M528.16,624.57l-1.69.5-.92-2.08,2.76-1h1.55l2.49,11.66h-2.24Z" class="cls-6"></path><path d="M536.23,627.85c-.72-3.36.58-6,3.33-6s5.14,2.59,5.87,6-.57,6-3.33,6S537,631.24,536.23,627.85Zm6.86,0c-.45-2.1-1.71-3.69-3.07-3.69s-1.91,1.55-1.45,3.7,1.69,3.68,3.06,3.68S543.55,630,543.09,627.84Z" class="cls-6"></path><path d="M572.85,627.78c-.72-3.36.58-6,3.33-6s5.14,2.58,5.87,6-.57,6-3.33,6S573.58,631.17,572.85,627.78Zm6.86,0c-.45-2.1-1.7-3.69-3.06-3.69s-1.92,1.55-1.46,3.7,1.69,3.68,3.06,3.68S580.17,629.9,579.71,627.77Z" class="cls-10"></path><path d="M586.6,627.75c-.72-3.35.58-6,3.33-6s5.14,2.59,5.87,6-.57,6-3.33,6S587.33,631.14,586.6,627.75Zm6.86,0c-.45-2.1-1.71-3.69-3.07-3.68s-1.91,1.54-1.45,3.69,1.69,3.69,3.06,3.68S593.92,629.87,593.46,627.74Z" class="cls-10"></path><path d="M533,648.7c-.72-3.35.58-6,3.33-6s5.14,2.59,5.87,6-.57,6-3.33,6S533.72,652.09,533,648.7Zm6.86,0c-.45-2.1-1.7-3.69-3.07-3.68s-1.91,1.54-1.45,3.69,1.69,3.69,3.06,3.68S540.31,650.82,539.85,648.69Z" class="cls-6"></path><path d="M547.8,645.38l-1.7.5-.92-2.08,2.76-1h1.55l2.5,11.66h-2.25Z" class="cls-6"></path><path d="M555.86,648.66c-.72-3.36.58-6,3.33-6s5.14,2.59,5.87,6-.57,6-3.33,6S556.59,652.05,555.86,648.66Zm6.86,0c-.45-2.1-1.7-3.69-3.06-3.69s-1.92,1.55-1.46,3.7,1.69,3.68,3.07,3.68S563.18,650.78,562.72,648.65Z" class="cls-6"></path><path d="M569.61,648.63c-.72-3.35.58-6,3.33-6s5.14,2.59,5.87,6-.57,6-3.33,6S570.34,652,569.61,648.63Zm6.86,0c-.45-2.1-1.7-3.69-3.06-3.68s-1.92,1.54-1.46,3.69,1.69,3.69,3.06,3.68S576.93,650.75,576.47,648.62Z" class="cls-6"></path><path d="M588.19,562.82c-.72-3.36.58-6,3.33-6s5.14,2.59,5.87,6-.57,6-3.33,6S588.92,566.21,588.19,562.82Zm6.86,0c-.45-2.1-1.7-3.69-3.06-3.69s-1.92,1.55-1.46,3.69,1.69,3.69,3.06,3.69S595.51,564.94,595.05,562.81Z" class="cls-6"></path><path d="M601.94,562.79c-.72-3.35.58-6,3.33-6s5.14,2.59,5.87,6-.57,6-3.33,6S602.67,566.18,601.94,562.79Zm6.86,0c-.45-2.1-1.71-3.69-3.07-3.68s-1.91,1.54-1.45,3.69,1.69,3.68,3.06,3.68S609.26,564.91,608.8,562.78Z" class="cls-6"></path><path d="M567.44,703.35c-.72-3.36.58-6,3.33-6s5.14,2.58,5.87,6-.57,6-3.33,6S568.17,706.74,567.44,703.35Zm6.86,0c-.45-2.1-1.7-3.69-3.06-3.69s-1.92,1.55-1.46,3.7,1.69,3.68,3.06,3.68S574.76,705.47,574.3,703.34Z" class="cls-10"></path><path d="M582.25,700l-1.7.5-.92-2.08,2.76-1h1.55l2.5,11.65h-2.25Z" class="cls-10"></path><path d="M539.36,670.83l-1.7.5-.92-2.09,2.76-1h1.55l2.5,11.66H541.3Z" class="cls-6"></path><path d="M547.43,674.1c-.72-3.35.58-6,3.33-6s5.14,2.59,5.86,6-.57,6-3.33,6S548.15,677.49,547.43,674.1Zm6.86,0c-.45-2.1-1.71-3.69-3.07-3.68s-1.92,1.54-1.46,3.69,1.69,3.68,3.07,3.68S554.74,676.22,554.29,674.09Z" class="cls-6"></path><path d="M561.17,674.08c-.71-3.36.59-6,3.34-6s5.13,2.59,5.86,6-.57,6-3.33,6S561.9,677.47,561.17,674.08Zm6.86,0c-.44-2.1-1.7-3.68-3.06-3.68s-1.92,1.54-1.46,3.69,1.69,3.69,3.07,3.69S568.49,676.2,568,674.06Z" class="cls-6"></path><path d="M576,670.76l-1.7.5-.92-2.09,2.76-1h1.55l2.5,11.66h-2.25Z" class="cls-6"></path><path d="M545.63,700.1l-1.7.5-.92-2.08,2.76-1h1.55l2.5,11.65h-2.25Z" class="cls-6"></path><path d="M553.69,703.38c-.72-3.36.58-6,3.33-6s5.14,2.59,5.87,6-.57,6-3.33,6S554.42,706.77,553.69,703.38Zm6.86,0c-.45-2.1-1.7-3.68-3.06-3.68s-1.92,1.54-1.46,3.69,1.69,3.69,3.07,3.69S561,705.5,560.55,703.36Z" class="cls-6"></path><path d="M590.31,703.31c-.71-3.36.58-6,3.33-6s5.14,2.59,5.87,6-.57,6-3.33,6S591,706.7,590.31,703.31Zm6.86,0c-.45-2.1-1.7-3.68-3.06-3.68s-1.92,1.54-1.46,3.69,1.69,3.69,3.07,3.69S597.63,705.43,597.17,703.29Z" class="cls-6"></path><path d="M604.06,703.28c-.72-3.36.58-6,3.33-6s5.14,2.58,5.87,6-.57,6-3.33,6S604.79,706.67,604.06,703.28Zm6.86,0c-.45-2.1-1.7-3.69-3.06-3.69s-1.92,1.55-1.46,3.7,1.69,3.68,3.06,3.68S611.38,705.4,610.92,703.27Z" class="cls-6"></path><path d="M572.74,724c-.71-3.36.58-6,3.33-6s5.14,2.59,5.87,6-.57,6-3.33,6S573.47,727.41,572.74,724Zm6.86,0c-.45-2.1-1.7-3.69-3.06-3.69s-1.92,1.55-1.46,3.69,1.69,3.69,3.07,3.69S580.06,726.14,579.6,724Z" class="cls-10"></path><path d="M587.55,720.7l-1.7.5-.92-2.08,2.76-1h1.55l2.5,11.66h-2.25Z" class="cls-10"></path><path d="M559,724.05c-.71-3.36.59-6,3.34-6s5.13,2.59,5.86,6-.57,6-3.33,6S559.72,727.44,559,724.05Zm6.86,0c-.45-2.1-1.7-3.68-3.06-3.68s-1.92,1.54-1.46,3.69,1.69,3.69,3.07,3.68S566.31,726.17,565.85,724Z" class="cls-6"></path><path d="M595.62,724c-.72-3.36.58-6,3.33-6s5.14,2.59,5.86,6-.57,6-3.33,6S596.34,727.37,595.62,724Zm6.86,0c-.45-2.1-1.71-3.68-3.07-3.68s-1.92,1.54-1.46,3.69,1.69,3.69,3.07,3.69S602.93,726.1,602.48,724Z" class="cls-6"></path><path d="M609.36,724c-.71-3.36.59-6,3.34-6s5.13,2.59,5.86,6-.57,6-3.33,6S610.09,727.34,609.36,724Zm6.86,0c-.45-2.1-1.7-3.69-3.06-3.69s-1.92,1.55-1.46,3.69,1.69,3.69,3.07,3.69S616.68,726.07,616.22,723.94Z" class="cls-6"></path><path d="M617.81,703.26c-.72-3.36.58-6,3.33-6s5.14,2.59,5.87,6-.57,6-3.33,6S618.54,706.64,617.81,703.26Zm6.86,0c-.45-2.1-1.7-3.68-3.06-3.68s-1.92,1.54-1.46,3.69,1.69,3.69,3.06,3.68S625.13,705.38,624.67,703.24Z" class="cls-6"></path><path d="M631.56,703.23c-.72-3.36.58-6,3.33-6s5.14,2.59,5.87,6-.57,6-3.33,6S632.29,706.62,631.56,703.23Zm6.86,0c-.45-2.1-1.7-3.69-3.06-3.69s-1.92,1.54-1.46,3.69,1.69,3.69,3.06,3.69S638.88,705.35,638.42,703.22Z" class="cls-6"></path><path d="M997,502.2l-1.7.5-.92-2.08,2.76-1h1.56l2.49,11.66H999Z" class="cls-6"></path><path d="M1005.1,505.48c-.72-3.36.58-6,3.33-6s5.14,2.59,5.86,6-.56,6-3.33,6S1005.82,508.87,1005.1,505.48Zm6.86,0c-.45-2.1-1.71-3.68-3.07-3.68s-1.92,1.54-1.46,3.69,1.7,3.69,3.07,3.69S1012.41,507.6,1012,505.46Z" class="cls-6"></path><path d="M1018.85,505.45c-.72-3.36.58-6,3.33-6s5.14,2.58,5.86,6-.56,6-3.33,6S1019.57,508.84,1018.85,505.45Zm6.86,0c-.45-2.1-1.71-3.69-3.07-3.69s-1.92,1.55-1.46,3.7,1.7,3.68,3.07,3.68S1026.16,507.57,1025.71,505.44Z" class="cls-6"></path><path d="M1032.6,505.43c-.72-3.36.58-6,3.33-6s5.14,2.59,5.86,6-.56,6-3.33,6S1033.32,508.82,1032.6,505.43Zm6.86,0c-.45-2.1-1.71-3.68-3.07-3.68s-1.92,1.54-1.46,3.69,1.69,3.69,3.07,3.68S1039.91,507.55,1039.46,505.41Z" class="cls-6"></path><path d="M1047.4,502.1l-1.7.5-.92-2.08,2.76-1h1.56l2.49,11.66h-2.24Z" class="cls-6"></path><path d="M982.23,533.44c-.72-3.36.58-6,3.33-6s5.14,2.59,5.86,6-.56,6-3.33,6S983,536.83,982.23,533.44Zm6.86,0c-.45-2.1-1.71-3.69-3.07-3.69s-1.92,1.55-1.46,3.7,1.69,3.68,3.07,3.68S989.54,535.56,989.09,533.43Z" class="cls-6"></path><path d="M997,530.12l-1.7.5-.92-2.08,2.76-1h1.56l2.49,11.65H999Z" class="cls-6"></path><path d="M1005.1,533.4c-.72-3.36.58-6,3.33-6s5.14,2.59,5.86,6-.56,6-3.33,6S1005.82,536.79,1005.1,533.4Zm6.86,0c-.45-2.1-1.71-3.68-3.07-3.68s-1.92,1.54-1.46,3.69,1.7,3.69,3.07,3.69S1012.41,535.52,1012,533.38Z" class="cls-10"></path><path d="M1018.85,533.37c-.72-3.36.58-6,3.33-6s5.14,2.59,5.86,6-.56,6-3.33,6S1019.57,536.76,1018.85,533.37Zm6.86,0c-.45-2.1-1.71-3.69-3.07-3.69s-1.92,1.55-1.46,3.7,1.7,3.68,3.07,3.68S1026.16,535.49,1025.71,533.36Z" class="cls-10"></path><path d="M1032.6,533.34c-.72-3.35.58-6,3.33-6s5.14,2.59,5.86,6-.56,6-3.33,6S1033.32,536.73,1032.6,533.34Zm6.86,0c-.45-2.1-1.71-3.69-3.07-3.68s-1.92,1.54-1.46,3.69,1.69,3.69,3.07,3.68S1039.91,535.46,1039.46,533.33Z" class="cls-10"></path><path d="M1047.4,530l-1.7.5-.92-2.08,2.76-1h1.56l2.49,11.66h-2.24Z" class="cls-10"></path><path d="M1044.61,691.34l-1.7.5-.92-2.08,2.76-1h1.55l2.5,11.66h-2.25Z" class="cls-6"></path><path d="M1052.67,694.62c-.72-3.36.58-6,3.33-6s5.14,2.59,5.87,6-.57,6-3.33,6S1053.4,698,1052.67,694.62Zm6.86,0c-.45-2.1-1.7-3.69-3.06-3.69s-1.92,1.55-1.46,3.7,1.69,3.68,3.06,3.68S1060,696.74,1059.53,694.61Z" class="cls-6"></path><path d="M1066.42,694.59c-.72-3.35.58-6,3.33-6s5.14,2.59,5.87,6-.57,6-3.33,6S1067.15,698,1066.42,694.59Zm6.86,0c-.45-2.1-1.7-3.69-3.06-3.68s-1.92,1.54-1.46,3.69,1.69,3.69,3.06,3.68S1073.74,696.71,1073.28,694.58Z" class="cls-6"></path><path d="M1031.1,710.32l-1.7.5-.92-2.08,2.76-1h1.55l2.5,11.66H1033Z" class="cls-6"></path><path d="M1039.16,713.6c-.72-3.36.59-6,3.34-6s5.13,2.59,5.86,6-.57,6-3.33,6S1039.89,717,1039.16,713.6Zm6.86,0c-.45-2.11-1.7-3.69-3.06-3.69s-1.92,1.54-1.46,3.69,1.69,3.69,3.07,3.69S1046.48,715.72,1046,713.59Z" class="cls-6"></path><path d="M1052.91,713.57c-.72-3.36.58-6,3.33-6s5.14,2.58,5.87,6-.57,6-3.33,6S1053.64,717,1052.91,713.57Zm6.86,0c-.45-2.1-1.7-3.69-3.06-3.68s-1.92,1.54-1.46,3.69,1.69,3.68,3.07,3.68S1060.23,715.69,1059.77,713.56Z" class="cls-6"></path><path d="M1080.17,694.57c-.72-3.36.58-6,3.33-6s5.14,2.59,5.87,6-.57,6-3.33,6S1080.9,698,1080.17,694.57Zm6.86,0c-.45-2.1-1.7-3.68-3.07-3.68s-1.91,1.54-1.45,3.69,1.69,3.69,3.06,3.69S1087.49,696.69,1087,694.55Z" class="cls-6"></path><path d="M1095,691.25l-1.7.5-.92-2.09,2.76-1h1.55l2.5,11.66h-2.25Z" class="cls-6"></path><path d="M1280.38,559.94c5.1-.54,16.85,1,24.52,12.85s2.36,25.8,21.53,36.56,16.42,24.32,12.59,41.33-19.92,37.59-39.09,36.59-52-45.65-50.78-60.62,6.88-16.76,2.36-26.66C1244.43,584.48,1257.55,562.39,1280.38,559.94Z" class="cls-19"></path><path d="M1287.86,631c.09-.15.14-.25.14-.25-2.13-.86-2.31-4.36-.34-19l-1,.06-17.12.93s-.4,6-1.12,11.55c-.14,1.11-.3,2.21-.47,3.23C1255.05,642,1282.77,648.57,1287.86,631Z" class="cls-13"></path><path d="M1252.87,1023.74h37s.89-6.37-1-11.21c-1.85-4.64-4.73-7.51-5-11.06-2.35,2.74-5.25,4.5-10.59,3.68-.66,1.2-4.23,7.63-6.42,9.41C1264.39,1016.52,1253.62,1015.82,1252.87,1023.74Z" class="cls-20"></path><path d="M1296.28,852.78c-3.45,9.61-6.09,18.35-5.26,26.06v0a23.05,23.05,0,0,0,.42,2.51c12.13,54.88-5.07,126.34-5.07,126.34a63.24,63.24,0,0,1-7.84,1.52c-5.83.59-6.67-1.37-6.67-1.37s-5.79-58.28-24.53-169.67a347.26,347.26,0,0,1-4.74-39.3c-.3-4.28-.58-9-.89-14.63-.85-15,1.16-40.28,11.12-46.92,4.53-3,10.71-2.19,19,5.2.65.58,1.27,1.28,2,1.87C1324.78,785.91,1306.81,823.44,1296.28,852.78Z" class="cls-15"></path><path d="M1291,878.84c-.58-2.26-18.91-74.68-19.21-80.18-.67-11.83,23.55,20.84,24.47,54.12C1292.83,862.39,1290.19,871.13,1291,878.84Z" class="cls-16"></path><path d="M1420.69,935.72l-15.39-38s-5.5,1.74-8.58,5.74c-3,3.84-5.1,3.15-11.85-2.14,2.54,4.44,2.88,7.05,4.46,12.89,1.23.17,8.28,7.89,15.51,10C1407.72,925,1414,938.25,1420.69,935.72Z" class="cls-20"></path><path d="M1259.32,754.05s33.14,130.29,45.28,138.67,72.17,25.07,89.9,29.07a43.51,43.51,0,0,0-.29-10.9,53,53,0,0,0-2-5.59s-31.52-35.66-62.33-40.66c-6.45-1,2.59-115-41.17-119.44C1248.7,741.12,1259.32,754.05,1259.32,754.05Z" class="cls-15"></path><path d="M1210.2,549s.74-4.18,1.57-7.37c.37-1.41-2.2-10.67-4-11.81s-6.41,5.1-5.1,9.89c.67,2.46,1.78,10.46,1.78,10.46Z" class="cls-13"></path><path d="M1363.21,556.77c.23.53.54,1.47.82,2.36,0-.24,0-.48,0-.71,0-1.78,5.86-11.41,8.27-12s5.79,8.42,2.79,13.41c-1.54,2.56-6.2,11.7-6.2,11.7l-5.16-3.52a8.94,8.94,0,0,0-1.42-4.46c-.7-1-.73-5.73-1-7.79C1361.34,555.75,1362.37,554.82,1363.21,556.77Z" class="cls-13"></path><path d="M1269.52,612.72s-.4,6-1.12,11.55c9.34,1.27,15.52-7.5,18.24-12.48Z" class="cls-21"></path><path d="M1289.85,609.35s6.54-8.58,8.88-16.46c1.66-5.63,1.88-27.48-17.56-27.6a23.59,23.59,0,0,0-11.33,2.78c-4.54,2.46-11.4,8.27-7.19,28.09l.9,6.6Z" class="cls-19"></path><path d="M1265,617.43s23.86,4.47,26.09-12.38,6.82-27.61-8.32-31.18-19,2.36-20.91,7.78S1258.82,615.83,1265,617.43Z" class="cls-13"></path><path d="M1269.5,571.52s6.34,21,16,25.59,14.42,2.3,14.42,2.3a34.78,34.78,0,0,1-6.81-20.58S1275.68,562.94,1269.5,571.52Z" class="cls-19"></path><path d="M1273.31,573.51s-4.4,1.31-8.31,6.64c-2.56,3.51-3.46,8.37-4.61,13.18,0,0-3.17-14.26,3.37-20.93C1270.7,565.33,1273.31,573.51,1273.31,573.51Z" class="cls-19"></path><path d="M1369.86,571.59s-5.24,48.4-16.29,60c-7.67,8-34.81,21-41.3,32.91-.77,1.43-1.71,5.47-2.46,11.46-2.19,17.54-2.74,51.8,7.37,86.2q.71,2.4,1.47,4.78c1.38,4.25-.47,9-4.24,10.47a110.2,110.2,0,0,1-20,5.91c-1.57.32-3.19.59-4.84.82-22.77,3.27-38.17-2.77-46-7.24a12.09,12.09,0,0,1-5.7-11.17c.47-9.55,4.69-19,6.6-42,1.44-17.42-9.07-42-8.51-51.26.22-3.67,1.83-19.94.2-22.46-10.83-16.82-29-32.92-31.84-48.28-3.22-17.7-1.14-53-1.14-53a16.24,16.24,0,0,1,5-1.44c3.08,0,5.24,3.19,5.24,3.19s8.12,34.41,8.53,36.73c2.16,12.34,22.92,30.23,29.21,33.81,6.88,3.94,12.38,6,16.71,6.51,0,0-5.11,10,2.46,11.39,9.12,1.67,16.15-10.19,16.15-10.19s5.54,1.76,15.52.1c8.27-1.37,37.71-12.63,42-21.18,3.1-6.21,19.45-40.67,19.45-40.67s1.51-1,4,.44A5.22,5.22,0,0,1,1369.86,571.59Z" class="cls-3"></path><path d="M1271.89,608.28s-1,2.33-2.39,2.37-4.86-.33-5.1-.73a25.77,25.77,0,0,1-.81-2.84S1269.35,606.82,1271.89,608.28Z" class="cls-14"></path><path d="M1317.18,762.13s-20.48-4-21.84-20.45c-1.45-17.57,14.46-65.79,14.46-65.79v0C1307.62,693.47,1307.07,727.73,1317.18,762.13Z" class="cls-6"></path><path d="M1267.27,356.53l-2.13-8.85c-2.29-9.5-9.45-16.47-18.09-17.62l-55.65-7.44-4.17,39.94-17.81,170.51,230.22,30.76,17.81-170.51-130.28-17.4C1277.66,374.64,1269.79,367,1267.27,356.53Z" class="cls-10"></path><path d="M1212.76,455.24l1.58-15.17,49.48-17-1.62,15.5-34.45,10.89L1259,469.11l-1.64,15.72Z" class="cls-14"></path><path d="M1314.61,411.44l12.54,1.67-53.69,96.05-12.54-1.68Z" class="cls-14"></path><path d="M1375.11,461.55l-1.58,15.17-49.48,17,1.62-15.5,34.45-10.9-31.26-19.66L1330.5,432Z" class="cls-14"></path><path d="M1361.92,562.26s-.68-6.71-1.27-8,.88-1.62,2.14,1.25,3.76,2,5,4.84.15,3.58-1.4,3.42A20.46,20.46,0,0,1,1361.92,562.26Z" class="cls-13"></path><path d="M1210.61,546.85s3.38-4.13,3.36-6,2.36-6.42,1.7-7.25-1.84.5-2.47,1.75-3.21,1.17-3.8,4.59A12.51,12.51,0,0,0,1210.61,546.85Z" class="cls-13"></path><polygon points="676.11 525.65 763.53 568.96 763.53 530.42 717.99 509.24 763.53 488.05 763.53 449.88 676.11 493.19 676.11 525.65" class="cls-12"></polygon><polygon points="843.91 423.19 768.37 601.77 800.29 601.77 875.84 423.19 843.91 423.19" class="cls-12"></polygon><polygon points="881.68 449.88 881.68 488.41 927.23 509.6 881.68 530.78 881.68 568.96 969.11 525.65 969.11 493.19 881.68 449.88" class="cls-12"></polygon><rect height="10.2" width="31.93" y="591.58" x="768.37" class="cls-12"></rect><rect height="10.2" width="14.92" y="413" x="860.92" class="cls-12"></rect><polygon points="676.11 515.45 763.53 558.76 763.53 520.23 717.99 499.04 763.53 477.86 763.53 439.68 676.11 482.99 676.11 515.45" class="cls-22"></polygon><polygon points="843.91 413 768.37 591.58 800.29 591.58 875.84 413 843.91 413" class="cls-22"></polygon><polygon points="881.68 439.68 881.68 478.22 927.23 499.4 881.68 520.59 881.68 558.76 969.11 515.45 969.11 482.99 881.68 439.68" class="cls-22"></polygon><polygon points="1166.4 799.61 1161.07 799.61 1117.5 611.56 1061.48 369.81 435.89 369.81 530.66 799.61 523.89 799.69 427.99 363.98 1065.88 363.36 1066.44 365.76 1122.44 608.8 1166.4 799.61" class="cls-6"></polygon><polygon points="1167.36 803.8 1162.23 804.58 1117.5 611.56 1122.44 608.8 1167.36 803.8" class="cls-3"></polygon><path d="M525.29,471.07a5.15,5.15,0,0,0-.74,5s0,0,0,0c1.07,3.35,4.6,7.08,8.71,10.8.52.48,1,.92,1.39,1.32l.32.32.24.25c3.82,4,2.38,4.9,9.26,13,7.83,9.22,13.23,9.39,14.77,8.55,1.29-.72-1.34-5.61-4.27-11.11l-.42-.8-1.17-2.2c-3.42-6.62-2.54-9.73-1.73-19.57.66-8,11-44.71,11-44.71l-15-2.92s-4.53,29.22-9.51,33.72c-2.66,2.4-5.65,2.43-8.21,4.21l-.53.38A20.15,20.15,0,0,0,525.29,471.07Z" class="cls-13"></path><path d="M525.29,471.07a5.15,5.15,0,0,0-.74,5s0,0,0,0c1.31,3.34,4.75,7.06,8.72,10.77.52.49,1,.93,1.38,1.35l.32.32.24.25c3.82,4,2.38,4.9,9.26,13,7.83,9.22,13.23,9.39,14.77,8.55,1.29-.72-1.34-5.61-4.27-11.11a33.68,33.68,0,0,1-14-11.64c-4.72-6.81-7.87-15.56-11.08-20.63l-.53.38A20.15,20.15,0,0,0,525.29,471.07Z" class="cls-16"></path><path d="M646.4,460.46c.93,5.24,7.53,4.37,14.92,2.33s5.63.38,16.13-.93,13.7-5.75,14-7.52c.28-1.57-4.91-2.12-10.48-2.84l-2.11-.29c-6.28-.89-10.89-5.48-16.6-9.25-5.41-3.57-13.48-18.11-13.48-18.11l-14.41,1.29s7.56,13,10.48,18.64c1.72,3.32,1.63,7.71,1.42,11.1A23.68,23.68,0,0,0,646.4,460.46Z" class="cls-13"></path><path d="M661.32,462.79c7.38-2,5.63.38,16.13-.93s13.7-5.75,14-7.52c.28-1.57-4.91-2.12-10.48-2.84l0,.12a27.52,27.52,0,0,1-15.05,5.29c-7.13.19-14.68-2.12-19.6-2a23.68,23.68,0,0,0,.11,5.58C647.33,465.7,653.93,464.83,661.32,462.79Z" class="cls-16"></path><path d="M591.17,356.24l-13.47,41-17.59,53.53a25.37,25.37,0,0,1-9.34-1,39,39,0,0,1-9-5s4.89-57.47,14-90.47c2.33-8.47,4.95-15.32,7.84-19.17C577.69,316.31,591.17,356.24,591.17,356.24Z" class="cls-12"></path><path d="M577.48,291.14c-8.83-3.22-34,.91-59.29,6.51l-5.29-9.88L458.28,283s-18,45.2-8.16,74c1.45,4.23,4.34,6.95,9.25,7h.8l43.06,0c27.16,0,57.48-21.12,61.4-22,6.42-1.45,9,13.07,15.41,28.32s60.36,67.53,60.36,67.53,8.28.09,11.71-1.36a11.63,11.63,0,0,0,5-3.59S597.38,298.4,577.48,291.14Z" class="cls-15"></path><path d="M494.8,99.73c-7.65-2.23-18.13,0-19.87.18-20.78,2.32-27.76,28.54-24.61,48.88,2.9,18.77-5.52,24-15.28,38.79-19.56,29.73-6.77,54.8,8.66,61.26,9.26,3.88,22.12-5.91,22.12-5.91.24.11,40.41-29.76,56.88-46.6C550.13,184.19,514.3,105.4,494.8,99.73Z" class="cls-22"></path><path d="M497.87,185.72c.55,2.17-8.54,6.17-15.48,4.7-6.53-1.38-13.85-10-12.34-10.83,2.5-1.35,4.18-4.68,2.81-22.74l1.25.16,20.88,2.7s.06,7.36.55,14.25C496,179.75,497,182.17,497.87,185.72Z" class="cls-13"></path><path d="M495,159.71s.06,7.36.55,14.25c-11.53.7-18.47-10.6-21.43-17Z" class="cls-21"></path><path d="M499.31,165.88s-27.18,3-28.59-16.14-5.86-31.68,11.43-34.43,21.2,4.25,23.05,10.52S506.34,164.6,499.31,165.88Z" class="cls-13"></path><path d="M496.39,112.28s-3.42,23.42-18.89,29c-11.3,4.05-16.41,1.38-16.41,1.38a55.35,55.35,0,0,0,7.37-19.48A9.13,9.13,0,0,1,474,116C482,113,491.73,104.86,496.39,112.28Z" class="cls-22"></path><path d="M491.27,117.28s5.12,1.29,9.66,8.76c2.48,4.09,5.36,14.38,4.86,18.94,0,0,4.76-21.67-2.17-29.73C496.26,106.7,491.27,117.28,491.27,117.28Z" class="cls-22"></path><path d="M448.94,248.68c.48,2.33.9,4.47,1.23,6.45.56,3.19.94,5.93,1.21,8.36.83,7.56.57,12,1.14,16.94a46.72,46.72,0,0,0,2,9.22c1.12,3.51,30.65,6.64,47.45,5.38,5.34-.39,9.4-1.24,10.85-2.65,6-5.89,5.39,7.06,6.22-54.89.39-30.22-22.68-57.13-22.68-57.13s-1.84,12.9-24.72-2.46c-.81-.54-9.82,14.55-18.5,33.13C443.62,231.56,446.24,235.9,448.94,248.68Z" class="cls-10"></path><path d="M577.7,397.24l-17.59,53.53a25.37,25.37,0,0,1-9.34-1,39,39,0,0,1-9-5s4.89-57.47,14-90.47Z" class="cls-22"></path><path d="M496.39,180.35s23.55,4.51,26.31,16,21.86,75.57,21.86,75.57-14.8,5.71-20.32-.54-19.24-58-19.24-58Z" class="cls-10"></path><path d="M592.36,257.17l5.58-2.5s3.36-.84,5.17-.2,6.34.58,6.36,1.42-5.16,3.46-5.16,3.46l-.17-.08c2,5.05,11.83,7.94,12.31,9.79.58,2.25-4,3.41-6.51,4.11s-8.62.63-11.64-3c-2.2-2.63-5.94-6.25-5.94-6.25Z" class="cls-13"></path><path d="M493,154.58s1.14,3.15,4.15,3.15,3.82-.51,4.39-1.23a11.11,11.11,0,0,0,1.14-2.11A22.53,22.53,0,0,0,493,154.58Z" class="cls-14"></path><path d="M538,249.75l57,4.92A22.39,22.39,0,0,1,592.51,268s-51.41,11.37-64.83,5.56-11.91-33.19-11.91-33.19Z" class="cls-10"></path><path d="M451.38,263.49c.83,7.56.57,12,1.14,16.94,21.37.08,50-18.67,50-18.67Z" class="cls-9"></path><path d="M502.47,245.9s-33.3-1.12-38.91-22.52c-6.17-23.52-13.08,9.67-13.08,9.67l3.68,21.18h36.53Z" class="cls-9"></path><path d="M560.52,187.82l-1.8-5c-1.93-5.41-6.56-8.94-11.72-8.94H513.81V299.36H651.13V197.66H573.42C567.75,197.66,562.65,193.77,560.52,187.82Z" class="cls-3"></path><path d="M534.52,250.17v-9l28.06-13.9v9.25L543,245.58l19.59,9.11v9.38Z" class="cls-14"></path><path d="M591.74,216.4h7.48l-25.68,60.72h-7.48Z" class="cls-14"></path><path d="M630.42,241.12v9l-28.07,13.9v-9.24l19.6-9.12-19.6-9.11v-9.38Z" class="cls-14"></path><path d="M502.47,250.87l2.41-4.28a18.71,18.71,0,0,0,4.58-2.83c3.18-2.52,2.76-6.31,4.35-5.91l0,8.32-.18,0c6.83,2.06,14.81-.18,15,1.74.44,5.29-3.18,7.67-6.21,9.32-2.31,1.27-4.95,3.17-9.14,1.7-3.06-1.08-7.88-2.18-7.88-2.18Z" class="cls-13"></path><path d="M471.67,177.9s-21.62,1.6-27,11.14-12.11,57.94-9.3,74.57,72-3.18,72-3.18L505.18,246s-39.95.27-42.23-5.62C459.92,232.56,471.67,177.9,471.67,177.9Z" class="cls-10"></path><path d="M576,197.61c-.18.63,3.25,7,8.16,5.92,3.06-.69,7-8.15,3.55-9.79C581.88,191,576.51,195.91,576,197.61Z" class="cls-13"></path></g></g></svg>